SplineFontDB: 3.2
FontName: UtoSerifKhojki-Regular
FullName: Uto Serif Khojki Regular
FamilyName: Uto Serif Khojki
Weight: Regular
Copyright: Copyright 2022 The Noto Project Authors (https://github.com/notofonts/khojki)
Version: 2.004; ttfautohint (v1.8.4.7-5d5b)
ItalicAngle: 0
UnderlinePosition: -125
UnderlineWidth: 50
Ascent: 800
Descent: 200
InvalidEm: 0
sfntRevision: 0x00020106
LayerCount: 2
Layer: 0 1 "+BBcEMAQ0BD0EOAQ5 +BD8EOwQwBD0A" 1
Layer: 1 1 "+BB8ENQRABDUENAQ9BDgEOQAA +BD8EOwQwBD0A" 0
XUID: [1021 59 1751208496 9071]
StyleMap: 0x0040
FSType: 0
OS2Version: 4
OS2_WeightWidthSlopeOnly: 0
OS2_UseTypoMetrics: 1
CreationTime: 1606911163
ModificationTime: 1687622080
PfmFamily: 17
TTFWeight: 400
TTFWidth: 5
LineGap: 0
VLineGap: 0
Panose: 2 0 5 2 4 5 4 2 2 4
OS2TypoAscent: 1409
OS2TypoAOffset: 0
OS2TypoDescent: -447
OS2TypoDOffset: 0
OS2TypoLinegap: 0
OS2WinAscent: 1613
OS2WinAOffset: 0
OS2WinDescent: 447
OS2WinDOffset: 0
HheadAscent: 1409
HheadAOffset: 0
HheadDescent: -447
HheadDOffset: 0
OS2SubXSize: 650
OS2SubYSize: 600
OS2SubXOff: 0
OS2SubYOff: 75
OS2SupXSize: 650
OS2SupYSize: 600
OS2SupXOff: 0
OS2SupYOff: 350
OS2StrikeYSize: 50
OS2StrikeYPos: 322
OS2CapHeight: 714
OS2XHeight: 536
OS2Vendor: 'GOOG'
OS2CodePages: 00000001.00000000
OS2UnicodeRanges: 80040003.02002000.00000000.00000000
Lookup: 4 0 0 "+BB8EPgQ0BEEEQgQwBD0EPgQyBDoEMAAA +BDsEOAQzBDAEQgRDBEAESwAA lookup 0" { "+BB8EPgQ0BEEEQgQwBD0EPgQyBDoEMAAA +BDsEOAQzBDAEQgRDBEAESwAA lookup 0 subtable"  } []
Lookup: 6 0 0 "'rkrf' Rakar Forms in Khojki lookup 1" { "'rkrf' Rakar Forms in Khojki lookup 1 subtable"  } ['rkrf' ('DFLT' <'dflt' > 'khoj' <'ARA ' 'FAR ' 'GUJ ' 'HIN ' 'PAN ' 'SND ' 'URD ' 'dflt' > ) ]
Lookup: 4 0 0 "+BB8EPgQ0BEEEQgQwBD0EPgQyBDoEMAAA +BDsEOAQzBDAEQgRDBEAESwAA lookup 2" { "+BB8EPgQ0BEEEQgQwBD0EPgQyBDoEMAAA +BDsEOAQzBDAEQgRDBEAESwAA lookup 2 subtable"  } []

StartChar: .notdef
Encoding: 1114112 -1 0
Width: 600
GlyphClass: 1
Flags: W
LayerCount: 2
Fore
SplineSet
94 0 m 1,0,-1
 94 714 l 1,1,-1
 505 714 l 1,2,-1
 505 0 l 1,3,-1
 94 0 l 1,0,-1
145 51 m 1,4,-1
 454 51 l 1,5,-1
 454 663 l 1,6,-1
 145 663 l 1,7,-1
 145 51 l 1,4,-1
EndSplineSet
EndChar

StartChar: uni25CC
Encoding: 9676 9676 6
Width: 594
GlyphClass: 2
Flags: MW
AnchorPoint: "+BBEENQQ3BEsEPARPBD0EPQQ+BDUA--7" 297 540 basechar 0
AnchorPoint: "+BBEENQQ3BEsEPARPBD0EPQQ+BDUA--6" 544 610 basechar 0
AnchorPoint: "+BBEENQQ3BEsEPARPBD0EPQQ+BDUA--5" 298 0 basechar 0
LayerCount: 2
Fore
SplineSet
297 488 m 0,0,1
 287 488 287 488 279 496 c 128,-1,2
 271 504 271 504 271 514 c 0,3,4
 271 525 271 525 279 532.5 c 128,-1,5
 287 540 287 540 297 540 c 0,6,7
 308 540 308 540 315.5 532.5 c 128,-1,8
 323 525 323 525 323 514 c 0,9,10
 323 504 323 504 315.5 496 c 128,-1,11
 308 488 308 488 297 488 c 0,0,1
213 470 m 0,12,13
 203 470 203 470 195 478 c 128,-1,14
 187 486 187 486 187 496 c 0,15,16
 187 507 187 507 195 514.5 c 128,-1,17
 203 522 203 522 213 522 c 0,18,19
 224 522 224 522 231.5 514.5 c 128,-1,20
 239 507 239 507 239 496 c 0,21,22
 239 486 239 486 231.5 478 c 128,-1,23
 224 470 224 470 213 470 c 0,12,13
381 470 m 0,24,25
 371 470 371 470 363 478 c 128,-1,26
 355 486 355 486 355 496 c 0,27,28
 355 507 355 507 363 514.5 c 128,-1,29
 371 522 371 522 381 522 c 0,30,31
 392 522 392 522 399.5 514.5 c 128,-1,32
 407 507 407 507 407 496 c 0,33,34
 407 486 407 486 399.5 478 c 128,-1,35
 392 470 392 470 381 470 c 0,24,25
455 423 m 0,36,37
 445 423 445 423 437 431 c 128,-1,38
 429 439 429 439 429 449 c 0,39,40
 429 460 429 460 437 467.5 c 128,-1,41
 445 475 445 475 455 475 c 0,42,43
 466 475 466 475 473.5 467.5 c 128,-1,44
 481 460 481 460 481 449 c 0,45,46
 481 439 481 439 473.5 431 c 128,-1,47
 466 423 466 423 455 423 c 0,36,37
139 423 m 0,48,49
 129 423 129 423 121 431 c 128,-1,50
 113 439 113 439 113 449 c 0,51,52
 113 460 113 460 121 467.5 c 128,-1,53
 129 475 129 475 139 475 c 0,54,55
 150 475 150 475 157.5 467.5 c 128,-1,56
 165 460 165 460 165 449 c 0,57,58
 165 439 165 439 157.5 431 c 128,-1,59
 150 423 150 423 139 423 c 0,48,49
92 349 m 0,60,61
 82 349 82 349 74 357 c 128,-1,62
 66 365 66 365 66 375 c 0,63,64
 66 386 66 386 74 393.5 c 128,-1,65
 82 401 82 401 92 401 c 0,66,67
 103 401 103 401 110.5 393.5 c 128,-1,68
 118 386 118 386 118 375 c 0,69,70
 118 365 118 365 110.5 357 c 128,-1,71
 103 349 103 349 92 349 c 0,60,61
502 349 m 0,72,73
 492 349 492 349 484 357 c 128,-1,74
 476 365 476 365 476 375 c 0,75,76
 476 386 476 386 484 393.5 c 128,-1,77
 492 401 492 401 502 401 c 0,78,79
 513 401 513 401 520.5 393.5 c 128,-1,80
 528 386 528 386 528 375 c 0,81,82
 528 365 528 365 520.5 357 c 128,-1,83
 513 349 513 349 502 349 c 0,72,73
74 265 m 0,84,85
 64 265 64 265 56 273 c 128,-1,86
 48 281 48 281 48 291 c 0,87,88
 48 302 48 302 56 309.5 c 128,-1,89
 64 317 64 317 74 317 c 0,90,91
 85 317 85 317 92.5 309.5 c 128,-1,92
 100 302 100 302 100 291 c 0,93,94
 100 281 100 281 92.5 273 c 128,-1,95
 85 265 85 265 74 265 c 0,84,85
520 265 m 0,96,97
 510 265 510 265 502 273 c 128,-1,98
 494 281 494 281 494 291 c 0,99,100
 494 302 494 302 502 309.5 c 128,-1,101
 510 317 510 317 520 317 c 0,102,103
 531 317 531 317 538.5 309.5 c 128,-1,104
 546 302 546 302 546 291 c 0,105,106
 546 281 546 281 538.5 273 c 128,-1,107
 531 265 531 265 520 265 c 0,96,97
92 181 m 0,108,109
 82 181 82 181 74 189 c 128,-1,110
 66 197 66 197 66 207 c 0,111,112
 66 218 66 218 74 225.5 c 128,-1,113
 82 233 82 233 92 233 c 0,114,115
 103 233 103 233 110.5 225.5 c 128,-1,116
 118 218 118 218 118 207 c 0,117,118
 118 197 118 197 110.5 189 c 128,-1,119
 103 181 103 181 92 181 c 0,108,109
502 181 m 0,120,121
 492 181 492 181 484 189 c 128,-1,122
 476 197 476 197 476 207 c 0,123,124
 476 218 476 218 484 225.5 c 128,-1,125
 492 233 492 233 502 233 c 0,126,127
 513 233 513 233 520.5 225.5 c 128,-1,128
 528 218 528 218 528 207 c 0,129,130
 528 197 528 197 520.5 189 c 128,-1,131
 513 181 513 181 502 181 c 0,120,121
139 107 m 0,132,133
 129 107 129 107 121 115 c 128,-1,134
 113 123 113 123 113 133 c 0,135,136
 113 144 113 144 121 151.5 c 128,-1,137
 129 159 129 159 139 159 c 0,138,139
 150 159 150 159 157.5 151.5 c 128,-1,140
 165 144 165 144 165 133 c 0,141,142
 165 123 165 123 157.5 115 c 128,-1,143
 150 107 150 107 139 107 c 0,132,133
455 107 m 0,144,145
 445 107 445 107 437 115 c 128,-1,146
 429 123 429 123 429 133 c 0,147,148
 429 144 429 144 437 151.5 c 128,-1,149
 445 159 445 159 455 159 c 0,150,151
 466 159 466 159 473.5 151.5 c 128,-1,152
 481 144 481 144 481 133 c 0,153,154
 481 123 481 123 473.5 115 c 128,-1,155
 466 107 466 107 455 107 c 0,144,145
213 60 m 0,156,157
 203 60 203 60 195 68 c 128,-1,158
 187 76 187 76 187 86 c 0,159,160
 187 97 187 97 195 104.5 c 128,-1,161
 203 112 203 112 213 112 c 0,162,163
 224 112 224 112 231.5 104.5 c 128,-1,164
 239 97 239 97 239 86 c 0,165,166
 239 76 239 76 231.5 68 c 128,-1,167
 224 60 224 60 213 60 c 0,156,157
381 60 m 0,168,169
 371 60 371 60 363 68 c 128,-1,170
 355 76 355 76 355 86 c 0,171,172
 355 97 355 97 363 104.5 c 128,-1,173
 371 112 371 112 381 112 c 0,174,175
 392 112 392 112 399.5 104.5 c 128,-1,176
 407 97 407 97 407 86 c 0,177,178
 407 76 407 76 399.5 68 c 128,-1,179
 392 60 392 60 381 60 c 0,168,169
297 42 m 0,180,181
 287 42 287 42 279 50 c 128,-1,182
 271 58 271 58 271 68 c 0,183,184
 271 79 271 79 279 86.5 c 128,-1,185
 287 94 287 94 297 94 c 0,186,187
 308 94 308 94 315.5 86.5 c 128,-1,188
 323 79 323 79 323 68 c 0,189,190
 323 58 323 58 315.5 50 c 128,-1,191
 308 42 308 42 297 42 c 0,180,181
EndSplineSet
EndChar

StartChar: zerokhoj
Encoding: 2790 2790 7
Width: 548
GlyphClass: 1
Flags: W
LayerCount: 2
Fore
SplineSet
280 89 m 0,0,1
 241 89 241 89 201.5 105.5 c 128,-1,2
 162 122 162 122 128.5 152 c 128,-1,3
 95 182 95 182 75 222 c 128,-1,4
 55 262 55 262 55 309 c 0,5,6
 55 371 55 371 82.5 420.5 c 128,-1,7
 110 470 110 470 158.5 498.5 c 128,-1,8
 207 527 207 527 268 527 c 0,9,10
 312 527 312 527 352 508.5 c 128,-1,11
 392 490 392 490 424 458.5 c 128,-1,12
 456 427 456 427 474.5 386 c 128,-1,13
 493 345 493 345 493 300 c 0,14,15
 493 239 493 239 465 191 c 128,-1,16
 437 143 437 143 389 116 c 128,-1,17
 341 89 341 89 280 89 c 0,0,1
247 164 m 0,18,19
 292 164 292 164 330 187.5 c 128,-1,20
 368 211 368 211 391 249.5 c 128,-1,21
 414 288 414 288 414 332 c 0,22,23
 414 388 414 388 382 418.5 c 128,-1,24
 350 449 350 449 305 449 c 0,25,26
 262 449 262 449 223 425.5 c 128,-1,27
 184 402 184 402 160 363 c 128,-1,28
 136 324 136 324 136 277 c 0,29,30
 136 224 136 224 167.5 194 c 128,-1,31
 199 164 199 164 247 164 c 0,18,19
EndSplineSet
EndChar

StartChar: onekhoj
Encoding: 2791 2791 8
Width: 477
GlyphClass: 1
Flags: W
LayerCount: 2
Fore
SplineSet
378 0 m 0,0,1
 348 0 348 0 320.5 15.5 c 128,-1,2
 293 31 293 31 275.5 57.5 c 128,-1,3
 258 84 258 84 258 116 c 0,4,5
 258 155 258 155 260.5 203 c 128,-1,6
 263 251 263 251 267 308 c 1,7,8
 250 299 250 299 232.5 293 c 128,-1,9
 215 287 215 287 195 287 c 0,10,11
 155 287 155 287 117 309.5 c 128,-1,12
 79 332 79 332 54.5 369.5 c 128,-1,13
 30 407 30 407 30 452 c 0,14,15
 30 493 30 493 51.5 527.5 c 128,-1,16
 73 562 73 562 107.5 582.5 c 128,-1,17
 142 603 142 603 182 603 c 256,18,19
 222 603 222 603 261.5 581 c 128,-1,20
 301 559 301 559 327.5 518.5 c 128,-1,21
 354 478 354 478 354 423 c 0,22,23
 354 381 354 381 351 322.5 c 128,-1,24
 348 264 348 264 344.5 203 c 128,-1,25
 341 142 341 142 341 89 c 0,26,27
 341 64 341 64 347.5 56.5 c 128,-1,28
 354 49 354 49 362 49 c 0,29,30
 375 49 375 49 386 66 c 128,-1,31
 397 83 397 83 404 128 c 1,32,33
 430 120 430 120 448.5 105 c 128,-1,34
 467 90 467 90 467 71 c 0,35,36
 467 40 467 40 440 20 c 128,-1,37
 413 0 413 0 378 0 c 0,0,1
174 344 m 0,38,39
 208 344 208 344 232.5 363.5 c 128,-1,40
 257 383 257 383 271 411 c 128,-1,41
 285 439 285 439 285 466 c 0,42,43
 285 498 285 498 266 516.5 c 128,-1,44
 247 535 247 535 218 535 c 256,45,46
 189 535 189 535 162.5 518 c 128,-1,47
 136 501 136 501 120 473.5 c 128,-1,48
 104 446 104 446 104 414 c 0,49,50
 104 380 104 380 124 362 c 128,-1,51
 144 344 144 344 174 344 c 0,38,39
EndSplineSet
EndChar

StartChar: twokhoj
Encoding: 2792 2792 9
Width: 501
GlyphClass: 2
Flags: W
LayerCount: 2
Fore
SplineSet
353 0 m 0,0,1
 283 0 283 0 241.5 51 c 128,-1,2
 200 102 200 102 176 209 c 1,3,4
 133 209 133 209 103 230.5 c 128,-1,5
 73 252 73 252 73 279 c 0,6,7
 73 295 73 295 84.5 315 c 128,-1,8
 96 335 96 335 114.5 350 c 128,-1,9
 133 365 133 365 154 365 c 0,10,11
 174 365 174 365 188 345 c 128,-1,12
 202 325 202 325 211 301 c 1,13,14
 246 310 246 310 276 332 c 128,-1,15
 306 354 306 354 324 384 c 128,-1,16
 342 414 342 414 342 448 c 0,17,18
 342 483 342 483 319.5 507.5 c 128,-1,19
 297 532 297 532 249 532 c 0,20,21
 210 532 210 532 163 512.5 c 128,-1,22
 116 493 116 493 79 457 c 1,23,24
 65 471 65 471 52.5 486.5 c 128,-1,25
 40 502 40 502 40 518 c 0,26,27
 40 541 40 541 61.5 560 c 128,-1,28
 83 579 83 579 118.5 590.5 c 128,-1,29
 154 602 154 602 196 602 c 0,30,31
 262 602 262 602 310 574 c 128,-1,32
 358 546 358 546 384.5 503.5 c 128,-1,33
 411 461 411 461 411 416 c 0,34,35
 411 372 411 372 390.5 335.5 c 128,-1,36
 370 299 370 299 335 270 c 0,37,38
 310 249 310 249 281.5 235 c 128,-1,39
 253 221 253 221 224 215 c 1,40,41
 242 88 242 88 328 88 c 0,42,43
 362 88 362 88 387.5 96.5 c 128,-1,44
 413 105 413 105 433 119 c 1,45,46
 444 106 444 106 450 87 c 128,-1,47
 456 68 456 68 456 55 c 0,48,49
 456 37 456 37 440 25 c 128,-1,50
 424 13 424 13 400 6.5 c 128,-1,51
 376 0 376 0 353 0 c 0,0,1
EndSplineSet
EndChar

StartChar: threekhoj
Encoding: 2793 2793 10
Width: 513
GlyphClass: 2
Flags: W
LayerCount: 2
Fore
SplineSet
294 -2 m 0,0,1
 232 -2 232 -2 182 28 c 128,-1,2
 132 58 132 58 97 108 c 128,-1,3
 62 158 62 158 45 216 c 1,4,-1
 69 265 l 1,5,-1
 77 264 l 1,6,7
 100 187 100 187 145 135 c 128,-1,8
 190 83 190 83 257 83 c 0,9,10
 313 83 313 83 350.5 113.5 c 128,-1,11
 388 144 388 144 388 196 c 0,12,13
 388 255 388 255 332 291 c 1,14,15
 281 267 281 267 215 261 c 1,16,17
 202 276 202 276 188.5 296.5 c 128,-1,18
 175 317 175 317 167 334 c 1,19,-1
 171 341 l 1,20,21
 219 346 219 346 262.5 359.5 c 128,-1,22
 306 373 306 373 333 396.5 c 128,-1,23
 360 420 360 420 360 455 c 0,24,25
 360 485 360 485 339 508.5 c 128,-1,26
 318 532 318 532 269 532 c 0,27,28
 230 532 230 532 183 512.5 c 128,-1,29
 136 493 136 493 99 457 c 1,30,31
 85 471 85 471 72.5 486.5 c 128,-1,32
 60 502 60 502 60 518 c 0,33,34
 60 541 60 541 81.5 560 c 128,-1,35
 103 579 103 579 138.5 590.5 c 128,-1,36
 174 602 174 602 216 602 c 0,37,38
 282 602 282 602 330 574 c 128,-1,39
 378 546 378 546 404 505 c 128,-1,40
 430 464 430 464 430 423 c 0,41,42
 430 389 430 389 414 361 c 128,-1,43
 398 333 398 333 369 313 c 1,44,45
 411 284 411 284 439.5 243.5 c 128,-1,46
 468 203 468 203 468 159 c 0,47,48
 468 113 468 113 445 76.5 c 128,-1,49
 422 40 422 40 382.5 19 c 128,-1,50
 343 -2 343 -2 294 -2 c 0,0,1
EndSplineSet
EndChar

StartChar: fourkhoj
Encoding: 2794 2794 11
Width: 544
GlyphClass: 1
Flags: W
LayerCount: 2
Fore
SplineSet
300 -2 m 0,0,1
 257 -2 257 -2 220.5 16 c 128,-1,2
 184 34 184 34 157.5 61.5 c 128,-1,3
 131 89 131 89 116 120.5 c 128,-1,4
 101 152 101 152 101 179 c 0,5,6
 101 220 101 220 125 255 c 128,-1,7
 149 290 149 290 185 327 c 2,8,-1
 249 393 l 1,9,-1
 222 426 l 2,10,11
 180 476 180 476 158 495 c 128,-1,12
 136 514 136 514 111 514 c 0,13,14
 98 514 98 514 80.5 508.5 c 128,-1,15
 63 503 63 503 43 490 c 1,16,17
 34 504 34 504 27 521.5 c 128,-1,18
 20 539 20 539 20 556 c 0,19,20
 20 578 20 578 37.5 590 c 128,-1,21
 55 602 55 602 78 602 c 0,22,23
 116 602 116 602 155.5 565.5 c 128,-1,24
 195 529 195 529 241 475 c 2,25,-1
 281 427 l 1,26,-1
 460 611 l 1,27,-1
 468 609 l 1,28,-1
 489 509 l 1,29,-1
 341 356 l 1,30,-1
 359 334 l 2,31,32
 395 292 395 292 418 263 c 128,-1,33
 441 234 441 234 452 208.5 c 128,-1,34
 463 183 463 183 463 151 c 0,35,36
 463 117 463 117 443.5 81.5 c 128,-1,37
 424 46 424 46 387.5 22 c 128,-1,38
 351 -2 351 -2 300 -2 c 0,0,1
183 147 m 0,39,40
 183 114 183 114 204.5 92.5 c 128,-1,41
 226 71 226 71 262 71 c 0,42,43
 292 71 292 71 318 86 c 128,-1,44
 344 101 344 101 360.5 127 c 128,-1,45
 377 153 377 153 377 186 c 0,46,47
 377 218 377 218 361.5 247.5 c 128,-1,48
 346 277 346 277 318 311 c 2,49,-1
 308 323 l 1,50,-1
 255 268 l 2,51,52
 227 239 227 239 205 209 c 128,-1,53
 183 179 183 179 183 147 c 0,39,40
EndSplineSet
EndChar

StartChar: fivekhoj
Encoding: 2795 2795 12
Width: 598
GlyphClass: 1
Flags: W
LayerCount: 2
Fore
SplineSet
499 0 m 0,0,1
 466 0 466 0 438.5 17.5 c 128,-1,2
 411 35 411 35 394 60.5 c 128,-1,3
 377 86 377 86 377 109 c 0,4,5
 377 131 377 131 378.5 162.5 c 128,-1,6
 380 194 380 194 382 231 c 1,7,8
 366 222 366 222 341 217.5 c 128,-1,9
 316 213 316 213 293 213 c 0,10,11
 258 213 258 213 220.5 233 c 128,-1,12
 183 253 183 253 157 288.5 c 128,-1,13
 131 324 131 324 130 369 c 0,14,15
 129 413 129 413 128.5 445.5 c 128,-1,16
 128 478 128 478 125 499 c 0,17,18
 119 543 119 543 96 543 c 0,19,20
 78 543 78 543 56 524.5 c 128,-1,21
 34 506 34 506 20 488 c 1,22,23
 -15 518 -15 518 -15 550 c 0,24,25
 -15 578 -15 578 8 590 c 128,-1,26
 31 602 31 602 61 602 c 0,27,28
 102 602 102 602 138.5 583 c 128,-1,29
 175 564 175 564 198 534 c 128,-1,30
 221 504 221 504 221 471 c 0,31,32
 221 421 221 421 219.5 387 c 128,-1,33
 218 353 218 353 218 327 c 0,34,35
 218 300 218 300 231.5 284 c 128,-1,36
 245 268 245 268 279 268 c 0,37,38
 307 268 307 268 332.5 281.5 c 128,-1,39
 358 295 358 295 374.5 327 c 128,-1,40
 391 359 391 359 391 414 c 2,41,-1
 391 600 l 1,42,43
 419 589 419 589 442 576 c 128,-1,44
 465 563 465 563 483 547 c 1,45,46
 474 424 474 424 468 308.5 c 128,-1,47
 462 193 462 193 462 89 c 0,48,49
 462 64 462 64 468.5 56.5 c 128,-1,50
 475 49 475 49 483 49 c 0,51,52
 496 49 496 49 507 66 c 128,-1,53
 518 83 518 83 525 128 c 1,54,55
 551 120 551 120 569.5 105 c 128,-1,56
 588 90 588 90 588 71 c 0,57,58
 588 40 588 40 561 20 c 128,-1,59
 534 0 534 0 499 0 c 0,0,1
EndSplineSet
EndChar

StartChar: sixkhoj
Encoding: 2796 2796 13
Width: 475
GlyphClass: 1
Flags: W
LayerCount: 2
Fore
SplineSet
292 -99 m 0,0,1
 235 -99 235 -99 187 -65.5 c 128,-1,2
 139 -32 139 -32 105 20 c 1,3,-1
 108 82 l 1,4,-1
 117 84 l 1,5,6
 146 34 146 34 181.5 6 c 128,-1,7
 217 -22 217 -22 260 -22 c 0,8,9
 300 -22 300 -22 324 -3.5 c 128,-1,10
 348 15 348 15 348 42 c 0,11,12
 348 61 348 61 331.5 79.5 c 128,-1,13
 315 98 315 98 295 117 c 0,14,15
 279 133 279 133 264.5 148 c 128,-1,16
 250 163 250 163 241 180 c 1,17,18
 192 183 192 183 148.5 208 c 128,-1,19
 105 233 105 233 77.5 273 c 128,-1,20
 50 313 50 313 50 360 c 0,21,22
 50 403 50 403 66 433.5 c 128,-1,23
 82 464 82 464 111 491 c 128,-1,24
 140 518 140 518 178 548 c 0,25,26
 198 564 198 564 217 581 c 128,-1,27
 236 598 236 598 253 618 c 1,28,29
 273 606 273 606 291.5 583.5 c 128,-1,30
 310 561 310 561 310 537 c 0,31,32
 310 516 310 516 287.5 500.5 c 128,-1,33
 265 485 265 485 236 470 c 256,34,35
 207 455 207 455 178 436 c 128,-1,36
 149 417 149 417 130 393 c 128,-1,37
 111 369 111 369 111 339 c 0,38,39
 111 310 111 310 134.5 287.5 c 128,-1,40
 158 265 158 265 206 265 c 0,41,42
 217 265 217 265 229.5 266.5 c 128,-1,43
 242 268 242 268 255 272 c 1,44,45
 275 298 275 298 305 316.5 c 128,-1,46
 335 335 335 335 367 345 c 1,47,48
 387 334 387 334 407.5 310 c 128,-1,49
 428 286 428 286 433 270 c 1,50,-1
 429 262 l 1,51,52
 404 255 404 255 377.5 242 c 128,-1,53
 351 229 351 229 333.5 212.5 c 128,-1,54
 316 196 316 196 316 177 c 256,55,56
 316 158 316 158 332.5 142 c 128,-1,57
 349 126 349 126 369 110 c 0,58,59
 393 91 393 91 414 69.5 c 128,-1,60
 435 48 435 48 435 18 c 0,61,62
 435 -7 435 -7 418 -34.5 c 128,-1,63
 401 -62 401 -62 369.5 -80.5 c 128,-1,64
 338 -99 338 -99 292 -99 c 0,0,1
EndSplineSet
EndChar

StartChar: sixkhoj.alt
Encoding: 1114113 -1 14
Width: 481
GlyphClass: 1
Flags: W
LayerCount: 2
Fore
SplineSet
417 -139 m 1,0,1
 363 -124 363 -124 331 -101 c 1,2,-1
 331 -92 l 1,3,4
 355 -75 355 -75 371 -53 c 128,-1,5
 387 -31 387 -31 387 -11 c 0,6,7
 387 13 387 13 359.5 22 c 128,-1,8
 332 31 332 31 296 37 c 2,9,-1
 247 45 l 2,10,11
 123 65 123 65 123 161 c 0,12,13
 123 212 123 212 158 254 c 1,14,15
 109 282 109 282 82 315.5 c 128,-1,16
 55 349 55 349 55 394 c 0,17,18
 55 438 55 438 76.5 467 c 128,-1,19
 98 496 98 496 133.5 518 c 128,-1,20
 169 540 169 540 212 563 c 0,21,22
 237 577 237 577 256 589 c 128,-1,23
 275 601 275 601 297 620 c 1,24,25
 312 607 312 607 326.5 584 c 128,-1,26
 341 561 341 561 341 542 c 0,27,28
 341 517 341 517 316.5 503.5 c 128,-1,29
 292 490 292 490 256 478 c 0,30,31
 222 467 222 467 192.5 452.5 c 128,-1,32
 163 438 163 438 145.5 417 c 128,-1,33
 128 396 128 396 128 363 c 0,34,35
 128 335 128 335 144 317 c 128,-1,36
 160 299 160 299 194 299 c 0,37,38
 230 299 230 299 271 319 c 128,-1,39
 312 339 312 339 361 355 c 1,40,41
 379 342 379 342 395 319.5 c 128,-1,42
 411 297 411 297 420 280 c 1,43,-1
 418 272 l 1,44,45
 359 259 359 259 312 242.5 c 128,-1,46
 265 226 265 226 238 202.5 c 128,-1,47
 211 179 211 179 211 144 c 0,48,49
 211 97 211 97 286 88 c 2,50,-1
 366 79 l 2,51,52
 417 73 417 73 449 50.5 c 128,-1,53
 481 28 481 28 481 -20 c 0,54,55
 481 -51 481 -51 463.5 -82 c 128,-1,56
 446 -113 446 -113 417 -139 c 1,0,1
EndSplineSet
EndChar

StartChar: sevenkhoj
Encoding: 2797 2797 15
Width: 613
GlyphClass: 1
Flags: W
LayerCount: 2
Fore
SplineSet
332 16 m 0,0,1
 263 16 263 16 211 49.5 c 128,-1,2
 159 83 159 83 124.5 141.5 c 128,-1,3
 90 200 90 200 72.5 275.5 c 128,-1,4
 55 351 55 351 55 434 c 0,5,6
 55 459 55 459 56.5 483.5 c 128,-1,7
 58 508 58 508 61 527 c 1,8,-1
 115 555 l 1,9,-1
 120 550 l 1,10,11
 118 526 118 526 116.5 500.5 c 128,-1,12
 115 475 115 475 115 450 c 0,13,14
 115 382 115 382 126.5 320 c 128,-1,15
 138 258 138 258 162 210 c 128,-1,16
 186 162 186 162 223.5 134 c 128,-1,17
 261 106 261 106 313 106 c 0,18,19
 387 106 387 106 436.5 166.5 c 128,-1,20
 486 227 486 227 486 337 c 0,21,22
 486 340 486 340 486 341 c 1,23,24
 465 312 465 312 430 295.5 c 128,-1,25
 395 279 395 279 362 279 c 0,26,27
 322 279 322 279 288.5 299 c 128,-1,28
 255 319 255 319 234.5 353.5 c 128,-1,29
 214 388 214 388 214 431 c 0,30,31
 214 473 214 473 233 511.5 c 128,-1,32
 252 550 252 550 285 575 c 128,-1,33
 318 600 318 600 360 600 c 0,34,35
 408 600 408 600 453.5 563 c 128,-1,36
 499 526 499 526 528.5 459 c 128,-1,37
 558 392 558 392 558 301 c 0,38,39
 558 222 558 222 533 157.5 c 128,-1,40
 508 93 508 93 457.5 54.5 c 128,-1,41
 407 16 407 16 332 16 c 0,0,1
301 407 m 0,42,43
 301 373 301 373 319 357 c 128,-1,44
 337 341 337 341 368 341 c 0,45,46
 397 341 397 341 429.5 356 c 128,-1,47
 462 371 462 371 482 397 c 1,48,49
 474 450 474 450 451.5 487 c 128,-1,50
 429 524 429 524 392 524 c 0,51,52
 367 524 367 524 346.5 506.5 c 128,-1,53
 326 489 326 489 313.5 462 c 128,-1,54
 301 435 301 435 301 407 c 0,42,43
EndSplineSet
EndChar

StartChar: eightkhoj
Encoding: 2798 2798 16
Width: 521
GlyphClass: 1
Flags: W
LayerCount: 2
Fore
SplineSet
289 12 m 0,0,1
 238 12 238 12 192.5 27 c 128,-1,2
 147 42 147 42 111.5 67 c 128,-1,3
 76 92 76 92 55.5 123.5 c 128,-1,4
 35 155 35 155 35 188 c 0,5,6
 35 229 35 229 59 259 c 128,-1,7
 83 289 83 289 118 328 c 2,8,-1
 369 605 l 1,9,-1
 380 603 l 1,10,-1
 413 503 l 1,11,-1
 187 264 l 2,12,13
 159 235 159 235 142.5 212 c 128,-1,14
 126 189 126 189 126 168 c 0,15,16
 126 133 126 133 157 109.5 c 128,-1,17
 188 86 188 86 237 86 c 0,18,19
 305 86 305 86 359.5 121.5 c 128,-1,20
 414 157 414 157 449 214 c 1,21,22
 469 200 469 200 485 175.5 c 128,-1,23
 501 151 501 151 501 132 c 0,24,25
 501 110 501 110 481.5 89 c 128,-1,26
 462 68 462 68 431 50.5 c 128,-1,27
 400 33 400 33 362.5 22.5 c 128,-1,28
 325 12 325 12 289 12 c 0,0,1
EndSplineSet
EndChar

StartChar: ninekhoj
Encoding: 2799 2799 17
Width: 569
GlyphClass: 1
Flags: W
LayerCount: 2
Fore
SplineSet
336 14 m 0,0,1
 281 14 281 14 230 43.5 c 128,-1,2
 179 73 179 73 138.5 120 c 128,-1,3
 98 167 98 167 74 221.5 c 128,-1,4
 50 276 50 276 50 326 c 0,5,6
 50 364 50 364 62.5 393.5 c 128,-1,7
 75 423 75 423 95 450.5 c 128,-1,8
 115 478 115 478 137 507 c 0,9,10
 154 530 154 530 171.5 555 c 128,-1,11
 189 580 189 580 205 609 c 1,12,13
 228 598 228 598 248.5 576 c 128,-1,14
 269 554 269 554 269 531 c 0,15,16
 269 511 269 511 252 491.5 c 128,-1,17
 235 472 235 472 212 450 c 0,18,19
 191 430 191 430 169.5 406 c 128,-1,20
 148 382 148 382 133.5 353.5 c 128,-1,21
 119 325 119 325 119 291 c 0,22,23
 119 259 119 259 132.5 224.5 c 128,-1,24
 146 190 146 190 169.5 160.5 c 128,-1,25
 193 131 193 131 224.5 112.5 c 128,-1,26
 256 94 256 94 293 94 c 0,27,28
 351 94 351 94 406 125.5 c 128,-1,29
 461 157 461 157 492 214 c 1,30,31
 512 200 512 200 528 175.5 c 128,-1,32
 544 151 544 151 544 132 c 0,33,34
 544 109 544 109 522.5 86.5 c 128,-1,35
 501 64 501 64 467 46 c 0,36,37
 406 14 406 14 336 14 c 0,0,1
253 157 m 1,38,-1
 241 158 l 1,39,-1
 206 244 l 1,40,41
 276 328 276 328 337.5 408 c 128,-1,42
 399 488 399 488 439 554 c 1,43,-1
 450 552 l 1,44,-1
 470 437 l 1,45,46
 424 373 424 373 368 300.5 c 128,-1,47
 312 228 312 228 253 157 c 1,38,-1
EndSplineSet
EndChar

StartChar: akhoj
Encoding: 70144 70144 18
Width: 940
GlyphClass: 2
Flags: W
AnchorPoint: "+BBEENQQ3BEsEPARPBD0EPQQ+BDUA--3" 551 516 basechar 0
AnchorPoint: "+BBEENQQ3BEsEPARPBD0EPQQ+BDUA--0" 840 551 basechar 0
LayerCount: 2
Fore
SplineSet
749 64 m 1,0,1
 741 71 741 71 729 86 c 128,-1,2
 717 101 717 101 706.5 118 c 128,-1,3
 696 135 696 135 691 149 c 1,4,5
 712 169 712 169 737 198.5 c 128,-1,6
 762 228 762 228 784.5 262 c 128,-1,7
 807 296 807 296 821 331.5 c 128,-1,8
 835 367 835 367 835 398 c 0,9,10
 835 425 835 425 823.5 441.5 c 128,-1,11
 812 458 812 458 795 458 c 0,12,13
 784 458 784 458 761.5 442.5 c 128,-1,14
 739 427 739 427 710.5 402.5 c 128,-1,15
 682 378 682 378 652.5 350.5 c 128,-1,16
 623 323 623 323 598 298 c 128,-1,17
 573 273 573 273 558 257 c 1,18,-1
 533 261 l 1,19,-1
 511 365 l 2,20,21
 505 391 505 391 498.5 400.5 c 128,-1,22
 492 410 492 410 466 410 c 2,23,-1
 182 410 l 2,24,25
 166 410 166 410 130 424.5 c 128,-1,26
 94 439 94 439 56 461 c 0,27,28
 30 477 30 477 7 494 c 128,-1,29
 -16 511 -16 511 -16 539 c 0,30,31
 -16 560 -16 560 1 571 c 128,-1,32
 18 582 18 582 41 582 c 0,33,34
 73 582 73 582 96 568 c 1,35,36
 92 559 92 559 88 545.5 c 128,-1,37
 84 532 84 532 84 519 c 0,38,39
 84 503 84 503 94.5 496 c 128,-1,40
 105 489 105 489 131 489 c 0,41,42
 151 489 151 489 192 492.5 c 128,-1,43
 233 496 233 496 282.5 500 c 128,-1,44
 332 504 332 504 380 507.5 c 128,-1,45
 428 511 428 511 461 511 c 0,46,47
 493 511 493 511 509 494.5 c 128,-1,48
 525 478 525 478 532 449 c 2,49,-1
 547 384 l 1,50,51
 574 411 574 411 606 439.5 c 128,-1,52
 638 468 638 468 669.5 493 c 128,-1,53
 701 518 701 518 727 534 c 128,-1,54
 753 550 753 550 769 550 c 0,55,56
 786 550 786 550 806.5 536 c 128,-1,57
 827 522 827 522 846 498.5 c 128,-1,58
 865 475 865 475 877.5 445 c 128,-1,59
 890 415 890 415 890 383 c 0,60,61
 890 298 890 298 858.5 220 c 128,-1,62
 827 142 827 142 783 71 c 1,63,-1
 749 64 l 1,0,1
EndSplineSet
EndChar

StartChar: ikhoj
Encoding: 70146 70146 20
Width: 795
GlyphClass: 2
Flags: W
AnchorPoint: "+BBEENQQ3BEsEPARPBD0EPQQ+BDUA--3" 351 896 basechar 0
AnchorPoint: "+BBEENQQ3BEsEPARPBD0EPQQ+BDUA--0" 119 642 basechar 0
LayerCount: 2
Fore
SplineSet
778 -240 m 0,0,1
 727 -240 727 -240 685 -208.5 c 128,-1,2
 643 -177 643 -177 618.5 -121.5 c 128,-1,3
 594 -66 594 -66 594 5 c 0,4,5
 594 41 594 41 598.5 96.5 c 128,-1,6
 603 152 603 152 610 217.5 c 128,-1,7
 617 283 617 283 624 350.5 c 128,-1,8
 631 418 631 418 635.5 478.5 c 128,-1,9
 640 539 640 539 640 582 c 0,10,11
 640 689 640 689 599.5 749 c 128,-1,12
 559 809 559 809 476 809 c 0,13,14
 426 809 426 809 385 787 c 128,-1,15
 344 765 344 765 320.5 727.5 c 128,-1,16
 297 690 297 690 297 641 c 0,17,18
 297 603 297 603 313.5 570.5 c 128,-1,19
 330 538 330 538 364 521 c 1,20,-1
 398 605 l 1,21,22
 507 596 507 596 507 528 c 0,23,24
 507 500 507 500 487.5 472.5 c 128,-1,25
 468 445 468 445 423 445 c 0,26,27
 386 445 386 445 351.5 465 c 128,-1,28
 317 485 317 485 289 519.5 c 128,-1,29
 261 554 261 554 244.5 597 c 128,-1,30
 228 640 228 640 228 686 c 0,31,32
 228 743 228 743 254 790.5 c 128,-1,33
 280 838 280 838 327 866.5 c 128,-1,34
 374 895 374 895 435 895 c 0,35,36
 492 895 492 895 544 869.5 c 128,-1,37
 596 844 596 844 636.5 797 c 128,-1,38
 677 750 677 750 700.5 686.5 c 128,-1,39
 724 623 724 623 724 548 c 0,40,41
 724 509 724 509 719 449 c 128,-1,42
 714 389 714 389 707 319.5 c 128,-1,43
 700 250 700 250 693 179.5 c 128,-1,44
 686 109 686 109 681 47.5 c 128,-1,45
 676 -14 676 -14 676 -56 c 0,46,47
 676 -120 676 -120 690.5 -139 c 128,-1,48
 705 -158 705 -158 730 -158 c 0,49,50
 756 -158 756 -158 776.5 -145.5 c 128,-1,51
 797 -133 797 -133 806 -114 c 1,52,53
 829 -128 829 -128 845 -146 c 128,-1,54
 861 -164 861 -164 860 -186 c 0,55,56
 859 -213 859 -213 834.5 -226.5 c 128,-1,57
 810 -240 810 -240 778 -240 c 0,0,1
107 415 m 0,58,59
 72 415 72 415 51 435.5 c 128,-1,60
 30 456 30 456 30 490 c 0,61,62
 30 527 30 527 51 548.5 c 128,-1,63
 72 570 72 570 107 570 c 0,64,65
 143 570 143 570 164 548.5 c 128,-1,66
 185 527 185 527 185 490 c 0,67,68
 185 456 185 456 164 435.5 c 128,-1,69
 143 415 143 415 107 415 c 0,58,59
338 -4 m 0,70,71
 273 -4 273 -4 219 31 c 128,-1,72
 165 66 165 66 123 126 c 128,-1,73
 81 186 81 186 51 261 c 1,74,-1
 79 299 l 1,75,-1
 84 298 l 1,76,77
 112 238 112 238 143.5 191.5 c 128,-1,78
 175 145 175 145 214 118.5 c 128,-1,79
 253 92 253 92 302 92 c 0,80,81
 341 92 341 92 375 107 c 128,-1,82
 409 122 409 122 430 150 c 128,-1,83
 451 178 451 178 451 215 c 0,84,85
 451 238 451 238 440 255 c 128,-1,86
 429 272 429 272 406 272 c 0,87,88
 385 272 385 272 357 263.5 c 128,-1,89
 329 255 329 255 304 246 c 128,-1,90
 279 237 279 237 266 237 c 0,91,92
 255 237 255 237 249.5 243 c 128,-1,93
 244 249 244 249 240 256 c 2,94,-1
 190 359 l 1,95,-1
 221 369 l 1,96,-1
 231 349 l 2,97,98
 238 337 238 337 252 337 c 0,99,100
 265 337 265 337 285.5 344 c 128,-1,101
 306 351 306 351 329 358 c 128,-1,102
 352 365 352 365 369 365 c 0,103,104
 392 365 392 365 417.5 348 c 128,-1,105
 443 331 443 331 465.5 302 c 128,-1,106
 488 273 488 273 502 237 c 128,-1,107
 516 201 516 201 516 163 c 0,108,109
 516 114 516 114 493.5 76.5 c 128,-1,110
 471 39 471 39 431 17.5 c 128,-1,111
 391 -4 391 -4 338 -4 c 0,70,71
EndSplineSet
EndChar

StartChar: ukhoj
Encoding: 70147 70147 21
Width: 718
GlyphClass: 2
Flags: W
AnchorPoint: "+BBEENQQ3BEsEPARPBD0EPQQ+BDUA--3" 372 866 basechar 0
AnchorPoint: "+BBEENQQ3BEsEPARPBD0EPQQ+BDUA--0" 213 764 basechar 0
LayerCount: 2
Fore
SplineSet
280 239 m 0,0,1
 228 239 228 239 185.5 269.5 c 128,-1,2
 143 300 143 300 118 353 c 128,-1,3
 93 406 93 406 93 471 c 0,4,5
 93 554 93 554 136.5 638 c 128,-1,6
 180 722 180 722 265 788 c 0,7,8
 332 840 332 840 409.5 867.5 c 128,-1,9
 487 895 487 895 575 895 c 0,10,11
 618 895 618 895 659 887.5 c 128,-1,12
 700 880 700 880 738 863 c 1,13,-1
 778 787 l 1,14,-1
 771 781 l 1,15,16
 735 801 735 801 693 811 c 128,-1,17
 651 821 651 821 602 821 c 0,18,19
 532 821 532 821 462 798.5 c 128,-1,20
 392 776 392 776 328 728 c 0,21,22
 243 664 243 664 198 577 c 1,23,24
 216 583 216 583 234.5 587 c 128,-1,25
 253 591 253 591 272 591 c 0,26,27
 321 591 321 591 360.5 566 c 128,-1,28
 400 541 400 541 423.5 501 c 128,-1,29
 447 461 447 461 447 415 c 256,30,31
 447 369 447 369 425 329 c 128,-1,32
 403 289 403 289 365.5 264 c 128,-1,33
 328 239 328 239 280 239 c 0,0,1
361 17 m 0,34,35
 276 17 276 17 194 55 c 128,-1,36
 112 93 112 93 55 159 c 1,37,-1
 48 232 l 1,38,-1
 56 236 l 1,39,40
 105 174 105 174 176.5 141 c 128,-1,41
 248 108 248 108 323 108 c 0,42,43
 382 108 382 108 433.5 128 c 128,-1,44
 485 148 485 148 525 191 c 0,45,46
 559 227 559 227 578 271 c 128,-1,47
 597 315 597 315 597 358 c 0,48,49
 597 407 597 407 569.5 430 c 128,-1,50
 542 453 542 453 500 473 c 1,51,-1
 536 593 l 1,52,-1
 546 595 l 1,53,54
 653 493 653 493 653 340 c 0,55,56
 653 275 653 275 633.5 217 c 128,-1,57
 614 159 614 159 577 114 c 128,-1,58
 540 69 540 69 485.5 43 c 128,-1,59
 431 17 431 17 361 17 c 0,34,35
164 445 m 0,60,61
 164 395 164 395 186.5 357 c 128,-1,62
 209 319 209 319 253 319 c 0,63,64
 283 319 283 319 309 336.5 c 128,-1,65
 335 354 335 354 351 383 c 128,-1,66
 367 412 367 412 367 445 c 0,67,68
 367 480 367 480 347.5 503.5 c 128,-1,69
 328 527 328 527 289 527 c 0,70,71
 260 527 260 527 225.5 515 c 128,-1,72
 191 503 191 503 167 485 c 1,73,74
 164 465 164 465 164 445 c 0,60,61
EndSplineSet
EndChar

StartChar: ekhoj
Encoding: 70148 70148 22
Width: 622
GlyphClass: 2
Flags: W
AnchorPoint: "+BBEENQQ3BEsEPARPBD0EPQQ+BDUA--3" 203 556 basechar 0
AnchorPoint: "+BBEENQQ3BEsEPARPBD0EPQQ+BDUA--0" 355 621 basechar 0
LayerCount: 2
Fore
SplineSet
507 -2 m 0,0,1
 470 -2 470 -2 435 16.5 c 128,-1,2
 400 35 400 35 377 68.5 c 128,-1,3
 354 102 354 102 354 146 c 0,4,5
 354 164 354 164 356.5 189 c 128,-1,6
 359 214 359 214 363 240 c 1,7,8
 334 223 334 223 297 223 c 0,9,10
 254 223 254 223 213.5 245 c 128,-1,11
 173 267 173 267 146.5 304 c 128,-1,12
 120 341 120 341 120 385 c 0,13,14
 120 402 120 402 123 431.5 c 128,-1,15
 126 461 126 461 126 487 c 0,16,17
 126 505 126 505 121.5 524 c 128,-1,18
 117 543 117 543 97 543 c 0,19,20
 78 543 78 543 56 524.5 c 128,-1,21
 34 506 34 506 20 488 c 1,22,23
 -15 518 -15 518 -15 551 c 0,24,25
 -15 575 -15 575 6 588.5 c 128,-1,26
 27 602 27 602 61 602 c 0,27,28
 102 602 102 602 138.5 583.5 c 128,-1,29
 175 565 175 565 198 533 c 128,-1,30
 221 501 221 501 221 462 c 0,31,32
 221 437 221 437 217.5 403 c 128,-1,33
 214 369 214 369 214 340 c 0,34,35
 214 280 214 280 268 280 c 0,36,37
 296 280 296 280 321.5 295.5 c 128,-1,38
 347 311 347 311 366.5 348.5 c 128,-1,39
 386 386 386 386 396 452 c 2,40,-1
 433 684 l 2,41,42
 445 757 445 757 474.5 803.5 c 128,-1,43
 504 850 504 850 546 872.5 c 128,-1,44
 588 895 588 895 634 895 c 0,45,46
 693 895 693 895 744 867 c 128,-1,47
 795 839 795 839 832 790 c 1,48,-1
 830 719 l 1,49,-1
 821 718 l 1,50,51
 790 762 790 762 749 787 c 128,-1,52
 708 812 708 812 661 812 c 0,53,54
 602 812 602 812 564.5 770 c 128,-1,55
 527 728 527 728 514 650 c 2,56,-1
 466 364 l 2,57,58
 453 288 453 288 445.5 226 c 128,-1,59
 438 164 438 164 438 129 c 0,60,61
 438 80 438 80 449.5 66 c 128,-1,62
 461 52 461 52 475 52 c 0,63,64
 501 52 501 52 517.5 75.5 c 128,-1,65
 534 99 534 99 543 126 c 1,66,67
 567 116 567 116 583.5 99 c 128,-1,68
 600 82 600 82 600 62 c 0,69,70
 600 37 600 37 574 17.5 c 128,-1,71
 548 -2 548 -2 507 -2 c 0,0,1
EndSplineSet
EndChar

StartChar: okhoj
Encoding: 70150 70150 24
Width: 482
GlyphClass: 2
Flags: W
AnchorPoint: "+BBEENQQ3BEsEPARPBD0EPQQ+BDUA--3" 336 866 basechar 0
AnchorPoint: "+BBEENQQ3BEsEPARPBD0EPQQ+BDUA--0" 217 804 basechar 0
LayerCount: 2
Fore
SplineSet
257 167 m 0,0,1
 201 167 201 167 152.5 200 c 128,-1,2
 104 233 104 233 74.5 292.5 c 128,-1,3
 45 352 45 352 45 430 c 0,4,5
 45 502 45 502 71 570 c 128,-1,6
 97 638 97 638 143 697 c 128,-1,7
 189 756 189 756 252 800.5 c 128,-1,8
 315 845 315 845 389 870 c 128,-1,9
 463 895 463 895 543 895 c 0,10,11
 581 895 581 895 618 889.5 c 128,-1,12
 655 884 655 884 680 875 c 1,13,-1
 732 800 l 1,14,-1
 725 793 l 1,15,16
 694 806 694 806 657 813 c 128,-1,17
 620 820 620 820 577 820 c 0,18,19
 501 820 501 820 432 796.5 c 128,-1,20
 363 773 363 773 305.5 731.5 c 128,-1,21
 248 690 248 690 206.5 635 c 128,-1,22
 165 580 165 580 144 517 c 1,23,24
 165 528 165 528 193.5 536 c 128,-1,25
 222 544 222 544 251 544 c 0,26,27
 301 544 301 544 342 516 c 128,-1,28
 383 488 383 488 408 443 c 128,-1,29
 433 398 433 398 433 348 c 0,30,31
 433 300 433 300 410 258.5 c 128,-1,32
 387 217 387 217 347.5 192 c 128,-1,33
 308 167 308 167 257 167 c 0,0,1
124 399 m 0,34,35
 124 325 124 325 153 286.5 c 128,-1,36
 182 248 182 248 228 248 c 0,37,38
 260 248 260 248 288 265 c 128,-1,39
 316 282 316 282 334 311.5 c 128,-1,40
 352 341 352 341 352 379 c 0,41,42
 352 421 352 421 330 445 c 128,-1,43
 308 469 308 469 267 469 c 0,44,45
 229 469 229 469 188.5 453 c 128,-1,46
 148 437 148 437 124 416 c 1,47,48
 124 407 124 407 124 399 c 0,34,35
EndSplineSet
EndChar

StartChar: kakhoj
Encoding: 70152 70152 26
Width: 772
GlyphClass: 2
Flags: W
AnchorPoint: "+BBEENQQ3BEsEPARPBD0EPQQ+BDUA--3" 455 536 basechar 0
AnchorPoint: "+BBEENQQ3BEsEPARPBD0EPQQ+BDUA--2" 751 -99 basechar 0
AnchorPoint: "+BBEENQQ3BEsEPARPBD0EPQQ+BDUA--1" 661 30 basechar 0
AnchorPoint: "+BBEENQQ3BEsEPARPBD0EPQQ+BDUA--0" 660 516 basechar 0
LayerCount: 2
Fore
SplineSet
399 15 m 0,0,1
 382 15 382 15 365 27.5 c 128,-1,2
 348 40 348 40 337 59 c 128,-1,3
 326 78 326 78 326 95 c 0,4,5
 326 126 326 126 366 151 c 128,-1,6
 406 176 406 176 460 193 c 1,7,8
 489 214 489 214 518 243 c 128,-1,9
 547 272 547 272 566.5 304.5 c 128,-1,10
 586 337 586 337 586 367 c 0,11,12
 586 394 586 394 571 413.5 c 128,-1,13
 556 433 556 433 528 433 c 0,14,15
 495 433 495 433 443 406 c 128,-1,16
 391 379 391 379 342 333 c 1,17,18
 328 296 328 296 307.5 262 c 128,-1,19
 287 228 287 228 263.5 206 c 128,-1,20
 240 184 240 184 214 184 c 0,21,22
 195 184 195 184 176.5 196 c 128,-1,23
 158 208 158 208 146.5 225 c 128,-1,24
 135 242 135 242 135 258 c 0,25,26
 135 281 135 281 159.5 309.5 c 128,-1,27
 184 338 184 338 220 366 c 128,-1,28
 256 394 256 394 291 418 c 1,29,30
 280 437 280 437 266.5 445 c 128,-1,31
 253 453 253 453 234 453 c 2,32,-1
 60 453 l 2,33,34
 50 453 50 453 44.5 455.5 c 128,-1,35
 39 458 39 458 36 468 c 2,36,-1
 5 573 l 1,37,-1
 39 573 l 1,38,-1
 47 549 l 2,39,40
 50 541 50 541 54.5 538.5 c 128,-1,41
 59 536 59 536 65 536 c 2,42,-1
 222 536 l 2,43,44
 251 536 251 536 276 508.5 c 128,-1,45
 301 481 301 481 324 439 c 1,46,47
 372 470 372 470 413 489.5 c 128,-1,48
 454 509 454 509 490 509 c 0,49,50
 524 509 524 509 552.5 492.5 c 128,-1,51
 581 476 581 476 602 450 c 128,-1,52
 623 424 623 424 634.5 393.5 c 128,-1,53
 646 363 646 363 646 335 c 0,54,55
 646 300 646 300 629 258.5 c 128,-1,56
 612 217 612 217 585 177 c 1,57,58
 634 164 634 164 668.5 131 c 128,-1,59
 703 98 703 98 703 58 c 0,60,61
 703 31 703 31 691.5 1.5 c 128,-1,62
 680 -28 680 -28 680 -47 c 0,63,64
 680 -72 680 -72 706 -72 c 0,65,66
 725 -72 725 -72 749.5 -62 c 128,-1,67
 774 -52 774 -52 793 -41 c 1,68,69
 812 -69 812 -69 812 -95 c 0,70,71
 812 -119 812 -119 796 -132 c 128,-1,72
 780 -145 780 -145 755 -145 c 256,73,74
 730 -145 730 -145 703.5 -132.5 c 128,-1,75
 677 -120 677 -120 654 -98.5 c 128,-1,76
 631 -77 631 -77 617 -51 c 128,-1,77
 603 -25 603 -25 603 2 c 0,78,79
 603 12 603 12 605 29 c 128,-1,80
 607 46 607 46 608.5 63 c 128,-1,81
 610 80 610 80 610 90 c 0,82,83
 610 112 610 112 599.5 120.5 c 128,-1,84
 589 129 589 129 573 129 c 0,85,86
 560 129 560 129 546 124 c 1,87,88
 507 77 507 77 466.5 46 c 128,-1,89
 426 15 426 15 399 15 c 0,0,1
EndSplineSet
EndChar

StartChar: ka_iMatrakhoj
Encoding: 1114114 -1 27
Width: 956
GlyphClass: 2
Flags: W
AnchorPoint: "+BBEENQQ3BEsEPARPBD0EPQQ+BDUA--3" 455 536 basechar 0
AnchorPoint: "+BBEENQQ3BEsEPARPBD0EPQQ+BDUA--2" 691 -99 basechar 0
AnchorPoint: "+BBEENQQ3BEsEPARPBD0EPQQ+BDUA--1" 717 106 basechar 0
AnchorPoint: "+BBEENQQ3BEsEPARPBD0EPQQ+BDUA--0" 1140 892 basechar 0
LayerCount: 2
Fore
SplineSet
399 15 m 0,0,1
 382 15 382 15 365 27.5 c 128,-1,2
 348 40 348 40 337 59 c 128,-1,3
 326 78 326 78 326 95 c 0,4,5
 326 126 326 126 366 151 c 128,-1,6
 406 176 406 176 460 193 c 1,7,8
 489 214 489 214 518 243 c 128,-1,9
 547 272 547 272 566.5 304.5 c 128,-1,10
 586 337 586 337 586 367 c 0,11,12
 586 395 586 395 571 414 c 128,-1,13
 556 433 556 433 528 433 c 0,14,15
 495 433 495 433 443 406 c 128,-1,16
 391 379 391 379 342 333 c 1,17,18
 328 296 328 296 307.5 262 c 128,-1,19
 287 228 287 228 263.5 206 c 128,-1,20
 240 184 240 184 214 184 c 0,21,22
 195 184 195 184 176.5 196 c 128,-1,23
 158 208 158 208 146.5 225 c 128,-1,24
 135 242 135 242 135 258 c 0,25,26
 135 281 135 281 159.5 309.5 c 128,-1,27
 184 338 184 338 220 366 c 128,-1,28
 256 394 256 394 291 418 c 1,29,30
 280 437 280 437 266.5 445 c 128,-1,31
 253 453 253 453 234 453 c 2,32,-1
 60 453 l 2,33,34
 50 453 50 453 44.5 455.5 c 128,-1,35
 39 458 39 458 36 468 c 2,36,-1
 5 573 l 1,37,-1
 39 573 l 1,38,-1
 47 549 l 2,39,40
 50 541 50 541 54.5 538.5 c 128,-1,41
 59 536 59 536 65 536 c 2,42,-1
 222 536 l 2,43,44
 251 536 251 536 276 508.5 c 128,-1,45
 301 481 301 481 324 439 c 1,46,47
 372 470 372 470 413 489.5 c 128,-1,48
 454 509 454 509 490 509 c 0,49,50
 524 509 524 509 552.5 492.5 c 128,-1,51
 581 476 581 476 602 450 c 128,-1,52
 623 424 623 424 634.5 393.5 c 128,-1,53
 646 363 646 363 646 335 c 0,54,55
 646 301 646 301 630 261 c 128,-1,56
 614 221 614 221 588 182 c 1,57,58
 629 181 629 181 657.5 166 c 128,-1,59
 686 151 686 151 704 128 c 1,60,-1
 775 462 l 2,61,62
 793 548 793 548 807.5 613 c 128,-1,63
 822 678 822 678 841 727 c 128,-1,64
 860 776 860 776 889 814 c 256,65,66
 918 852 918 852 959 873.5 c 128,-1,67
 1000 895 1000 895 1055 895 c 0,68,69
 1111 895 1111 895 1158.5 871 c 128,-1,70
 1206 847 1206 847 1241 809 c 1,71,-1
 1246 738 l 1,72,-1
 1237 736 l 1,73,74
 1206 771 1206 771 1165.5 792.5 c 128,-1,75
 1125 814 1125 814 1077 814 c 0,76,77
 1036 814 1036 814 1007 797.5 c 128,-1,78
 978 781 978 781 955 749 c 0,79,80
 918 696 918 696 894.5 602 c 128,-1,81
 871 508 871 508 841 378 c 0,82,83
 820 285 820 285 798.5 188.5 c 128,-1,84
 777 92 777 92 758.5 6 c 128,-1,85
 740 -80 740 -80 727 -144 c 1,86,-1
 713 -146 l 1,87,-1
 651 -99 l 1,88,89
 660 -52 660 -52 666 -17 c 128,-1,90
 672 18 672 18 672 43 c 0,91,92
 672 89 672 89 650 109.5 c 128,-1,93
 628 130 628 130 587 130 c 0,94,95
 562 130 562 130 546 124 c 1,96,97
 507 77 507 77 466.5 46 c 128,-1,98
 426 15 426 15 399 15 c 0,0,1
EndSplineSet
Ligature2: "'cjct' Conjunct Forms in Khojki lookup 12 subtable" kakhoj iMatrakhoj
EndChar

StartChar: ka_iiMatrakhoj
Encoding: 1114115 -1 28
Width: 1126
GlyphClass: 2
Flags: W
AnchorPoint: "+BBEENQQ3BEsEPARPBD0EPQQ+BDUA--3" 455 536 basechar 0
AnchorPoint: "+BBEENQQ3BEsEPARPBD0EPQQ+BDUA--2" 838 -99 basechar 0
AnchorPoint: "+BBEENQQ3BEsEPARPBD0EPQQ+BDUA--1" 717 116 basechar 0
AnchorPoint: "+BBEENQQ3BEsEPARPBD0EPQQ+BDUA--0" 1029 539 basechar 0
LayerCount: 2
Fore
SplineSet
399 15 m 0,0,1
 382 15 382 15 365 27.5 c 128,-1,2
 348 40 348 40 337 59 c 128,-1,3
 326 78 326 78 326 95 c 0,4,5
 326 126 326 126 366 151 c 128,-1,6
 406 176 406 176 460 193 c 1,7,8
 489 214 489 214 518 243 c 128,-1,9
 547 272 547 272 566.5 304.5 c 128,-1,10
 586 337 586 337 586 367 c 0,11,12
 586 396 586 396 571 414.5 c 128,-1,13
 556 433 556 433 528 433 c 0,14,15
 495 433 495 433 443 406 c 128,-1,16
 391 379 391 379 342 333 c 1,17,18
 328 296 328 296 307.5 262 c 128,-1,19
 287 228 287 228 263.5 206 c 128,-1,20
 240 184 240 184 214 184 c 0,21,22
 195 184 195 184 176.5 196 c 128,-1,23
 158 208 158 208 146.5 225 c 128,-1,24
 135 242 135 242 135 258 c 0,25,26
 135 281 135 281 159.5 309.5 c 128,-1,27
 184 338 184 338 220 366 c 128,-1,28
 256 394 256 394 291 418 c 1,29,30
 280 437 280 437 266.5 445 c 128,-1,31
 253 453 253 453 234 453 c 2,32,-1
 60 453 l 2,33,34
 50 453 50 453 44.5 455.5 c 128,-1,35
 39 458 39 458 36 468 c 2,36,-1
 5 573 l 1,37,-1
 39 573 l 1,38,-1
 47 549 l 2,39,40
 50 541 50 541 54.5 538.5 c 128,-1,41
 59 536 59 536 65 536 c 2,42,-1
 222 536 l 2,43,44
 251 536 251 536 276 508.5 c 128,-1,45
 301 481 301 481 324 439 c 1,46,47
 372 470 372 470 413 489.5 c 128,-1,48
 454 509 454 509 490 509 c 0,49,50
 524 509 524 509 552.5 492.5 c 128,-1,51
 581 476 581 476 602 450 c 128,-1,52
 623 424 623 424 634.5 393.5 c 128,-1,53
 646 363 646 363 646 335 c 0,54,55
 646 303 646 303 632 266 c 128,-1,56
 618 229 618 229 595 193 c 1,57,58
 631 190 631 190 657.5 176.5 c 128,-1,59
 684 163 684 163 701 143 c 1,60,61
 727 232 727 232 752 306 c 128,-1,62
 777 380 777 380 801 432 c 0,63,64
 828 490 828 490 856.5 517 c 128,-1,65
 885 544 885 544 915 544 c 0,66,67
 944 544 944 544 969 521.5 c 128,-1,68
 994 499 994 499 1012.5 461.5 c 128,-1,69
 1031 424 1031 424 1041.5 378 c 128,-1,70
 1052 332 1052 332 1052 285 c 0,71,72
 1052 237 1052 237 1042.5 175 c 128,-1,73
 1033 113 1033 113 1023.5 50 c 128,-1,74
 1014 -13 1014 -13 1014 -66 c 0,75,76
 1014 -115 1014 -115 1026 -136.5 c 128,-1,77
 1038 -158 1038 -158 1066 -158 c 0,78,79
 1090 -158 1090 -158 1112 -145.5 c 128,-1,80
 1134 -133 1134 -133 1142 -114 c 1,81,82
 1165 -128 1165 -128 1181 -146 c 128,-1,83
 1197 -164 1197 -164 1196 -186 c 0,84,85
 1195 -214 1195 -214 1170 -227 c 128,-1,86
 1145 -240 1145 -240 1115 -240 c 0,87,88
 1065 -240 1065 -240 1023 -207.5 c 128,-1,89
 981 -175 981 -175 956.5 -121.5 c 128,-1,90
 932 -68 932 -68 932 -4 c 0,91,92
 932 30 932 30 938.5 77.5 c 128,-1,93
 945 125 945 125 953 177.5 c 128,-1,94
 961 230 961 230 967.5 279 c 128,-1,95
 974 328 974 328 974 365 c 0,96,97
 974 388 974 388 970.5 410.5 c 128,-1,98
 967 433 967 433 960 448 c 128,-1,99
 953 463 953 463 940 463 c 0,100,101
 915 463 915 463 886 409 c 128,-1,102
 857 355 857 355 825 263 c 0,103,104
 802 198 802 198 782.5 126 c 128,-1,105
 763 54 763 54 748 -11 c 128,-1,106
 733 -76 733 -76 724 -122 c 1,107,-1
 707 -126 l 1,108,-1
 650 -58 l 1,109,110
 673 25 673 25 673 67 c 0,111,112
 673 105 673 105 650 123 c 128,-1,113
 627 141 627 141 586 141 c 0,114,115
 571 141 571 141 557 138 c 1,116,117
 530 103 530 103 501 75.5 c 128,-1,118
 472 48 472 48 445 31.5 c 128,-1,119
 418 15 418 15 399 15 c 0,0,1
EndSplineSet
Ligature2: "'cjct' Conjunct Forms in Khojki lookup 13 subtable" kakhoj iiMatrakhoj
EndChar

StartChar: ka_uMatrakhoj
Encoding: 1114116 -1 29
Width: 806
GlyphClass: 2
Flags: W
AnchorPoint: "+BBEENQQ3BEsEPARPBD0EPQQ+BDUA--3" 438 536 basechar 0
AnchorPoint: "+BBEENQQ3BEsEPARPBD0EPQQ+BDUA--2" 504 -179 basechar 0
AnchorPoint: "+BBEENQQ3BEsEPARPBD0EPQQ+BDUA--0" 643 516 basechar 0
LayerCount: 2
Fore
SplineSet
429 15 m 0,0,1
 412 15 412 15 395 27.5 c 128,-1,2
 378 40 378 40 367 59 c 128,-1,3
 356 78 356 78 356 95 c 0,4,5
 356 126 356 126 396 151 c 128,-1,6
 436 176 436 176 490 193 c 1,7,8
 519 214 519 214 548 243 c 128,-1,9
 577 272 577 272 596.5 304.5 c 128,-1,10
 616 337 616 337 616 367 c 0,11,12
 616 394 616 394 600.5 413.5 c 128,-1,13
 585 433 585 433 558 433 c 0,14,15
 525 433 525 433 473 406 c 128,-1,16
 421 379 421 379 372 333 c 1,17,18
 358 296 358 296 337.5 262 c 128,-1,19
 317 228 317 228 293.5 206 c 128,-1,20
 270 184 270 184 244 184 c 0,21,22
 225 184 225 184 206.5 196 c 128,-1,23
 188 208 188 208 176.5 225 c 128,-1,24
 165 242 165 242 165 258 c 0,25,26
 165 281 165 281 189.5 309.5 c 128,-1,27
 214 338 214 338 250 366 c 128,-1,28
 286 394 286 394 321 418 c 1,29,30
 310 437 310 437 296.5 445 c 128,-1,31
 283 453 283 453 264 453 c 2,32,-1
 90 453 l 2,33,34
 80 453 80 453 74.5 455.5 c 128,-1,35
 69 458 69 458 66 468 c 2,36,-1
 35 573 l 1,37,-1
 69 573 l 1,38,-1
 77 549 l 2,39,40
 80 541 80 541 84.5 538.5 c 128,-1,41
 89 536 89 536 95 536 c 2,42,-1
 252 536 l 2,43,44
 281 536 281 536 306 508.5 c 128,-1,45
 331 481 331 481 354 439 c 1,46,47
 402 470 402 470 443 489.5 c 128,-1,48
 484 509 484 509 520 509 c 0,49,50
 554 509 554 509 582.5 492.5 c 128,-1,51
 611 476 611 476 632 450 c 128,-1,52
 653 424 653 424 664.5 393.5 c 128,-1,53
 676 363 676 363 676 335 c 0,54,55
 676 304 676 304 662.5 267.5 c 128,-1,56
 649 231 649 231 626 195 c 1,57,58
 664 185 664 185 698.5 162 c 128,-1,59
 733 139 733 139 754.5 103 c 128,-1,60
 776 67 776 67 776 17 c 0,61,62
 776 -43 776 -43 742 -90 c 128,-1,63
 708 -137 708 -137 647.5 -164 c 128,-1,64
 587 -191 587 -191 508 -191 c 0,65,66
 413 -191 413 -191 325.5 -151.5 c 128,-1,67
 238 -112 238 -112 166.5 -43.5 c 128,-1,68
 95 25 95 25 46 110 c 1,69,-1
 58 165 l 1,70,-1
 67 168 l 1,71,72
 114 90 114 90 177 27.5 c 128,-1,73
 240 -35 240 -35 317 -71.5 c 128,-1,74
 394 -108 394 -108 481 -108 c 0,75,76
 549 -108 549 -108 599 -86 c 128,-1,77
 649 -64 649 -64 676 -28 c 128,-1,78
 703 8 703 8 703 50 c 0,79,80
 703 95 703 95 676 117.5 c 128,-1,81
 649 140 649 140 611 140 c 0,82,83
 599 140 599 140 586 137 c 1,84,85
 560 103 560 103 530.5 75 c 128,-1,86
 501 47 501 47 474.5 31 c 128,-1,87
 448 15 448 15 429 15 c 0,0,1
EndSplineSet
Ligature2: "'cjct' Conjunct Forms in Khojki lookup 14 subtable" kakhoj uMatrakhoj
EndChar

StartChar: k_ra_uMatrakhoj
Encoding: 1114117 -1 30
Width: 857
GlyphClass: 3
Flags: W
LayerCount: 2
Fore
SplineSet
429 15 m 0,0,1
 412 15 412 15 395 27.5 c 128,-1,2
 378 40 378 40 367 59 c 128,-1,3
 356 78 356 78 356 95 c 0,4,5
 356 126 356 126 396 151 c 128,-1,6
 436 176 436 176 490 193 c 1,7,8
 519 214 519 214 548 243 c 128,-1,9
 577 272 577 272 596.5 304.5 c 128,-1,10
 616 337 616 337 616 367 c 0,11,12
 616 394 616 394 601 413.5 c 128,-1,13
 586 433 586 433 558 433 c 0,14,15
 525 433 525 433 473 406 c 128,-1,16
 421 379 421 379 372 333 c 1,17,18
 358 296 358 296 337.5 262 c 128,-1,19
 317 228 317 228 293.5 206 c 128,-1,20
 270 184 270 184 244 184 c 0,21,22
 225 184 225 184 206.5 196 c 128,-1,23
 188 208 188 208 176.5 225 c 128,-1,24
 165 242 165 242 165 258 c 0,25,26
 165 281 165 281 189.5 309.5 c 128,-1,27
 214 338 214 338 250 366 c 128,-1,28
 286 394 286 394 321 418 c 1,29,30
 310 437 310 437 296.5 445 c 128,-1,31
 283 453 283 453 264 453 c 2,32,-1
 90 453 l 2,33,34
 80 453 80 453 74.5 455.5 c 128,-1,35
 69 458 69 458 66 468 c 2,36,-1
 35 573 l 1,37,-1
 69 573 l 1,38,-1
 77 549 l 2,39,40
 80 541 80 541 84.5 538.5 c 128,-1,41
 89 536 89 536 95 536 c 2,42,-1
 252 536 l 2,43,44
 281 536 281 536 306 508.5 c 128,-1,45
 331 481 331 481 354 439 c 1,46,47
 402 470 402 470 443 489.5 c 128,-1,48
 484 509 484 509 520 509 c 0,49,50
 554 509 554 509 582.5 492.5 c 128,-1,51
 611 476 611 476 632 450 c 128,-1,52
 653 424 653 424 664.5 393.5 c 128,-1,53
 676 363 676 363 676 335 c 0,54,55
 676 305 676 305 663 269 c 128,-1,56
 650 233 650 233 628 198 c 1,57,58
 684 189 684 189 729 161.5 c 128,-1,59
 774 134 774 134 800.5 90 c 128,-1,60
 827 46 827 46 827 -11 c 0,61,62
 827 -78 827 -78 790.5 -126.5 c 128,-1,63
 754 -175 754 -175 693 -201.5 c 128,-1,64
 632 -228 632 -228 556 -228 c 0,65,66
 481 -228 481 -228 409 -203.5 c 128,-1,67
 337 -179 337 -179 271 -135 c 128,-1,68
 205 -91 205 -91 148.5 -33.5 c 128,-1,69
 92 24 92 24 49 90 c 1,70,-1
 59 145 l 1,71,-1
 68 148 l 1,72,73
 124 68 124 68 197 1.5 c 128,-1,74
 270 -65 270 -65 355 -104 c 128,-1,75
 440 -143 440 -143 532 -143 c 0,76,77
 601 -143 601 -143 651.5 -121 c 128,-1,78
 702 -99 702 -99 729.5 -61 c 128,-1,79
 757 -23 757 -23 757 23 c 0,80,81
 757 40 757 40 753 54 c 1,82,-1
 592 -73 l 1,83,-1
 531 -20 l 1,84,-1
 531 -13 l 1,85,-1
 708 117 l 1,86,87
 674 138 674 138 626 138 c 0,88,89
 606 138 606 138 584 134 c 1,90,91
 544 84 544 84 500.5 49.5 c 128,-1,92
 457 15 457 15 429 15 c 0,0,1
EndSplineSet
Ligature2: "'cjct' Conjunct Forms in Khojki lookup 9 subtable" kakhoj rakar.alt uMatrakhoj
EndChar

StartChar: k_ssakhoj
Encoding: 1114118 -1 31
Width: 701
GlyphClass: 3
Flags: W
LayerCount: 2
Fore
SplineSet
374 -240 m 0,0,1
 330 -240 330 -240 295.5 -216 c 128,-1,2
 261 -192 261 -192 241.5 -148.5 c 128,-1,3
 222 -105 222 -105 222 -49 c 0,4,5
 222 -32 222 -32 224 -16 c 1,6,7
 173 -7 173 -7 132.5 23.5 c 128,-1,8
 92 54 92 54 68.5 95 c 128,-1,9
 45 136 45 136 45 177 c 0,10,11
 45 221 45 221 75.5 253.5 c 128,-1,12
 106 286 106 286 165 327 c 1,13,14
 128 362 128 362 104.5 404 c 128,-1,15
 81 446 81 446 81 489 c 0,16,17
 81 541 81 541 115 572.5 c 128,-1,18
 149 604 149 604 202 604 c 0,19,20
 248 604 248 604 285.5 581.5 c 128,-1,21
 323 559 323 559 345.5 523 c 128,-1,22
 368 487 368 487 368 445 c 0,23,24
 368 401 368 401 343 368.5 c 128,-1,25
 318 336 318 336 281 307 c 1,26,27
 306 301 306 301 332 301 c 0,28,29
 367 301 367 301 405.5 312.5 c 128,-1,30
 444 324 444 324 477.5 343 c 128,-1,31
 511 362 511 362 533 385 c 1,32,33
 531 440 531 440 522.5 494 c 128,-1,34
 514 548 514 548 502 600 c 1,35,-1
 578 600 l 1,36,37
 596 536 596 536 606 454.5 c 128,-1,38
 616 373 616 373 616 293 c 0,39,40
 616 217 616 217 607.5 140 c 128,-1,41
 599 63 599 63 582 0 c 1,42,-1
 558 -9 l 1,43,44
 551 -2 551 -2 538 17.5 c 128,-1,45
 525 37 525 37 514.5 57 c 128,-1,46
 504 77 504 77 502 83 c 0,47,48
 527 179 527 179 533 285 c 1,49,50
 497 264 497 264 453 250.5 c 128,-1,51
 409 237 409 237 373 237 c 0,52,53
 339 237 339 237 304 247.5 c 128,-1,54
 269 258 269 258 236 275 c 0,55,56
 232 273 232 273 227 269 c 0,57,58
 184 240 184 240 151.5 212 c 128,-1,59
 119 184 119 184 119 141 c 0,60,61
 119 101 119 101 148.5 83 c 128,-1,62
 178 65 178 65 215 65 c 0,63,64
 228 65 228 65 243 67 c 1,65,66
 256 99 256 99 272.5 123 c 128,-1,67
 289 147 289 147 313 147 c 0,68,69
 333 147 333 147 350.5 132 c 128,-1,70
 368 117 368 117 379.5 96.5 c 128,-1,71
 391 76 391 76 391 60 c 0,72,73
 391 34 391 34 360.5 11.5 c 128,-1,74
 330 -11 330 -11 284 -17 c 1,75,76
 273 -46 273 -46 273 -76 c 0,77,78
 273 -111 273 -111 290 -133.5 c 128,-1,79
 307 -156 307 -156 349 -156 c 0,80,81
 375 -156 375 -156 402 -148 c 128,-1,82
 429 -140 429 -140 451 -127 c 1,83,84
 458 -140 458 -140 463 -159 c 128,-1,85
 468 -178 468 -178 468 -189 c 0,86,87
 468 -205 468 -205 453.5 -216.5 c 128,-1,88
 439 -228 439 -228 417 -234 c 128,-1,89
 395 -240 395 -240 374 -240 c 0,0,1
161 451 m 0,90,91
 161 422 161 422 171.5 397 c 128,-1,92
 182 372 182 372 201 352 c 1,93,94
 243 382 243 382 271 411.5 c 128,-1,95
 299 441 299 441 299 477 c 0,96,97
 299 505 299 505 281.5 523.5 c 128,-1,98
 264 542 264 542 235 542 c 0,99,100
 202 542 202 542 181.5 517 c 128,-1,101
 161 492 161 492 161 451 c 0,90,91
EndSplineSet
Ligature2: "'cjct' Conjunct Forms in Khojki lookup 9 subtable" kakhoj halantkhoj sakhoj Nuktakhoj
EndChar

StartChar: k_ssa_iMatrakhoj
Encoding: 1114119 -1 32
Width: 853
GlyphClass: 3
Flags: W
LayerCount: 2
Fore
SplineSet
374 -240 m 0,0,1
 330 -240 330 -240 295.5 -216 c 128,-1,2
 261 -192 261 -192 241.5 -148.5 c 128,-1,3
 222 -105 222 -105 222 -49 c 0,4,5
 222 -32 222 -32 224 -16 c 1,6,7
 173 -7 173 -7 132.5 23.5 c 128,-1,8
 92 54 92 54 68.5 95.5 c 128,-1,9
 45 137 45 137 45 178 c 0,10,11
 45 222 45 222 74.5 253 c 128,-1,12
 104 284 104 284 165 327 c 1,13,14
 128 362 128 362 104.5 404 c 128,-1,15
 81 446 81 446 81 489 c 0,16,17
 81 541 81 541 115 572.5 c 128,-1,18
 149 604 149 604 202 604 c 0,19,20
 248 604 248 604 285.5 581.5 c 128,-1,21
 323 559 323 559 345.5 523 c 128,-1,22
 368 487 368 487 368 445 c 0,23,24
 368 401 368 401 343 368.5 c 128,-1,25
 318 336 318 336 281 307 c 1,26,27
 306 301 306 301 332 301 c 0,28,29
 374 301 374 301 414.5 315 c 128,-1,30
 455 329 455 329 487 348.5 c 128,-1,31
 519 368 519 368 535 386 c 1,32,33
 531 441 531 441 523 494 c 128,-1,34
 515 547 515 547 502 600 c 1,35,-1
 577 600 l 1,36,37
 593 534 593 534 601.5 455 c 128,-1,38
 610 376 610 376 610 303 c 0,39,40
 610 291 610 291 610 280 c 1,41,42
 632 357 632 357 655.5 433.5 c 128,-1,43
 679 510 679 510 703.5 579 c 128,-1,44
 728 648 728 648 752.5 703 c 128,-1,45
 777 758 777 758 800 792 c 0,46,47
 834 842 834 842 880 868.5 c 128,-1,48
 926 895 926 895 984 895 c 0,49,50
 1040 895 1040 895 1087 871 c 128,-1,51
 1134 847 1134 847 1168 809 c 1,52,-1
 1173 738 l 1,53,-1
 1164 736 l 1,54,55
 1133 771 1133 771 1093.5 792.5 c 128,-1,56
 1054 814 1054 814 1008 814 c 0,57,58
 919 814 919 814 858 717 c 0,59,60
 828 669 828 669 796.5 592.5 c 128,-1,61
 765 516 765 516 732.5 420.5 c 128,-1,62
 700 325 700 325 667.5 217.5 c 128,-1,63
 635 110 635 110 603 -1 c 1,64,-1
 590 -4 l 1,65,-1
 528 48 l 1,66,67
 533 109 533 109 535.5 167 c 128,-1,68
 538 225 538 225 538 280 c 0,69,70
 538 284 538 284 538 288 c 1,71,72
 507 269 507 269 463 253 c 128,-1,73
 419 237 419 237 373 237 c 0,74,75
 339 237 339 237 304 247.5 c 128,-1,76
 269 258 269 258 236 275 c 0,77,78
 232 273 232 273 227 269 c 0,79,80
 184 240 184 240 151.5 212 c 128,-1,81
 119 184 119 184 119 141 c 0,82,83
 119 101 119 101 148.5 83 c 128,-1,84
 178 65 178 65 215 65 c 0,85,86
 229 65 229 65 243 67 c 1,87,88
 256 98 256 98 272.5 122.5 c 128,-1,89
 289 147 289 147 313 147 c 0,90,91
 333 147 333 147 350.5 132 c 128,-1,92
 368 117 368 117 379.5 96.5 c 128,-1,93
 391 76 391 76 391 60 c 0,94,95
 391 34 391 34 360.5 11.5 c 128,-1,96
 330 -11 330 -11 284 -17 c 1,97,98
 273 -46 273 -46 273 -76 c 0,99,100
 273 -111 273 -111 290 -133.5 c 128,-1,101
 307 -156 307 -156 349 -156 c 0,102,103
 375 -156 375 -156 402 -148 c 128,-1,104
 429 -140 429 -140 451 -127 c 1,105,106
 458 -140 458 -140 463 -159 c 128,-1,107
 468 -178 468 -178 468 -189 c 0,108,109
 468 -205 468 -205 453.5 -216.5 c 128,-1,110
 439 -228 439 -228 417 -234 c 128,-1,111
 395 -240 395 -240 374 -240 c 0,0,1
161 451 m 0,112,113
 161 422 161 422 171.5 397 c 128,-1,114
 182 372 182 372 201 352 c 1,115,116
 243 382 243 382 271 411.5 c 128,-1,117
 299 441 299 441 299 477 c 0,118,119
 299 505 299 505 281.5 523.5 c 128,-1,120
 264 542 264 542 235 542 c 0,121,122
 202 542 202 542 181.5 517 c 128,-1,123
 161 492 161 492 161 451 c 0,112,113
EndSplineSet
Ligature2: "'cjct' Conjunct Forms in Khojki lookup 12 subtable" k_ssakhoj iMatrakhoj
EndChar

StartChar: k_ssa_iiMatrakhoj
Encoding: 1114120 -1 33
Width: 1054
GlyphClass: 3
Flags: W
LayerCount: 2
Fore
SplineSet
374 -240 m 0,0,1
 330 -240 330 -240 295.5 -216 c 128,-1,2
 261 -192 261 -192 241.5 -148.5 c 128,-1,3
 222 -105 222 -105 222 -49 c 0,4,5
 222 -32 222 -32 224 -16 c 1,6,7
 173 -7 173 -7 132.5 23.5 c 128,-1,8
 92 54 92 54 68.5 95.5 c 128,-1,9
 45 137 45 137 45 178 c 0,10,11
 45 222 45 222 74.5 253 c 128,-1,12
 104 284 104 284 165 327 c 1,13,14
 128 362 128 362 104.5 404 c 128,-1,15
 81 446 81 446 81 489 c 0,16,17
 81 541 81 541 115 572.5 c 128,-1,18
 149 604 149 604 202 604 c 0,19,20
 248 604 248 604 285.5 581.5 c 128,-1,21
 323 559 323 559 345.5 523 c 128,-1,22
 368 487 368 487 368 445 c 0,23,24
 368 401 368 401 343 368.5 c 128,-1,25
 318 336 318 336 281 307 c 1,26,27
 306 301 306 301 332 301 c 0,28,29
 374 301 374 301 414.5 315 c 128,-1,30
 455 329 455 329 487 348.5 c 128,-1,31
 519 368 519 368 535 386 c 1,32,33
 531 441 531 441 523 494 c 128,-1,34
 515 547 515 547 502 600 c 1,35,-1
 577 600 l 1,36,37
 593 534 593 534 601.5 454.5 c 128,-1,38
 610 375 610 375 610 298 c 0,39,40
 610 282 610 282 609 264 c 1,41,42
 635 344 635 344 662 419.5 c 128,-1,43
 689 495 689 495 713 549 c 0,44,45
 740 608 740 608 767.5 634.5 c 128,-1,46
 795 661 795 661 823 661 c 0,47,48
 855 661 855 661 880.5 637.5 c 128,-1,49
 906 614 906 614 924.5 574.5 c 128,-1,50
 943 535 943 535 952.5 488.5 c 128,-1,51
 962 442 962 442 962 395 c 0,52,53
 962 316 962 316 951.5 242 c 128,-1,54
 941 168 941 168 930 95 c 128,-1,55
 919 22 919 22 919 -54 c 0,56,57
 919 -109 919 -109 934.5 -133.5 c 128,-1,58
 950 -158 950 -158 983 -158 c 0,59,60
 1011 -158 1011 -158 1033 -145 c 128,-1,61
 1055 -132 1055 -132 1062 -114 c 1,62,63
 1086 -125 1086 -125 1106 -143.5 c 128,-1,64
 1126 -162 1126 -162 1124 -187 c 0,65,66
 1123 -212 1123 -212 1098 -226 c 128,-1,67
 1073 -240 1073 -240 1043 -240 c 0,68,69
 992 -240 992 -240 953 -217.5 c 128,-1,70
 914 -195 914 -195 888.5 -157 c 128,-1,71
 863 -119 863 -119 850 -71 c 128,-1,72
 837 -23 837 -23 837 27 c 0,73,74
 837 71 837 71 844 129 c 128,-1,75
 851 187 851 187 860.5 250 c 128,-1,76
 870 313 870 313 877 373 c 128,-1,77
 884 433 884 433 884 482 c 0,78,79
 884 504 884 504 881.5 526 c 128,-1,80
 879 548 879 548 872 563 c 128,-1,81
 865 578 865 578 852 578 c 0,82,83
 834 578 834 578 813.5 550 c 128,-1,84
 793 522 793 522 771 472 c 0,85,86
 753 432 753 432 730.5 371.5 c 128,-1,87
 708 311 708 311 684 243.5 c 128,-1,88
 660 176 660 176 638.5 111.5 c 128,-1,89
 617 47 617 47 603 -1 c 1,90,-1
 590 -4 l 1,91,-1
 528 48 l 1,92,93
 533 109 533 109 535.5 167 c 128,-1,94
 538 225 538 225 538 280 c 0,95,96
 538 284 538 284 538 288 c 1,97,98
 507 269 507 269 463 253 c 128,-1,99
 419 237 419 237 373 237 c 0,100,101
 339 237 339 237 304 247.5 c 128,-1,102
 269 258 269 258 236 275 c 0,103,104
 232 273 232 273 227 269 c 0,105,106
 184 240 184 240 151.5 212 c 128,-1,107
 119 184 119 184 119 141 c 0,108,109
 119 101 119 101 148.5 83 c 128,-1,110
 178 65 178 65 215 65 c 0,111,112
 229 65 229 65 243 67 c 1,113,114
 256 98 256 98 272.5 122.5 c 128,-1,115
 289 147 289 147 313 147 c 0,116,117
 333 147 333 147 350.5 132 c 128,-1,118
 368 117 368 117 379.5 96.5 c 128,-1,119
 391 76 391 76 391 60 c 0,120,121
 391 34 391 34 360.5 11.5 c 128,-1,122
 330 -11 330 -11 284 -17 c 1,123,124
 273 -46 273 -46 273 -76 c 0,125,126
 273 -111 273 -111 290 -133.5 c 128,-1,127
 307 -156 307 -156 349 -156 c 0,128,129
 375 -156 375 -156 402 -148 c 128,-1,130
 429 -140 429 -140 451 -127 c 1,131,132
 458 -140 458 -140 463 -159 c 128,-1,133
 468 -178 468 -178 468 -189 c 0,134,135
 468 -205 468 -205 453.5 -216.5 c 128,-1,136
 439 -228 439 -228 417 -234 c 128,-1,137
 395 -240 395 -240 374 -240 c 0,0,1
161 451 m 0,138,139
 161 422 161 422 171.5 397 c 128,-1,140
 182 372 182 372 201 352 c 1,141,142
 243 382 243 382 271 411.5 c 128,-1,143
 299 441 299 441 299 477 c 0,144,145
 299 505 299 505 281.5 523.5 c 128,-1,146
 264 542 264 542 235 542 c 0,147,148
 202 542 202 542 181.5 517 c 128,-1,149
 161 492 161 492 161 451 c 0,138,139
EndSplineSet
Ligature2: "'cjct' Conjunct Forms in Khojki lookup 13 subtable" k_ssakhoj iiMatrakhoj
EndChar

StartChar: k_ssa_uMatrakhoj
Encoding: 1114121 -1 34
Width: 760
GlyphClass: 3
Flags: W
LayerCount: 2
Fore
SplineSet
375 -164 m 0,0,1
 328 -164 328 -164 297 -140 c 128,-1,2
 266 -116 266 -116 250.5 -77 c 128,-1,3
 235 -38 235 -38 235 7 c 0,4,5
 235 19 235 19 236 30 c 1,6,7
 189 38 189 38 150 64.5 c 128,-1,8
 111 91 111 91 88 127.5 c 128,-1,9
 65 164 65 164 65 202 c 0,10,11
 65 237 65 237 83 260.5 c 128,-1,12
 101 284 101 284 128 301 c 128,-1,13
 155 318 155 318 183 333 c 1,14,15
 146 366 146 366 123.5 406.5 c 128,-1,16
 101 447 101 447 101 489 c 0,17,18
 101 541 101 541 135 572.5 c 128,-1,19
 169 604 169 604 222 604 c 0,20,21
 268 604 268 604 305.5 581.5 c 128,-1,22
 343 559 343 559 365.5 523 c 128,-1,23
 388 487 388 487 388 446 c 0,24,25
 388 408 388 408 367 374.5 c 128,-1,26
 346 341 346 341 311 314 c 1,27,28
 330 311 330 311 349 311 c 0,29,30
 391 311 391 311 435.5 324 c 128,-1,31
 480 337 480 337 518 356 c 128,-1,32
 556 375 556 375 579 394 c 1,33,34
 575 450 575 450 568 502.5 c 128,-1,35
 561 555 561 555 550 600 c 1,36,-1
 626 600 l 1,37,38
 646 518 646 518 654.5 428.5 c 128,-1,39
 663 339 663 339 663 253 c 0,40,41
 663 191 663 191 660 130.5 c 128,-1,42
 657 70 657 70 651 14 c 1,43,44
 685 3 685 3 714.5 -21.5 c 128,-1,45
 744 -46 744 -46 762 -80.5 c 128,-1,46
 780 -115 780 -115 780 -155 c 0,47,48
 780 -213 780 -213 742 -255 c 128,-1,49
 704 -297 704 -297 640.5 -319 c 128,-1,50
 577 -341 577 -341 500 -341 c 0,51,52
 399 -341 399 -341 302.5 -303 c 128,-1,53
 206 -265 206 -265 127.5 -198 c 128,-1,54
 49 -131 49 -131 0 -43 c 1,55,-1
 11 12 l 1,56,-1
 20 15 l 1,57,58
 68 -64 68 -64 134 -124.5 c 128,-1,59
 200 -185 200 -185 282 -219.5 c 128,-1,60
 364 -254 364 -254 459 -254 c 0,61,62
 505 -254 505 -254 549.5 -245.5 c 128,-1,63
 594 -237 594 -237 630.5 -219.5 c 128,-1,64
 667 -202 667 -202 688.5 -175.5 c 128,-1,65
 710 -149 710 -149 710 -114 c 0,66,67
 710 -86 710 -86 695.5 -67.5 c 128,-1,68
 681 -49 681 -49 653 -49 c 0,69,70
 634 -49 634 -49 612.5 -59 c 128,-1,71
 591 -69 591 -69 565 -89 c 1,72,73
 543 -76 543 -76 523 -60.5 c 128,-1,74
 503 -45 503 -45 492 -31 c 1,75,76
 530 5 530 5 569 16 c 1,77,78
 584 128 584 128 584 259 c 0,79,80
 584 280 584 280 584 300 c 1,81,82
 545 281 545 281 491.5 264 c 128,-1,83
 438 247 438 247 391 247 c 0,84,85
 359 247 359 247 325 256 c 128,-1,86
 291 265 291 265 260 281 c 1,87,88
 254 277 254 277 247 274 c 0,89,90
 196 248 196 248 168 228.5 c 128,-1,91
 140 209 140 209 140 176 c 0,92,93
 140 141 140 141 166.5 125 c 128,-1,94
 193 109 193 109 227 109 c 0,95,96
 240 109 240 109 254 111 c 1,97,98
 268 143 268 143 285 168 c 128,-1,99
 302 193 302 193 327 193 c 0,100,101
 347 193 347 193 364.5 178 c 128,-1,102
 382 163 382 163 393.5 142.5 c 128,-1,103
 405 122 405 122 405 106 c 0,104,105
 405 79 405 79 373.5 56 c 128,-1,106
 342 33 342 33 294 28 c 1,107,108
 286 5 286 5 286 -18 c 0,109,110
 286 -48 286 -48 300.5 -64 c 128,-1,111
 315 -80 315 -80 350 -80 c 0,112,113
 398 -80 398 -80 442 -53 c 1,114,115
 450 -66 450 -66 456 -85 c 128,-1,116
 462 -104 462 -104 462 -115 c 0,117,118
 462 -140 462 -140 434 -152 c 128,-1,119
 406 -164 406 -164 375 -164 c 0,0,1
181 451 m 0,120,121
 181 421 181 421 192 397 c 128,-1,122
 203 373 203 373 223 355 c 1,123,124
 245 369 245 369 267.5 387.5 c 128,-1,125
 290 406 290 406 304.5 428.5 c 128,-1,126
 319 451 319 451 319 477 c 0,127,128
 319 505 319 505 301.5 523.5 c 128,-1,129
 284 542 284 542 255 542 c 0,130,131
 222 542 222 542 201.5 517 c 128,-1,132
 181 492 181 492 181 451 c 0,120,121
EndSplineSet
Ligature2: "'cjct' Conjunct Forms in Khojki lookup 14 subtable" k_ssakhoj uMatrakhoj
EndChar

StartChar: k_ssa_rakhoj
Encoding: 1114122 -1 35
Width: 779
GlyphClass: 3
Flags: W
LayerCount: 2
Fore
SplineSet
374 -240 m 0,0,1
 330 -240 330 -240 295.5 -216 c 128,-1,2
 261 -192 261 -192 241.5 -148.5 c 128,-1,3
 222 -105 222 -105 222 -49 c 0,4,5
 222 -32 222 -32 224 -16 c 1,6,7
 173 -7 173 -7 132.5 23.5 c 128,-1,8
 92 54 92 54 68.5 94.5 c 128,-1,9
 45 135 45 135 45 176 c 0,10,11
 45 221 45 221 76 253.5 c 128,-1,12
 107 286 107 286 168 329 c 2,13,-1
 171 331 l 1,14,15
 131 363 131 363 106 404 c 128,-1,16
 81 445 81 445 81 489 c 0,17,18
 81 541 81 541 115 572.5 c 128,-1,19
 149 604 149 604 202 604 c 0,20,21
 248 604 248 604 285.5 581.5 c 128,-1,22
 323 559 323 559 345.5 523 c 128,-1,23
 368 487 368 487 368 445 c 0,24,25
 368 407 368 407 349 377.5 c 128,-1,26
 330 348 330 348 300 322 c 1,27,28
 314 321 314 321 328 321 c 0,29,30
 408 321 408 321 478.5 362.5 c 128,-1,31
 549 404 549 404 604 469 c 1,32,33
 600 503 600 503 594 535.5 c 128,-1,34
 588 568 588 568 580 600 c 1,35,-1
 656 600 l 1,36,37
 674 536 674 536 684 454.5 c 128,-1,38
 694 373 694 373 694 293 c 0,39,40
 694 217 694 217 685.5 140 c 128,-1,41
 677 63 677 63 660 0 c 1,42,-1
 636 -9 l 1,43,44
 629 -2 629 -2 616 17.5 c 128,-1,45
 603 37 603 37 592.5 57 c 128,-1,46
 582 77 582 77 580 83 c 0,47,48
 593 132 593 132 600 184 c 1,49,-1
 452 95 l 1,50,-1
 391 153 l 1,51,-1
 392 160 l 1,52,-1
 611 285 l 1,53,54
 612 312 612 312 612 340 c 0,55,56
 612 351 612 351 612 361 c 1,57,58
 564 317 564 317 501 287 c 128,-1,59
 438 257 438 257 372 257 c 0,60,61
 341 257 341 257 309.5 264 c 128,-1,62
 278 271 278 271 249 284 c 1,63,64
 244 280 244 280 238.5 276.5 c 128,-1,65
 233 273 233 273 227 269 c 0,66,67
 184 240 184 240 151.5 212 c 128,-1,68
 119 184 119 184 119 141 c 0,69,70
 119 101 119 101 148.5 83 c 128,-1,71
 178 65 178 65 215 65 c 0,72,73
 229 65 229 65 243 67 c 1,74,75
 256 98 256 98 272.5 122.5 c 128,-1,76
 289 147 289 147 313 147 c 0,77,78
 333 147 333 147 350.5 132 c 128,-1,79
 368 117 368 117 379.5 96.5 c 128,-1,80
 391 76 391 76 391 60 c 0,81,82
 391 34 391 34 360.5 11.5 c 128,-1,83
 330 -11 330 -11 284 -17 c 1,84,85
 273 -46 273 -46 273 -76 c 0,86,87
 273 -111 273 -111 290 -133.5 c 128,-1,88
 307 -156 307 -156 349 -156 c 0,89,90
 375 -156 375 -156 402 -148 c 128,-1,91
 429 -140 429 -140 451 -127 c 1,92,93
 458 -140 458 -140 463 -159 c 128,-1,94
 468 -178 468 -178 468 -189 c 0,95,96
 468 -205 468 -205 453.5 -216.5 c 128,-1,97
 439 -228 439 -228 417 -234 c 128,-1,98
 395 -240 395 -240 374 -240 c 0,0,1
161 451 m 0,99,100
 161 420 161 420 173.5 396.5 c 128,-1,101
 186 373 186 373 207 356 c 1,102,103
 246 385 246 385 272.5 413.5 c 128,-1,104
 299 442 299 442 299 477 c 0,105,106
 299 505 299 505 281.5 523.5 c 128,-1,107
 264 542 264 542 235 542 c 0,108,109
 202 542 202 542 181.5 517 c 128,-1,110
 161 492 161 492 161 451 c 0,99,100
EndSplineSet
Ligature2: "'cjct' Conjunct Forms in Khojki lookup 11 subtable" k_ssakhoj halantkhoj rakhoj
EndChar

StartChar: k_ssa_ra_iMatrakhoj
Encoding: 1114123 -1 36
Width: 931
GlyphClass: 3
Flags: W
LayerCount: 2
Fore
SplineSet
374 -240 m 0,0,1
 330 -240 330 -240 295.5 -216 c 128,-1,2
 261 -192 261 -192 241.5 -148.5 c 128,-1,3
 222 -105 222 -105 222 -49 c 0,4,5
 222 -32 222 -32 224 -16 c 1,6,7
 173 -7 173 -7 132.5 23.5 c 128,-1,8
 92 54 92 54 68.5 94.5 c 128,-1,9
 45 135 45 135 45 176 c 0,10,11
 45 221 45 221 76 253.5 c 128,-1,12
 107 286 107 286 168 329 c 2,13,-1
 171 331 l 1,14,15
 131 363 131 363 106 404 c 128,-1,16
 81 445 81 445 81 489 c 0,17,18
 81 541 81 541 115 572.5 c 128,-1,19
 149 604 149 604 202 604 c 0,20,21
 248 604 248 604 285.5 581.5 c 128,-1,22
 323 559 323 559 345.5 523 c 128,-1,23
 368 487 368 487 368 445 c 0,24,25
 368 407 368 407 349 377.5 c 128,-1,26
 330 348 330 348 300 322 c 1,27,28
 314 321 314 321 328 321 c 0,29,30
 408 321 408 321 479 363 c 128,-1,31
 550 405 550 405 604 470 c 1,32,33
 596 537 596 537 580 600 c 1,34,-1
 655 600 l 1,35,36
 671 534 671 534 679.5 455 c 128,-1,37
 688 376 688 376 688 303 c 0,38,39
 688 291 688 291 688 280 c 1,40,41
 710 357 710 357 733.5 433.5 c 128,-1,42
 757 510 757 510 781.5 579 c 128,-1,43
 806 648 806 648 830.5 703 c 128,-1,44
 855 758 855 758 878 792 c 0,45,46
 912 842 912 842 958 868.5 c 128,-1,47
 1004 895 1004 895 1062 895 c 0,48,49
 1118 895 1118 895 1165 871 c 128,-1,50
 1212 847 1212 847 1246 809 c 1,51,-1
 1251 738 l 1,52,-1
 1242 736 l 1,53,54
 1211 771 1211 771 1171.5 792.5 c 128,-1,55
 1132 814 1132 814 1086 814 c 0,56,57
 997 814 997 814 936 717 c 0,58,59
 906 669 906 669 874.5 592.5 c 128,-1,60
 843 516 843 516 810.5 420.5 c 128,-1,61
 778 325 778 325 745.5 217.5 c 128,-1,62
 713 110 713 110 681 -1 c 1,63,-1
 668 -4 l 1,64,-1
 606 48 l 1,65,66
 609 82 609 82 611 115.5 c 128,-1,67
 613 149 613 149 614 182 c 1,68,-1
 452 85 l 1,69,-1
 391 143 l 1,70,-1
 392 150 l 1,71,-1
 616 278 l 1,72,-1
 616 280 l 2,73,74
 616 323 616 323 614 363 c 1,75,76
 566 318 566 318 502 287.5 c 128,-1,77
 438 257 438 257 372 257 c 0,78,79
 341 257 341 257 309.5 264 c 128,-1,80
 278 271 278 271 249 284 c 1,81,82
 244 280 244 280 238.5 276.5 c 128,-1,83
 233 273 233 273 227 269 c 0,84,85
 184 240 184 240 151.5 212 c 128,-1,86
 119 184 119 184 119 141 c 0,87,88
 119 101 119 101 148.5 83 c 128,-1,89
 178 65 178 65 215 65 c 0,90,91
 229 65 229 65 243 67 c 1,92,93
 256 98 256 98 272.5 122.5 c 128,-1,94
 289 147 289 147 313 147 c 0,95,96
 333 147 333 147 350.5 132 c 128,-1,97
 368 117 368 117 379.5 96.5 c 128,-1,98
 391 76 391 76 391 60 c 0,99,100
 391 34 391 34 360.5 11.5 c 128,-1,101
 330 -11 330 -11 284 -17 c 1,102,103
 273 -46 273 -46 273 -76 c 0,104,105
 273 -111 273 -111 290 -133.5 c 128,-1,106
 307 -156 307 -156 349 -156 c 0,107,108
 375 -156 375 -156 402 -148 c 128,-1,109
 429 -140 429 -140 451 -127 c 1,110,111
 458 -140 458 -140 463 -159 c 128,-1,112
 468 -178 468 -178 468 -189 c 0,113,114
 468 -205 468 -205 453.5 -216.5 c 128,-1,115
 439 -228 439 -228 417 -234 c 128,-1,116
 395 -240 395 -240 374 -240 c 0,0,1
161 451 m 0,117,118
 161 420 161 420 173.5 396.5 c 128,-1,119
 186 373 186 373 207 356 c 1,120,121
 246 385 246 385 272.5 413.5 c 128,-1,122
 299 442 299 442 299 477 c 0,123,124
 299 505 299 505 281.5 523.5 c 128,-1,125
 264 542 264 542 235 542 c 0,126,127
 202 542 202 542 181.5 517 c 128,-1,128
 161 492 161 492 161 451 c 0,117,118
EndSplineSet
Ligature2: "'cjct' Conjunct Forms in Khojki lookup 12 subtable" k_ssa_rakhoj iMatrakhoj
EndChar

StartChar: k_ssa_ra_iiMatrakhoj
Encoding: 1114124 -1 37
Width: 1132
GlyphClass: 3
Flags: W
LayerCount: 2
Fore
SplineSet
374 -240 m 0,0,1
 330 -240 330 -240 295.5 -216 c 128,-1,2
 261 -192 261 -192 241.5 -148.5 c 128,-1,3
 222 -105 222 -105 222 -49 c 0,4,5
 222 -32 222 -32 224 -16 c 1,6,7
 173 -7 173 -7 132.5 23.5 c 128,-1,8
 92 54 92 54 68.5 94.5 c 128,-1,9
 45 135 45 135 45 176 c 0,10,11
 45 221 45 221 76 253.5 c 128,-1,12
 107 286 107 286 168 329 c 2,13,-1
 171 331 l 1,14,15
 131 363 131 363 106 404 c 128,-1,16
 81 445 81 445 81 489 c 0,17,18
 81 541 81 541 115 572.5 c 128,-1,19
 149 604 149 604 202 604 c 0,20,21
 248 604 248 604 285.5 581.5 c 128,-1,22
 323 559 323 559 345.5 523 c 128,-1,23
 368 487 368 487 368 445 c 0,24,25
 368 407 368 407 349 377.5 c 128,-1,26
 330 348 330 348 300 322 c 1,27,28
 314 321 314 321 328 321 c 0,29,30
 408 321 408 321 479 363 c 128,-1,31
 550 405 550 405 604 470 c 1,32,33
 596 537 596 537 580 600 c 1,34,-1
 655 600 l 1,35,36
 671 534 671 534 679.5 455 c 128,-1,37
 688 376 688 376 688 303 c 0,38,39
 688 283 688 283 687 264 c 1,40,41
 714 348 714 348 741 423.5 c 128,-1,42
 768 499 768 499 791 549 c 0,43,44
 818 608 818 608 845.5 634.5 c 128,-1,45
 873 661 873 661 901 661 c 0,46,47
 938 661 938 661 969.5 626 c 128,-1,48
 1001 591 1001 591 1020.5 529 c 128,-1,49
 1040 467 1040 467 1040 385 c 0,50,51
 1040 319 1040 319 1029 243.5 c 128,-1,52
 1018 168 1018 168 1007.5 93.5 c 128,-1,53
 997 19 997 19 997 -45 c 0,54,55
 997 -106 997 -106 1012 -132 c 128,-1,56
 1027 -158 1027 -158 1061 -158 c 0,57,58
 1089 -158 1089 -158 1111 -145 c 128,-1,59
 1133 -132 1133 -132 1140 -114 c 1,60,61
 1164 -125 1164 -125 1184 -143.5 c 128,-1,62
 1204 -162 1204 -162 1202 -187 c 0,63,64
 1201 -212 1201 -212 1176 -226 c 128,-1,65
 1151 -240 1151 -240 1116 -240 c 0,66,67
 1060 -240 1060 -240 1014 -206 c 128,-1,68
 968 -172 968 -172 941.5 -111.5 c 128,-1,69
 915 -51 915 -51 915 28 c 0,70,71
 915 72 915 72 922 129.5 c 128,-1,72
 929 187 929 187 938.5 250 c 128,-1,73
 948 313 948 313 955 373.5 c 128,-1,74
 962 434 962 434 962 482 c 0,75,76
 962 505 962 505 959.5 527 c 128,-1,77
 957 549 957 549 950 563.5 c 128,-1,78
 943 578 943 578 929 578 c 0,79,80
 912 578 912 578 891.5 550 c 128,-1,81
 871 522 871 522 849 472 c 0,82,83
 833 436 833 436 811 377.5 c 128,-1,84
 789 319 789 319 764.5 250.5 c 128,-1,85
 740 182 740 182 718 116 c 128,-1,86
 696 50 696 50 681 -1 c 1,87,-1
 668 -4 l 1,88,-1
 606 48 l 1,89,90
 609 82 609 82 611 115.5 c 128,-1,91
 613 149 613 149 614 182 c 1,92,-1
 452 85 l 1,93,-1
 391 143 l 1,94,-1
 392 150 l 1,95,-1
 616 278 l 1,96,-1
 616 280 l 2,97,98
 616 323 616 323 614 363 c 1,99,100
 566 318 566 318 502 287.5 c 128,-1,101
 438 257 438 257 372 257 c 0,102,103
 341 257 341 257 309.5 264 c 128,-1,104
 278 271 278 271 249 284 c 1,105,106
 244 280 244 280 238.5 276.5 c 128,-1,107
 233 273 233 273 227 269 c 0,108,109
 184 240 184 240 151.5 212 c 128,-1,110
 119 184 119 184 119 141 c 0,111,112
 119 101 119 101 148.5 83 c 128,-1,113
 178 65 178 65 215 65 c 0,114,115
 229 65 229 65 243 67 c 1,116,117
 256 98 256 98 272.5 122.5 c 128,-1,118
 289 147 289 147 313 147 c 0,119,120
 333 147 333 147 350.5 132 c 128,-1,121
 368 117 368 117 379.5 96.5 c 128,-1,122
 391 76 391 76 391 60 c 0,123,124
 391 34 391 34 360.5 11.5 c 128,-1,125
 330 -11 330 -11 284 -17 c 1,126,127
 273 -46 273 -46 273 -76 c 0,128,129
 273 -111 273 -111 290 -133.5 c 128,-1,130
 307 -156 307 -156 349 -156 c 0,131,132
 375 -156 375 -156 402 -148 c 128,-1,133
 429 -140 429 -140 451 -127 c 1,134,135
 458 -140 458 -140 463 -159 c 128,-1,136
 468 -178 468 -178 468 -189 c 0,137,138
 468 -205 468 -205 453.5 -216.5 c 128,-1,139
 439 -228 439 -228 417 -234 c 128,-1,140
 395 -240 395 -240 374 -240 c 0,0,1
161 451 m 0,141,142
 161 420 161 420 173.5 396.5 c 128,-1,143
 186 373 186 373 207 356 c 1,144,145
 246 385 246 385 272.5 413.5 c 128,-1,146
 299 442 299 442 299 477 c 0,147,148
 299 505 299 505 281.5 523.5 c 128,-1,149
 264 542 264 542 235 542 c 0,150,151
 202 542 202 542 181.5 517 c 128,-1,152
 161 492 161 492 161 451 c 0,141,142
EndSplineSet
Ligature2: "'cjct' Conjunct Forms in Khojki lookup 13 subtable" k_ssa_rakhoj iiMatrakhoj
EndChar

StartChar: k_ssa_ra_uMatrakhoj
Encoding: 1114125 -1 38
Width: 820
GlyphClass: 3
Flags: W
LayerCount: 2
Fore
SplineSet
391 -164 m 0,0,1
 345 -164 345 -164 313.5 -140 c 128,-1,2
 282 -116 282 -116 266.5 -76.5 c 128,-1,3
 251 -37 251 -37 251 7 c 0,4,5
 251 18 251 18 252 30 c 1,6,7
 205 38 205 38 165 64 c 128,-1,8
 125 90 125 90 101.5 126.5 c 128,-1,9
 78 163 78 163 78 202 c 0,10,11
 78 237 78 237 96 260.5 c 128,-1,12
 114 284 114 284 142 301.5 c 128,-1,13
 170 319 170 319 199 335 c 1,14,15
 161 366 161 366 137.5 406 c 128,-1,16
 114 446 114 446 114 489 c 0,17,18
 114 541 114 541 148 572.5 c 128,-1,19
 182 604 182 604 235 604 c 0,20,21
 281 604 281 604 318.5 581.5 c 128,-1,22
 356 559 356 559 378.5 523 c 128,-1,23
 401 487 401 487 401 446 c 0,24,25
 401 410 401 410 383 379 c 128,-1,26
 365 348 365 348 334 322 c 1,27,28
 347 321 347 321 361 321 c 0,29,30
 440 321 440 321 510.5 362 c 128,-1,31
 581 403 581 403 636 468 c 1,32,33
 627 542 627 542 613 600 c 1,34,-1
 689 600 l 1,35,36
 709 518 709 518 717.5 428.5 c 128,-1,37
 726 339 726 339 726 253 c 0,38,39
 726 191 726 191 723 130 c 128,-1,40
 720 69 720 69 714 12 c 1,41,42
 747 1 747 1 775.5 -24 c 128,-1,43
 804 -49 804 -49 822 -82.5 c 128,-1,44
 840 -116 840 -116 840 -155 c 0,45,46
 840 -212 840 -212 800.5 -253.5 c 128,-1,47
 761 -295 761 -295 695 -318 c 128,-1,48
 629 -341 629 -341 548 -341 c 0,49,50
 444 -341 444 -341 341 -304 c 128,-1,51
 238 -267 238 -267 149.5 -200 c 128,-1,52
 61 -133 61 -133 0 -43 c 1,53,-1
 11 12 l 1,54,-1
 20 15 l 1,55,56
 110 -109 110 -109 235 -181.5 c 128,-1,57
 360 -254 360 -254 505 -254 c 0,58,59
 554 -254 554 -254 601 -245.5 c 128,-1,60
 648 -237 648 -237 686 -219.5 c 128,-1,61
 724 -202 724 -202 747 -175.5 c 128,-1,62
 770 -149 770 -149 770 -113 c 0,63,64
 770 -86 770 -86 755.5 -67.5 c 128,-1,65
 741 -49 741 -49 713 -49 c 0,66,67
 691 -49 691 -49 666 -62 c 128,-1,68
 641 -75 641 -75 612 -99 c 1,69,70
 590 -86 590 -86 570 -70.5 c 128,-1,71
 550 -55 550 -55 539 -41 c 1,72,73
 560 -20 560 -20 583.5 -5 c 128,-1,74
 607 10 607 10 632 16 c 1,75,76
 641 81 641 81 644 154 c 1,77,-1
 495 65 l 1,78,-1
 434 123 l 1,79,-1
 435 130 l 1,80,-1
 647 251 l 2,81,82
 647 255 647 255 647 259 c 0,83,84
 647 310 647 310 644 361 c 1,85,86
 596 317 596 317 533 287 c 128,-1,87
 470 257 470 257 405 257 c 0,88,89
 374 257 374 257 342 264.5 c 128,-1,90
 310 272 310 272 280 285 c 1,91,92
 270 279 270 279 260 274 c 0,93,94
 209 248 209 248 181 228.5 c 128,-1,95
 153 209 153 209 153 176 c 0,96,97
 153 141 153 141 179.5 125 c 128,-1,98
 206 109 206 109 240 109 c 0,99,100
 254 109 254 109 269 112 c 1,101,102
 282 143 282 143 298.5 168 c 128,-1,103
 315 193 315 193 340 193 c 0,104,105
 360 193 360 193 377.5 178 c 128,-1,106
 395 163 395 163 406.5 142.5 c 128,-1,107
 418 122 418 122 418 106 c 0,108,109
 418 80 418 80 387 57 c 128,-1,110
 356 34 356 34 310 28 c 1,111,112
 302 5 302 5 302 -18 c 0,113,114
 302 -48 302 -48 316.5 -64 c 128,-1,115
 331 -80 331 -80 366 -80 c 0,116,117
 392 -80 392 -80 418.5 -72 c 128,-1,118
 445 -64 445 -64 467 -51 c 1,119,120
 474 -64 474 -64 479 -82.5 c 128,-1,121
 484 -101 484 -101 484 -112 c 0,122,123
 484 -129 484 -129 469.5 -140.5 c 128,-1,124
 455 -152 455 -152 434 -158 c 128,-1,125
 413 -164 413 -164 391 -164 c 0,0,1
194 451 m 0,126,127
 194 420 194 420 206 396.5 c 128,-1,128
 218 373 218 373 239 357 c 1,129,130
 274 379 274 379 303 409 c 128,-1,131
 332 439 332 439 332 477 c 0,132,133
 332 505 332 505 314.5 523.5 c 128,-1,134
 297 542 297 542 268 542 c 0,135,136
 235 542 235 542 214.5 517 c 128,-1,137
 194 492 194 492 194 451 c 0,126,127
EndSplineSet
Ligature2: "'cjct' Conjunct Forms in Khojki lookup 14 subtable" k_ssa_rakhoj uMatrakhoj
EndChar

StartChar: khakhoj
Encoding: 70153 70153 39
Width: 797
GlyphClass: 2
Flags: W
AnchorPoint: "+BBEENQQ3BEsEPARPBD0EPQQ+BDUA--3" 436 585 basechar 0
AnchorPoint: "+BBEENQQ3BEsEPARPBD0EPQQ+BDUA--2" 614 81 basechar 0
AnchorPoint: "+BBEENQQ3BEsEPARPBD0EPQQ+BDUA--0" 744 536 basechar 0
LayerCount: 2
Fore
SplineSet
608 59 m 1,0,1
 595 69 595 69 575.5 94 c 128,-1,2
 556 119 556 119 545 140 c 1,3,4
 600 203 600 203 634 269 c 128,-1,5
 668 335 668 335 683 414 c 1,6,7
 640 350 640 350 589.5 301 c 128,-1,8
 539 252 539 252 485.5 223.5 c 128,-1,9
 432 195 432 195 380 195 c 0,10,11
 334 195 334 195 290 216 c 128,-1,12
 246 237 246 237 215 268 c 0,13,14
 190 293 190 293 178.5 317 c 128,-1,15
 167 341 167 341 163 365 c 128,-1,16
 159 389 159 389 155 413 c 0,17,18
 150 447 150 447 141 465.5 c 128,-1,19
 132 484 132 484 112 484 c 0,20,21
 90 484 90 484 70.5 464.5 c 128,-1,22
 51 445 51 445 38 428 c 1,23,24
 0 457 0 457 0 491 c 0,25,26
 0 519 0 519 23.5 532.5 c 128,-1,27
 47 546 47 546 80 546 c 0,28,29
 111 546 111 546 136.5 535.5 c 128,-1,30
 162 525 162 525 183 509 c 0,31,32
 219 483 219 483 236 455 c 128,-1,33
 253 427 253 427 259.5 398 c 128,-1,34
 266 369 266 369 270 338 c 0,35,36
 275 306 275 306 286 285.5 c 128,-1,37
 297 265 297 265 333 265 c 0,38,39
 370 265 370 265 412 287 c 128,-1,40
 454 309 454 309 495 344 c 1,41,42
 478 402 478 402 465 436 c 128,-1,43
 452 470 452 470 441.5 486.5 c 128,-1,44
 431 503 431 503 420.5 507.5 c 128,-1,45
 410 512 410 512 399 512 c 0,46,47
 382 512 382 512 366 505.5 c 128,-1,48
 350 499 350 499 334 490 c 1,49,50
 324 504 324 504 316 521 c 128,-1,51
 308 538 308 538 308 554 c 0,52,53
 308 575 308 575 325.5 589 c 128,-1,54
 343 603 343 603 374 603 c 0,55,56
 406 603 406 603 432 585 c 128,-1,57
 458 567 458 567 482 518 c 128,-1,58
 506 469 506 469 531 378 c 1,59,60
 568 414 568 414 600 456.5 c 128,-1,61
 632 499 632 499 655 541 c 1,62,63
 683 527 683 527 707.5 501.5 c 128,-1,64
 732 476 732 476 747 450 c 1,65,66
 746 349 746 349 715.5 252 c 128,-1,67
 685 155 685 155 641 68 c 1,68,-1
 608 59 l 1,0,1
EndSplineSet
EndChar

StartChar: kha_iMatrakhoj
Encoding: 1114126 -1 40
Width: 897
GlyphClass: 2
Flags: W
AnchorPoint: "+BBEENQQ3BEsEPARPBD0EPQQ+BDUA--3" 438 600 basechar 0
AnchorPoint: "+BBEENQQ3BEsEPARPBD0EPQQ+BDUA--2" 694 81 basechar 0
AnchorPoint: "+BBEENQQ3BEsEPARPBD0EPQQ+BDUA--0" 1111 892 basechar 0
LayerCount: 2
Fore
SplineSet
697 66 m 1,0,-1
 638 114 l 1,1,2
 658 194 658 194 674.5 274 c 128,-1,3
 691 354 691 354 691 418 c 0,4,5
 691 422 691 422 691 426 c 1,6,7
 647 359 647 359 595.5 307 c 128,-1,8
 544 255 544 255 488.5 225 c 128,-1,9
 433 195 433 195 380 195 c 0,10,11
 334 195 334 195 290 216 c 128,-1,12
 246 237 246 237 215 268 c 0,13,14
 178 303 178 303 169 340 c 128,-1,15
 160 377 160 377 155 412 c 256,16,17
 150 447 150 447 141 465.5 c 128,-1,18
 132 484 132 484 111 484 c 0,19,20
 89 484 89 484 70 464.5 c 128,-1,21
 51 445 51 445 38 428 c 1,22,23
 0 457 0 457 0 491 c 0,24,25
 0 519 0 519 23.5 532.5 c 128,-1,26
 47 546 47 546 80 546 c 0,27,28
 111 546 111 546 136.5 535.5 c 128,-1,29
 162 525 162 525 183 509 c 0,30,31
 219 483 219 483 236 455 c 128,-1,32
 253 427 253 427 259.5 398 c 128,-1,33
 266 369 266 369 270 338 c 0,34,35
 275 306 275 306 286 285.5 c 128,-1,36
 297 265 297 265 333 265 c 0,37,38
 370 265 370 265 412 287 c 128,-1,39
 454 309 454 309 495 344 c 1,40,41
 478 402 478 402 465 436 c 128,-1,42
 452 470 452 470 441.5 486.5 c 128,-1,43
 431 503 431 503 420.5 507.5 c 128,-1,44
 410 512 410 512 399 512 c 0,45,46
 382 512 382 512 366 505.5 c 128,-1,47
 350 499 350 499 334 490 c 1,48,49
 324 504 324 504 316 521 c 128,-1,50
 308 538 308 538 308 554 c 0,51,52
 308 575 308 575 325.5 589 c 128,-1,53
 343 603 343 603 374 603 c 0,54,55
 406 603 406 603 432 585 c 128,-1,56
 458 567 458 567 482 518 c 128,-1,57
 506 469 506 469 531 378 c 1,58,59
 568 414 568 414 600 456.5 c 128,-1,60
 632 499 632 499 655 541 c 1,61,62
 676 530 676 530 696 512 c 128,-1,63
 716 494 716 494 731 474 c 1,64,65
 758 573 758 573 783 652 c 128,-1,66
 808 731 808 731 840 784 c 0,67,68
 874 840 874 840 922 867.5 c 128,-1,69
 970 895 970 895 1028 895 c 0,70,71
 1084 895 1084 895 1131 871 c 128,-1,72
 1178 847 1178 847 1212 809 c 1,73,-1
 1217 738 l 1,74,-1
 1208 736 l 1,75,76
 1177 771 1177 771 1137.5 792.5 c 128,-1,77
 1098 814 1098 814 1052 814 c 0,78,79
 959 814 959 814 904 717 c 0,80,81
 883 680 883 680 859.5 612 c 128,-1,82
 836 544 836 544 812 456 c 128,-1,83
 788 368 788 368 762.5 268.5 c 128,-1,84
 737 169 737 169 711 68 c 1,85,-1
 697 66 l 1,0,-1
EndSplineSet
Ligature2: "'cjct' Conjunct Forms in Khojki lookup 12 subtable" khakhoj iMatrakhoj
EndChar

StartChar: kha_iiMatrakhoj
Encoding: 1114127 -1 41
Width: 1113
GlyphClass: 2
Flags: W
AnchorPoint: "+BBEENQQ3BEsEPARPBD0EPQQ+BDUA--3" 438 600 basechar 0
AnchorPoint: "+BBEENQQ3BEsEPARPBD0EPQQ+BDUA--2" 694 81 basechar 0
AnchorPoint: "+BBEENQQ3BEsEPARPBD0EPQQ+BDUA--0" 1001 656 basechar 0
LayerCount: 2
Fore
SplineSet
1097 -240 m 0,0,1
 1039 -240 1039 -240 993.5 -204.5 c 128,-1,2
 948 -169 948 -169 922 -109 c 128,-1,3
 896 -49 896 -49 896 26 c 0,4,5
 896 71 896 71 904 129 c 128,-1,6
 912 187 912 187 922.5 250 c 128,-1,7
 933 313 933 313 941 372.5 c 128,-1,8
 949 432 949 432 949 479 c 0,9,10
 949 503 949 503 946 526 c 128,-1,11
 943 549 943 549 935 563.5 c 128,-1,12
 927 578 927 578 913 578 c 0,13,14
 861 578 861 578 796 380 c 0,15,16
 780 332 780 332 764 273.5 c 128,-1,17
 748 215 748 215 734.5 160.5 c 128,-1,18
 721 106 721 106 711 68 c 1,19,-1
 697 66 l 1,20,-1
 638 114 l 1,21,22
 652 167 652 167 664 222 c 128,-1,23
 676 277 676 277 683.5 325 c 128,-1,24
 691 373 691 373 691 405 c 0,25,26
 691 416 691 416 690 424 c 1,27,28
 646 358 646 358 594.5 306.5 c 128,-1,29
 543 255 543 255 488 225 c 128,-1,30
 433 195 433 195 380 195 c 0,31,32
 334 195 334 195 290 216 c 128,-1,33
 246 237 246 237 215 268 c 0,34,35
 178 303 178 303 169 340 c 128,-1,36
 160 377 160 377 155 412 c 256,37,38
 150 447 150 447 141 465.5 c 128,-1,39
 132 484 132 484 111 484 c 0,40,41
 89 484 89 484 70 464.5 c 128,-1,42
 51 445 51 445 38 428 c 1,43,44
 0 457 0 457 0 491 c 0,45,46
 0 519 0 519 23.5 532.5 c 128,-1,47
 47 546 47 546 80 546 c 0,48,49
 111 546 111 546 136.5 535.5 c 128,-1,50
 162 525 162 525 183 509 c 0,51,52
 219 483 219 483 236 455 c 128,-1,53
 253 427 253 427 259.5 398 c 128,-1,54
 266 369 266 369 270 338 c 0,55,56
 275 306 275 306 286 285.5 c 128,-1,57
 297 265 297 265 333 265 c 0,58,59
 370 265 370 265 412 287 c 128,-1,60
 454 309 454 309 495 344 c 1,61,62
 478 402 478 402 465 436 c 128,-1,63
 452 470 452 470 441.5 486.5 c 128,-1,64
 431 503 431 503 420.5 507.5 c 128,-1,65
 410 512 410 512 399 512 c 0,66,67
 382 512 382 512 366 505.5 c 128,-1,68
 350 499 350 499 334 490 c 1,69,70
 324 504 324 504 316 521 c 128,-1,71
 308 538 308 538 308 554 c 0,72,73
 308 575 308 575 325.5 589 c 128,-1,74
 343 603 343 603 374 603 c 0,75,76
 406 603 406 603 432 585 c 128,-1,77
 458 567 458 567 482 518 c 128,-1,78
 506 469 506 469 531 378 c 1,79,80
 568 414 568 414 600 456.5 c 128,-1,81
 632 499 632 499 655 541 c 1,82,83
 679 529 679 529 701 508 c 128,-1,84
 723 487 723 487 738 464 c 1,85,86
 749 495 749 495 761.5 524.5 c 128,-1,87
 774 554 774 554 788 579 c 0,88,89
 808 616 808 616 832.5 638.5 c 128,-1,90
 857 661 857 661 885 661 c 0,91,92
 921 661 921 661 953.5 625.5 c 128,-1,93
 986 590 986 590 1006 527.5 c 128,-1,94
 1026 465 1026 465 1026 385 c 0,95,96
 1026 319 1026 319 1014 244 c 128,-1,97
 1002 169 1002 169 990 94.5 c 128,-1,98
 978 20 978 20 978 -46 c 0,99,100
 978 -107 978 -107 993 -132.5 c 128,-1,101
 1008 -158 1008 -158 1042 -158 c 0,102,103
 1070 -158 1070 -158 1092 -145 c 128,-1,104
 1114 -132 1114 -132 1121 -114 c 1,105,106
 1145 -125 1145 -125 1165 -143.5 c 128,-1,107
 1185 -162 1185 -162 1183 -187 c 0,108,109
 1182 -212 1182 -212 1157 -226 c 128,-1,110
 1132 -240 1132 -240 1097 -240 c 0,0,1
EndSplineSet
Ligature2: "'cjct' Conjunct Forms in Khojki lookup 13 subtable" khakhoj iiMatrakhoj
EndChar

StartChar: kha_uMatrakhoj
Encoding: 1114128 -1 42
Width: 861
GlyphClass: 2
Flags: W
AnchorPoint: "+BBEENQQ3BEsEPARPBD0EPQQ+BDUA--3" 463 600 basechar 0
AnchorPoint: "+BBEENQQ3BEsEPARPBD0EPQQ+BDUA--2" 574 -139 basechar 0
AnchorPoint: "+BBEENQQ3BEsEPARPBD0EPQQ+BDUA--0" 769 536 basechar 0
LayerCount: 2
Fore
SplineSet
581 -139 m 256,0,1
 500 -139 500 -139 425.5 -112.5 c 128,-1,2
 351 -86 351 -86 287.5 -42 c 128,-1,3
 224 2 224 2 173.5 58 c 128,-1,4
 123 114 123 114 89 172 c 1,5,-1
 100 227 l 1,6,-1
 109 230 l 1,7,8
 142 175 142 175 188.5 124.5 c 128,-1,9
 235 74 235 74 292 34 c 128,-1,10
 349 -6 349 -6 415 -29 c 128,-1,11
 481 -52 481 -52 553 -52 c 0,12,13
 615 -52 615 -52 664.5 -35 c 128,-1,14
 714 -18 714 -18 743 12.5 c 128,-1,15
 772 43 772 43 772 82 c 0,16,17
 772 106 772 106 761 120 c 128,-1,18
 750 134 750 134 733 134 c 0,19,20
 712 134 712 134 685 115 c 128,-1,21
 658 96 658 96 623 66 c 1,22,23
 610 74 610 74 590 99 c 128,-1,24
 570 124 570 124 559 150 c 1,25,26
 621 203 621 203 657 269 c 128,-1,27
 693 335 693 335 708 414 c 1,28,29
 665 350 665 350 614.5 301 c 128,-1,30
 564 252 564 252 510.5 223.5 c 128,-1,31
 457 195 457 195 405 195 c 0,32,33
 359 195 359 195 315 216 c 128,-1,34
 271 237 271 237 240 268 c 0,35,36
 203 303 203 303 194 340 c 128,-1,37
 185 377 185 377 180 412 c 256,38,39
 175 447 175 447 166 465.5 c 128,-1,40
 157 484 157 484 136 484 c 0,41,42
 114 484 114 484 95 464.5 c 128,-1,43
 76 445 76 445 63 428 c 1,44,45
 25 457 25 457 25 491 c 0,46,47
 25 519 25 519 48.5 532.5 c 128,-1,48
 72 546 72 546 105 546 c 0,49,50
 136 546 136 546 161.5 535.5 c 128,-1,51
 187 525 187 525 208 509 c 0,52,53
 244 483 244 483 261 455 c 128,-1,54
 278 427 278 427 284.5 398 c 128,-1,55
 291 369 291 369 295 338 c 0,56,57
 300 306 300 306 311 285.5 c 128,-1,58
 322 265 322 265 358 265 c 0,59,60
 395 265 395 265 437 287 c 128,-1,61
 479 309 479 309 520 344 c 1,62,63
 503 402 503 402 490 436 c 128,-1,64
 477 470 477 470 466.5 486.5 c 128,-1,65
 456 503 456 503 445.5 507.5 c 128,-1,66
 435 512 435 512 424 512 c 0,67,68
 407 512 407 512 391 505.5 c 128,-1,69
 375 499 375 499 359 490 c 1,70,71
 349 504 349 504 341 521 c 128,-1,72
 333 538 333 538 333 554 c 0,73,74
 333 575 333 575 350.5 589 c 128,-1,75
 368 603 368 603 399 603 c 0,76,77
 431 603 431 603 457 585 c 128,-1,78
 483 567 483 567 507 518 c 128,-1,79
 531 469 531 469 556 378 c 1,80,81
 593 414 593 414 625 456.5 c 128,-1,82
 657 499 657 499 680 541 c 1,83,84
 708 527 708 527 732.5 501.5 c 128,-1,85
 757 476 757 476 772 450 c 1,86,87
 771 383 771 383 757 318 c 128,-1,88
 743 253 743 253 720 192 c 1,89,90
 770 174 770 174 805.5 134 c 128,-1,91
 841 94 841 94 841 41 c 0,92,93
 841 -6 841 -6 810 -47 c 128,-1,94
 779 -88 779 -88 720.5 -113.5 c 128,-1,95
 662 -139 662 -139 581 -139 c 256,0,1
EndSplineSet
Ligature2: "'cjct' Conjunct Forms in Khojki lookup 14 subtable" khakhoj uMatrakhoj
EndChar

StartChar: kh_rakhoj
Encoding: 1114129 -1 43
Width: 861
GlyphClass: 2
Flags: W
AnchorPoint: "+BBEENQQ3BEsEPARPBD0EPQQ+BDUA--3" 438 600 basechar 0
AnchorPoint: "+BBEENQQ3BEsEPARPBD0EPQQ+BDUA--2" 704 11 basechar 0
AnchorPoint: "+BBEENQQ3BEsEPARPBD0EPQQ+BDUA--0" 792 536 basechar 0
LayerCount: 2
Fore
SplineSet
476 42 m 1,0,-1
 404 97 l 1,1,-1
 404 104 l 1,2,-1
 716 289 l 1,3,4
 731 363 731 363 734 439 c 1,5,6
 701 391 701 391 658.5 347 c 128,-1,7
 616 303 616 303 568.5 268.5 c 128,-1,8
 521 234 521 234 472.5 214.5 c 128,-1,9
 424 195 424 195 380 195 c 0,10,11
 334 195 334 195 290 216 c 128,-1,12
 246 237 246 237 215 268 c 0,13,14
 190 293 190 293 178.5 317 c 128,-1,15
 167 341 167 341 163 365 c 128,-1,16
 159 389 159 389 155 413 c 0,17,18
 150 447 150 447 141 465.5 c 128,-1,19
 132 484 132 484 112 484 c 0,20,21
 90 484 90 484 70.5 464.5 c 128,-1,22
 51 445 51 445 38 428 c 1,23,24
 0 457 0 457 0 491 c 0,25,26
 0 519 0 519 23.5 532.5 c 128,-1,27
 47 546 47 546 80 546 c 0,28,29
 111 546 111 546 136.5 535.5 c 128,-1,30
 162 525 162 525 183 509 c 0,31,32
 219 483 219 483 236 455 c 128,-1,33
 253 427 253 427 259.5 398 c 128,-1,34
 266 369 266 369 270 338 c 0,35,36
 275 306 275 306 286 285.5 c 128,-1,37
 297 265 297 265 333 265 c 0,38,39
 367 265 367 265 410 284 c 128,-1,40
 453 303 453 303 498 335 c 1,41,42
 480 397 480 397 466.5 432.5 c 128,-1,43
 453 468 453 468 442 485 c 128,-1,44
 431 502 431 502 421 507 c 128,-1,45
 411 512 411 512 399 512 c 0,46,47
 382 512 382 512 366 505.5 c 128,-1,48
 350 499 350 499 334 490 c 1,49,50
 324 504 324 504 316 521 c 128,-1,51
 308 538 308 538 308 554 c 0,52,53
 308 575 308 575 325.5 589 c 128,-1,54
 343 603 343 603 374 603 c 0,55,56
 407 603 407 603 434 583.5 c 128,-1,57
 461 564 461 564 485 512.5 c 128,-1,58
 509 461 509 461 535 364 c 1,59,60
 582 402 582 402 623.5 449.5 c 128,-1,61
 665 497 665 497 691 544 c 1,62,63
 719 531 719 531 747.5 506 c 128,-1,64
 776 481 776 481 795 450 c 1,65,66
 796 440 796 440 796 430 c 128,-1,67
 796 420 796 420 796 409 c 0,68,69
 796 335 796 335 785.5 260.5 c 128,-1,70
 775 186 775 186 758 119.5 c 128,-1,71
 741 53 741 53 719 0 c 1,72,-1
 694 -9 l 1,73,74
 687 -2 687 -2 674.5 15 c 128,-1,75
 662 32 662 32 652 49 c 128,-1,76
 642 66 642 66 640 73 c 1,77,78
 665 122 665 122 684 174 c 1,79,-1
 476 42 l 1,0,-1
EndSplineSet
Ligature2: "'cjct' Conjunct Forms in Khojki lookup 11 subtable" khakhoj halantkhoj rakhoj
EndChar

StartChar: kh_ra_iMatrakhoj
Encoding: 1114130 -1 44
Width: 942
GlyphClass: 2
Flags: W
AnchorPoint: "+BBEENQQ3BEsEPARPBD0EPQQ+BDUA--3" 438 600 basechar 0
AnchorPoint: "+BBEENQQ3BEsEPARPBD0EPQQ+BDUA--2" 717 13 basechar 0
AnchorPoint: "+BBEENQQ3BEsEPARPBD0EPQQ+BDUA--0" 1156 892 basechar 0
LayerCount: 2
Fore
SplineSet
476 42 m 1,0,-1
 404 97 l 1,1,-1
 404 104 l 1,2,-1
 717 289 l 1,3,4
 724 326 724 326 728 356 c 128,-1,5
 732 386 732 386 732 407 c 0,6,7
 732 423 732 423 730 433 c 1,8,9
 697 386 697 386 655 343 c 128,-1,10
 613 300 613 300 565.5 266.5 c 128,-1,11
 518 233 518 233 470.5 214 c 128,-1,12
 423 195 423 195 380 195 c 0,13,14
 334 195 334 195 290 216 c 128,-1,15
 246 237 246 237 215 268 c 0,16,17
 190 293 190 293 178.5 317 c 128,-1,18
 167 341 167 341 163 365 c 128,-1,19
 159 389 159 389 155 413 c 0,20,21
 150 447 150 447 141 465.5 c 128,-1,22
 132 484 132 484 112 484 c 0,23,24
 90 484 90 484 70.5 464.5 c 128,-1,25
 51 445 51 445 38 428 c 1,26,27
 0 457 0 457 0 491 c 0,28,29
 0 519 0 519 23.5 532.5 c 128,-1,30
 47 546 47 546 80 546 c 0,31,32
 111 546 111 546 136.5 535.5 c 128,-1,33
 162 525 162 525 183 509 c 0,34,35
 219 483 219 483 236 455 c 128,-1,36
 253 427 253 427 259.5 398 c 128,-1,37
 266 369 266 369 270 338 c 0,38,39
 275 306 275 306 286 285.5 c 128,-1,40
 297 265 297 265 333 265 c 0,41,42
 367 265 367 265 410 284 c 128,-1,43
 453 303 453 303 498 335 c 1,44,45
 480 397 480 397 466.5 432.5 c 128,-1,46
 453 468 453 468 442 485 c 128,-1,47
 431 502 431 502 421 507 c 128,-1,48
 411 512 411 512 399 512 c 0,49,50
 382 512 382 512 366 505.5 c 128,-1,51
 350 499 350 499 334 490 c 1,52,53
 324 504 324 504 316 521 c 128,-1,54
 308 538 308 538 308 554 c 0,55,56
 308 575 308 575 325.5 589 c 128,-1,57
 343 603 343 603 374 603 c 0,58,59
 407 603 407 603 434 583.5 c 128,-1,60
 461 564 461 564 485 512.5 c 128,-1,61
 509 461 509 461 535 364 c 1,62,63
 582 402 582 402 623.5 449.5 c 128,-1,64
 665 497 665 497 691 544 c 1,65,66
 714 531 714 531 736 512 c 128,-1,67
 758 493 758 493 774 472 c 1,68,69
 800 566 800 566 826.5 649 c 128,-1,70
 853 732 853 732 885 784 c 0,71,72
 919 840 919 840 967 867.5 c 128,-1,73
 1015 895 1015 895 1073 895 c 0,74,75
 1129 895 1129 895 1176 871 c 128,-1,76
 1223 847 1223 847 1257 809 c 1,77,-1
 1262 738 l 1,78,-1
 1253 736 l 1,79,80
 1222 771 1222 771 1182.5 792.5 c 128,-1,81
 1143 814 1143 814 1098 814 c 0,82,83
 1004 814 1004 814 949 717 c 0,84,85
 906 642 906 642 854 459 c 128,-1,86
 802 276 802 276 734 0 c 1,87,-1
 720 -2 l 1,88,-1
 661 46 l 1,89,90
 670 80 670 80 678 114 c 128,-1,91
 686 148 686 148 694 181 c 1,92,-1
 476 42 l 1,0,-1
EndSplineSet
Ligature2: "'cjct' Conjunct Forms in Khojki lookup 12 subtable" kh_rakhoj iMatrakhoj
EndChar

StartChar: kh_ra_iiMatrakhoj
Encoding: 1114131 -1 45
Width: 1152
GlyphClass: 2
Flags: W
AnchorPoint: "+BBEENQQ3BEsEPARPBD0EPQQ+BDUA--3" 438 600 basechar 0
AnchorPoint: "+BBEENQQ3BEsEPARPBD0EPQQ+BDUA--2" 717 13 basechar 0
AnchorPoint: "+BBEENQQ3BEsEPARPBD0EPQQ+BDUA--0" 1040 656 basechar 0
LayerCount: 2
Fore
SplineSet
476 42 m 1,0,-1
 404 97 l 1,1,-1
 404 104 l 1,2,-1
 717 289 l 1,3,4
 724 326 724 326 728 356 c 128,-1,5
 732 386 732 386 732 407 c 0,6,7
 732 423 732 423 730 433 c 1,8,9
 697 386 697 386 655 343 c 128,-1,10
 613 300 613 300 565.5 266.5 c 128,-1,11
 518 233 518 233 470.5 214 c 128,-1,12
 423 195 423 195 380 195 c 0,13,14
 334 195 334 195 290 216 c 128,-1,15
 246 237 246 237 215 268 c 0,16,17
 178 303 178 303 169 340 c 128,-1,18
 160 377 160 377 155 412 c 256,19,20
 150 447 150 447 141 465.5 c 128,-1,21
 132 484 132 484 111 484 c 0,22,23
 89 484 89 484 70 464.5 c 128,-1,24
 51 445 51 445 38 428 c 1,25,26
 0 457 0 457 0 491 c 0,27,28
 0 519 0 519 23.5 532.5 c 128,-1,29
 47 546 47 546 80 546 c 0,30,31
 111 546 111 546 136.5 535.5 c 128,-1,32
 162 525 162 525 183 509 c 0,33,34
 219 483 219 483 236 455 c 128,-1,35
 253 427 253 427 259.5 398 c 128,-1,36
 266 369 266 369 270 338 c 0,37,38
 275 306 275 306 286 285.5 c 128,-1,39
 297 265 297 265 333 265 c 0,40,41
 367 265 367 265 410 284 c 128,-1,42
 453 303 453 303 498 335 c 1,43,44
 480 397 480 397 466.5 432.5 c 128,-1,45
 453 468 453 468 442 485 c 128,-1,46
 431 502 431 502 421 507 c 128,-1,47
 411 512 411 512 399 512 c 0,48,49
 382 512 382 512 366 505.5 c 128,-1,50
 350 499 350 499 334 490 c 1,51,52
 324 504 324 504 316 521 c 128,-1,53
 308 538 308 538 308 554 c 0,54,55
 308 575 308 575 325.5 589 c 128,-1,56
 343 603 343 603 374 603 c 0,57,58
 407 603 407 603 434 583.5 c 128,-1,59
 461 564 461 564 485 512.5 c 128,-1,60
 509 461 509 461 535 364 c 1,61,62
 582 402 582 402 623.5 449.5 c 128,-1,63
 665 497 665 497 691 544 c 1,64,65
 715 530 715 530 738 509.5 c 128,-1,66
 761 489 761 489 778 467 c 1,67,68
 789 498 789 498 801 526.5 c 128,-1,69
 813 555 813 555 827 579 c 0,70,71
 847 616 847 616 871.5 638.5 c 128,-1,72
 896 661 896 661 924 661 c 0,73,74
 960 661 960 661 992.5 625.5 c 128,-1,75
 1025 590 1025 590 1045 527.5 c 128,-1,76
 1065 465 1065 465 1065 385 c 0,77,78
 1065 319 1065 319 1053 244 c 128,-1,79
 1041 169 1041 169 1029 94.5 c 128,-1,80
 1017 20 1017 20 1017 -46 c 0,81,82
 1017 -107 1017 -107 1032 -132.5 c 128,-1,83
 1047 -158 1047 -158 1081 -158 c 0,84,85
 1109 -158 1109 -158 1131 -145 c 128,-1,86
 1153 -132 1153 -132 1160 -114 c 1,87,88
 1184 -125 1184 -125 1204 -143.5 c 128,-1,89
 1224 -162 1224 -162 1222 -187 c 0,90,91
 1221 -212 1221 -212 1196 -226 c 128,-1,92
 1171 -240 1171 -240 1136 -240 c 0,93,94
 1078 -240 1078 -240 1032.5 -204.5 c 128,-1,95
 987 -169 987 -169 961 -109 c 128,-1,96
 935 -49 935 -49 935 26 c 0,97,98
 935 71 935 71 943 129 c 128,-1,99
 951 187 951 187 961.5 250 c 128,-1,100
 972 313 972 313 980 372.5 c 128,-1,101
 988 432 988 432 988 480 c 0,102,103
 988 503 988 503 985 525.5 c 128,-1,104
 982 548 982 548 974 563 c 128,-1,105
 966 578 966 578 950 578 c 0,106,107
 921 578 921 578 892 524 c 128,-1,108
 863 470 863 470 836 387 c 0,109,110
 819 335 819 335 804 279 c 128,-1,111
 789 223 789 223 772.5 156 c 128,-1,112
 756 89 756 89 734 0 c 1,113,-1
 720 -2 l 1,114,-1
 661 46 l 1,115,116
 670 80 670 80 678 114 c 128,-1,117
 686 148 686 148 694 181 c 1,118,-1
 476 42 l 1,0,-1
EndSplineSet
Ligature2: "'cjct' Conjunct Forms in Khojki lookup 13 subtable" kh_rakhoj iiMatrakhoj
EndChar

StartChar: kh_ra_uMatrakhoj
Encoding: 1114132 -1 46
Width: 924
GlyphClass: 2
Flags: W
AnchorPoint: "+BBEENQQ3BEsEPARPBD0EPQQ+BDUA--3" 463 600 basechar 0
AnchorPoint: "+BBEENQQ3BEsEPARPBD0EPQQ+BDUA--2" 654 -201 basechar 0
AnchorPoint: "+BBEENQQ3BEsEPARPBD0EPQQ+BDUA--0" 817 536 basechar 0
LayerCount: 2
Fore
SplineSet
501 42 m 1,0,-1
 429 97 l 1,1,-1
 429 104 l 1,2,-1
 745 291 l 1,3,4
 751 326 751 326 754 363 c 128,-1,5
 757 400 757 400 758 439 c 1,6,7
 726 390 726 390 683.5 346.5 c 128,-1,8
 641 303 641 303 593 268.5 c 128,-1,9
 545 234 545 234 497 214.5 c 128,-1,10
 449 195 449 195 405 195 c 0,11,12
 359 195 359 195 315 216 c 128,-1,13
 271 237 271 237 240 268 c 0,14,15
 203 303 203 303 194 340 c 128,-1,16
 185 377 185 377 180 412 c 256,17,18
 175 447 175 447 166 465.5 c 128,-1,19
 157 484 157 484 136 484 c 0,20,21
 114 484 114 484 95 464.5 c 128,-1,22
 76 445 76 445 63 428 c 1,23,24
 25 457 25 457 25 491 c 0,25,26
 25 519 25 519 48.5 532.5 c 128,-1,27
 72 546 72 546 105 546 c 0,28,29
 136 546 136 546 161.5 535.5 c 128,-1,30
 187 525 187 525 208 509 c 0,31,32
 244 483 244 483 261 455 c 128,-1,33
 278 427 278 427 284.5 398 c 128,-1,34
 291 369 291 369 295 338 c 0,35,36
 300 306 300 306 311 285.5 c 128,-1,37
 322 265 322 265 358 265 c 0,38,39
 392 265 392 265 435 284 c 128,-1,40
 478 303 478 303 523 335 c 1,41,42
 505 397 505 397 491.5 432.5 c 128,-1,43
 478 468 478 468 467 485 c 128,-1,44
 456 502 456 502 446 507 c 128,-1,45
 436 512 436 512 424 512 c 0,46,47
 407 512 407 512 391 505.5 c 128,-1,48
 375 499 375 499 359 490 c 1,49,50
 349 504 349 504 341 521 c 128,-1,51
 333 538 333 538 333 554 c 0,52,53
 333 575 333 575 350.5 589 c 128,-1,54
 368 603 368 603 399 603 c 0,55,56
 432 603 432 603 459 583.5 c 128,-1,57
 486 564 486 564 510 512.5 c 128,-1,58
 534 461 534 461 560 364 c 1,59,60
 607 402 607 402 648.5 449.5 c 128,-1,61
 690 497 690 497 716 544 c 1,62,63
 744 531 744 531 772.5 506 c 128,-1,64
 801 481 801 481 820 450 c 1,65,66
 821 440 821 440 821 429 c 128,-1,67
 821 418 821 418 821 407 c 0,68,69
 821 330 821 330 810 254 c 128,-1,70
 799 178 799 178 781 111 c 1,71,72
 831 94 831 94 867.5 54.5 c 128,-1,73
 904 15 904 15 904 -38 c 0,74,75
 904 -80 904 -80 877.5 -117.5 c 128,-1,76
 851 -155 851 -155 797.5 -178 c 128,-1,77
 744 -201 744 -201 664 -201 c 0,78,79
 578 -201 578 -201 498 -174 c 128,-1,80
 418 -147 418 -147 348.5 -102 c 128,-1,81
 279 -57 279 -57 223.5 -2 c 128,-1,82
 168 53 168 53 132 110 c 1,83,-1
 143 165 l 1,84,-1
 152 168 l 1,85,86
 189 114 189 114 239.5 63.5 c 128,-1,87
 290 13 290 13 352 -27 c 128,-1,88
 414 -67 414 -67 485.5 -90.5 c 128,-1,89
 557 -114 557 -114 636 -114 c 0,90,91
 728 -114 728 -114 781.5 -81.5 c 128,-1,92
 835 -49 835 -49 835 3 c 0,93,94
 835 26 835 26 824.5 38.5 c 128,-1,95
 814 51 814 51 797 51 c 0,96,97
 776 51 776 51 754 33.5 c 128,-1,98
 732 16 732 16 706 -16 c 1,99,100
 693 -10 693 -10 670.5 7.5 c 128,-1,101
 648 25 648 25 635 43 c 1,102,103
 663 75 663 75 682.5 109 c 128,-1,104
 702 143 702 143 715 178 c 1,105,-1
 501 42 l 1,0,-1
EndSplineSet
Ligature2: "'cjct' Conjunct Forms in Khojki lookup 14 subtable" kh_rakhoj uMatrakhoj
EndChar

StartChar: gakhoj
Encoding: 70154 70154 47
Width: 673
GlyphClass: 2
Flags: W
AnchorPoint: "+BBEENQQ3BEsEPARPBD0EPQQ+BDUA--3" 301 580 basechar 0
AnchorPoint: "+BBEENQQ3BEsEPARPBD0EPQQ+BDUA--2" 536 11 basechar 0
AnchorPoint: "+BBEENQQ3BEsEPARPBD0EPQQ+BDUA--0" 583 600 basechar 0
LayerCount: 2
Fore
SplineSet
529 -9 m 1,0,1
 524 -4 524 -4 514 9.5 c 128,-1,2
 504 23 504 23 493.5 38.5 c 128,-1,3
 483 54 483 54 475.5 67.5 c 128,-1,4
 468 81 468 81 467 86 c 0,5,6
 485 132 485 132 501.5 187.5 c 128,-1,7
 518 243 518 243 529 299 c 128,-1,8
 540 355 540 355 540 404 c 0,9,10
 540 457 540 457 523 483 c 128,-1,11
 506 509 506 509 464 509 c 0,12,13
 437 509 437 509 401 498 c 1,14,15
 386 511 386 511 367 532 c 128,-1,16
 348 553 348 553 336 569 c 1,17,-1
 337 575 l 1,18,19
 354 585 354 585 379 592.5 c 128,-1,20
 404 600 404 600 426 600 c 0,21,22
 472 600 472 600 513.5 567.5 c 128,-1,23
 555 535 555 535 581.5 476.5 c 128,-1,24
 608 418 608 418 608 339 c 0,25,26
 608 305 608 305 603.5 260.5 c 128,-1,27
 599 216 599 216 591 168 c 128,-1,28
 583 120 583 120 573.5 76 c 128,-1,29
 564 32 564 32 554 0 c 1,30,-1
 529 -9 l 1,0,1
243 122 m 0,31,32
 185 122 185 122 137.5 163 c 128,-1,33
 90 204 90 204 58 278 c 1,34,-1
 80 303 l 1,35,36
 118 256 118 256 148.5 237 c 128,-1,37
 179 218 179 218 213 218 c 0,38,39
 246 218 246 218 273.5 233 c 128,-1,40
 301 248 301 248 317 273 c 128,-1,41
 333 298 333 298 333 328 c 256,42,43
 333 358 333 358 314 385 c 128,-1,44
 295 412 295 412 251 412 c 0,45,46
 231 412 231 412 201.5 406.5 c 128,-1,47
 172 401 172 401 145.5 395 c 128,-1,48
 119 389 119 389 107 389 c 0,49,50
 94 389 94 389 89 396.5 c 128,-1,51
 84 404 84 404 81 409 c 2,52,-1
 30 510 l 1,53,-1
 61 520 l 1,54,-1
 74 496 l 2,55,56
 81 483 81 483 93 483 c 0,57,58
 102 483 102 483 124 487.5 c 128,-1,59
 146 492 146 492 170.5 496.5 c 128,-1,60
 195 501 195 501 210 501 c 0,61,62
 235 501 235 501 267 486 c 128,-1,63
 299 471 299 471 329.5 443 c 128,-1,64
 360 415 360 415 380 376.5 c 128,-1,65
 400 338 400 338 400 291 c 0,66,67
 400 246 400 246 379.5 207.5 c 128,-1,68
 359 169 359 169 323.5 145.5 c 128,-1,69
 288 122 288 122 243 122 c 0,31,32
EndSplineSet
EndChar

StartChar: ga_iMatrakhoj
Encoding: 1114133 -1 48
Width: 842
GlyphClass: 2
Flags: W
AnchorPoint: "+BBEENQQ3BEsEPARPBD0EPQQ+BDUA--3" 296 580 basechar 0
AnchorPoint: "+BBEENQQ3BEsEPARPBD0EPQQ+BDUA--2" 531 11 basechar 0
AnchorPoint: "+BBEENQQ3BEsEPARPBD0EPQQ+BDUA--0" 1056 892 basechar 0
LayerCount: 2
Fore
SplineSet
579 -4 m 1,0,-1
 515 49 l 1,1,2
 520 91 520 91 525.5 143 c 128,-1,3
 531 195 531 195 535 251 c 128,-1,4
 539 307 539 307 539 359 c 0,5,6
 539 404 539 404 533.5 437.5 c 128,-1,7
 528 471 528 471 511 490 c 128,-1,8
 494 509 494 509 458 509 c 0,9,10
 432 509 432 509 396 498 c 1,11,12
 381 511 381 511 362 532 c 128,-1,13
 343 553 343 553 331 569 c 1,14,-1
 332 575 l 1,15,16
 349 585 349 585 374.5 592.5 c 128,-1,17
 400 600 400 600 422 600 c 0,18,19
 457 600 457 600 490 581 c 128,-1,20
 523 562 523 562 548.5 528 c 128,-1,21
 574 494 574 494 585 449 c 0,22,23
 593 419 593 419 596.5 372.5 c 128,-1,24
 600 326 600 326 598 278 c 1,25,26
 620 356 620 356 644 432.5 c 128,-1,27
 668 509 668 509 692.5 578.5 c 128,-1,28
 717 648 717 648 741.5 703 c 128,-1,29
 766 758 766 758 789 792 c 0,30,31
 823 842 823 842 869 868.5 c 128,-1,32
 915 895 915 895 973 895 c 0,33,34
 1029 895 1029 895 1076 871 c 128,-1,35
 1123 847 1123 847 1157 809 c 1,36,-1
 1162 738 l 1,37,-1
 1153 736 l 1,38,39
 1122 771 1122 771 1082.5 792.5 c 128,-1,40
 1043 814 1043 814 997 814 c 0,41,42
 908 814 908 814 847 717 c 0,43,44
 817 669 817 669 785.5 592.5 c 128,-1,45
 754 516 754 516 721.5 420.5 c 128,-1,46
 689 325 689 325 656.5 217.5 c 128,-1,47
 624 110 624 110 592 -1 c 1,48,-1
 579 -4 l 1,0,-1
243 122 m 0,49,50
 185 122 185 122 137.5 163 c 128,-1,51
 90 204 90 204 58 278 c 1,52,-1
 80 303 l 1,53,54
 118 256 118 256 148.5 237 c 128,-1,55
 179 218 179 218 213 218 c 0,56,57
 246 218 246 218 273.5 233 c 128,-1,58
 301 248 301 248 317 273 c 128,-1,59
 333 298 333 298 333 328 c 256,60,61
 333 358 333 358 314 385 c 128,-1,62
 295 412 295 412 251 412 c 0,63,64
 231 412 231 412 201.5 406.5 c 128,-1,65
 172 401 172 401 145.5 395 c 128,-1,66
 119 389 119 389 107 389 c 0,67,68
 94 389 94 389 89 396.5 c 128,-1,69
 84 404 84 404 81 409 c 2,70,-1
 30 510 l 1,71,-1
 61 520 l 1,72,-1
 74 496 l 2,73,74
 81 483 81 483 93 483 c 0,75,76
 102 483 102 483 124 487.5 c 128,-1,77
 146 492 146 492 170.5 496.5 c 128,-1,78
 195 501 195 501 210 501 c 0,79,80
 235 501 235 501 267 486 c 128,-1,81
 299 471 299 471 329.5 443 c 128,-1,82
 360 415 360 415 380 376.5 c 128,-1,83
 400 338 400 338 400 291 c 0,84,85
 400 246 400 246 379.5 207.5 c 128,-1,86
 359 169 359 169 323.5 145.5 c 128,-1,87
 288 122 288 122 243 122 c 0,49,50
EndSplineSet
Ligature2: "'cjct' Conjunct Forms in Khojki lookup 12 subtable" gakhoj iMatrakhoj
EndChar

StartChar: ga_iiMatrakhoj
Encoding: 1114134 -1 49
Width: 1043
GlyphClass: 2
Flags: W
AnchorPoint: "+BBEENQQ3BEsEPARPBD0EPQQ+BDUA--3" 296 580 basechar 0
AnchorPoint: "+BBEENQQ3BEsEPARPBD0EPQQ+BDUA--2" 531 11 basechar 0
AnchorPoint: "+BBEENQQ3BEsEPARPBD0EPQQ+BDUA--0" 926 656 basechar 0
LayerCount: 2
Fore
SplineSet
1027 -240 m 0,0,1
 971 -240 971 -240 925 -206 c 128,-1,2
 879 -172 879 -172 852.5 -111.5 c 128,-1,3
 826 -51 826 -51 826 28 c 0,4,5
 826 72 826 72 833 129.5 c 128,-1,6
 840 187 840 187 849.5 250 c 128,-1,7
 859 313 859 313 866 373.5 c 128,-1,8
 873 434 873 434 873 482 c 0,9,10
 873 505 873 505 870.5 527 c 128,-1,11
 868 549 868 549 861 563.5 c 128,-1,12
 854 578 854 578 840 578 c 0,13,14
 823 578 823 578 802.5 550 c 128,-1,15
 782 522 782 522 760 472 c 0,16,17
 744 436 744 436 722 377.5 c 128,-1,18
 700 319 700 319 675.5 250.5 c 128,-1,19
 651 182 651 182 629 116 c 128,-1,20
 607 50 607 50 592 -1 c 1,21,-1
 579 -4 l 1,22,-1
 515 49 l 1,23,24
 520 91 520 91 525.5 143 c 128,-1,25
 531 195 531 195 535 251 c 128,-1,26
 539 307 539 307 539 359 c 0,27,28
 539 404 539 404 533.5 437.5 c 128,-1,29
 528 471 528 471 511 490 c 128,-1,30
 494 509 494 509 458 509 c 0,31,32
 432 509 432 509 396 498 c 1,33,34
 381 511 381 511 362 532 c 128,-1,35
 343 553 343 553 331 569 c 1,36,-1
 332 575 l 1,37,38
 349 585 349 585 374.5 592.5 c 128,-1,39
 400 600 400 600 422 600 c 0,40,41
 457 600 457 600 490 581 c 128,-1,42
 523 562 523 562 548.5 528 c 128,-1,43
 574 494 574 494 585 449 c 0,44,45
 594 417 594 417 597 365.5 c 128,-1,46
 600 314 600 314 598 262 c 1,47,48
 625 347 625 347 652 423 c 128,-1,49
 679 499 679 499 702 549 c 0,50,51
 729 608 729 608 756.5 634.5 c 128,-1,52
 784 661 784 661 812 661 c 0,53,54
 849 661 849 661 880.5 626 c 128,-1,55
 912 591 912 591 931.5 529 c 128,-1,56
 951 467 951 467 951 385 c 0,57,58
 951 319 951 319 940.5 243.5 c 128,-1,59
 930 168 930 168 919 93.5 c 128,-1,60
 908 19 908 19 908 -45 c 0,61,62
 908 -106 908 -106 923 -132 c 128,-1,63
 938 -158 938 -158 972 -158 c 0,64,65
 1000 -158 1000 -158 1022 -145 c 128,-1,66
 1044 -132 1044 -132 1051 -114 c 1,67,68
 1075 -125 1075 -125 1095 -143.5 c 128,-1,69
 1115 -162 1115 -162 1113 -187 c 0,70,71
 1112 -212 1112 -212 1087 -226 c 128,-1,72
 1062 -240 1062 -240 1027 -240 c 0,0,1
243 122 m 0,73,74
 185 122 185 122 137.5 163 c 128,-1,75
 90 204 90 204 58 278 c 1,76,-1
 80 303 l 1,77,78
 118 256 118 256 148.5 237 c 128,-1,79
 179 218 179 218 213 218 c 0,80,81
 246 218 246 218 273.5 233 c 128,-1,82
 301 248 301 248 317 273 c 128,-1,83
 333 298 333 298 333 328 c 256,84,85
 333 358 333 358 314 385 c 128,-1,86
 295 412 295 412 251 412 c 0,87,88
 231 412 231 412 201.5 406.5 c 128,-1,89
 172 401 172 401 145.5 395 c 128,-1,90
 119 389 119 389 107 389 c 0,91,92
 94 389 94 389 89 396.5 c 128,-1,93
 84 404 84 404 81 409 c 2,94,-1
 30 510 l 1,95,-1
 61 520 l 1,96,-1
 74 496 l 2,97,98
 81 483 81 483 93 483 c 0,99,100
 102 483 102 483 124 487.5 c 128,-1,101
 146 492 146 492 170.5 496.5 c 128,-1,102
 195 501 195 501 210 501 c 0,103,104
 235 501 235 501 267 486 c 128,-1,105
 299 471 299 471 329.5 443 c 128,-1,106
 360 415 360 415 380 376.5 c 128,-1,107
 400 338 400 338 400 291 c 0,108,109
 400 246 400 246 379.5 207.5 c 128,-1,110
 359 169 359 169 323.5 145.5 c 128,-1,111
 288 122 288 122 243 122 c 0,73,74
EndSplineSet
Ligature2: "'cjct' Conjunct Forms in Khojki lookup 13 subtable" gakhoj iiMatrakhoj
EndChar

StartChar: ga_uMatrakhoj
Encoding: 1114135 -1 50
Width: 720
GlyphClass: 2
Flags: W
AnchorPoint: "+BBEENQQ3BEsEPARPBD0EPQQ+BDUA--3" 349 580 basechar 0
AnchorPoint: "+BBEENQQ3BEsEPARPBD0EPQQ+BDUA--2" 418 -121 basechar 0
AnchorPoint: "+BBEENQQ3BEsEPARPBD0EPQQ+BDUA--0" 610 600 basechar 0
LayerCount: 2
Fore
SplineSet
338 -123 m 0,0,1
 273 -123 273 -123 214 -98 c 128,-1,2
 155 -73 155 -73 108 -31 c 128,-1,3
 61 11 61 11 30 61 c 1,4,-1
 36 118 l 1,5,-1
 42 120 l 1,6,7
 89 49 89 49 158 6 c 128,-1,8
 227 -37 227 -37 301 -37 c 0,9,10
 362 -37 362 -37 414.5 -6 c 128,-1,11
 467 25 467 25 506.5 80 c 128,-1,12
 546 135 546 135 568 209 c 128,-1,13
 590 283 590 283 590 369 c 0,14,15
 590 408 590 408 584 439.5 c 128,-1,16
 578 471 578 471 560.5 490 c 128,-1,17
 543 509 543 509 508 509 c 0,18,19
 480 509 480 509 444 498 c 1,20,21
 429 511 429 511 410 532 c 128,-1,22
 391 553 391 553 379 569 c 1,23,-1
 380 575 l 1,24,25
 397 585 397 585 422 592.5 c 128,-1,26
 447 600 447 600 469 600 c 0,27,28
 509 600 509 600 546 575.5 c 128,-1,29
 583 551 583 551 609 507 c 0,30,31
 631 470 631 470 643 420.5 c 128,-1,32
 655 371 655 371 655 306 c 0,33,34
 655 227 655 227 634.5 151 c 128,-1,35
 614 75 614 75 574 13 c 128,-1,36
 534 -49 534 -49 474.5 -86 c 128,-1,37
 415 -123 415 -123 338 -123 c 0,0,1
286 122 m 0,38,39
 228 122 228 122 180.5 163 c 128,-1,40
 133 204 133 204 101 278 c 1,41,-1
 123 303 l 1,42,43
 161 256 161 256 191.5 237 c 128,-1,44
 222 218 222 218 256 218 c 0,45,46
 289 218 289 218 316.5 233 c 128,-1,47
 344 248 344 248 360 273 c 128,-1,48
 376 298 376 298 376 328 c 256,49,50
 376 358 376 358 357 385 c 128,-1,51
 338 412 338 412 294 412 c 0,52,53
 274 412 274 412 244.5 406.5 c 128,-1,54
 215 401 215 401 188.5 395 c 128,-1,55
 162 389 162 389 150 389 c 0,56,57
 137 389 137 389 132 396.5 c 128,-1,58
 127 404 127 404 124 409 c 2,59,-1
 73 510 l 1,60,-1
 104 520 l 1,61,-1
 117 496 l 2,62,63
 124 483 124 483 136 483 c 0,64,65
 145 483 145 483 167 487.5 c 128,-1,66
 189 492 189 492 213.5 496.5 c 128,-1,67
 238 501 238 501 253 501 c 0,68,69
 278 501 278 501 310 486 c 128,-1,70
 342 471 342 471 372.5 443 c 128,-1,71
 403 415 403 415 423 376.5 c 128,-1,72
 443 338 443 338 443 291 c 0,73,74
 443 246 443 246 422.5 207.5 c 128,-1,75
 402 169 402 169 366.5 145.5 c 128,-1,76
 331 122 331 122 286 122 c 0,38,39
EndSplineSet
Ligature2: "'cjct' Conjunct Forms in Khojki lookup 14 subtable" gakhoj uMatrakhoj
EndChar

StartChar: g_nakhoj
Encoding: 1114140 -1 55
Width: 658
GlyphClass: 3
Flags: W
LayerCount: 2
Fore
SplineSet
229 246 m 0,0,1
 177 246 177 246 133 283.5 c 128,-1,2
 89 321 89 321 60 391 c 1,3,-1
 84 416 l 1,4,5
 122 370 122 370 149 354 c 128,-1,6
 176 338 176 338 204 338 c 0,7,8
 248 338 248 338 278.5 366.5 c 128,-1,9
 309 395 309 395 309 435 c 0,10,11
 309 462 309 462 292 484.5 c 128,-1,12
 275 507 275 507 240 507 c 0,13,14
 223 507 223 507 196 502 c 128,-1,15
 169 497 169 497 145 492 c 128,-1,16
 121 487 121 487 110 487 c 0,17,18
 92 487 92 487 82 506 c 2,19,-1
 40 591 l 1,20,-1
 72 602 l 1,21,22
 80 588 80 588 85 582.5 c 128,-1,23
 90 577 90 577 98 577 c 0,24,25
 107 577 107 577 127.5 581 c 128,-1,26
 148 585 148 585 169.5 589 c 128,-1,27
 191 593 191 593 203 593 c 0,28,29
 224 593 224 593 253 579 c 128,-1,30
 282 565 282 565 309.5 539.5 c 128,-1,31
 337 514 337 514 355.5 479 c 128,-1,32
 374 444 374 444 374 401 c 0,33,34
 374 359 374 359 355 323.5 c 128,-1,35
 336 288 336 288 303 267 c 128,-1,36
 270 246 270 246 229 246 c 0,0,1
255 -104 m 0,37,38
 214 -104 214 -104 177.5 -83 c 128,-1,39
 141 -62 141 -62 118.5 -28.5 c 128,-1,40
 96 5 96 5 96 44 c 0,41,42
 96 85 96 85 121 112 c 128,-1,43
 146 139 146 139 185 157.5 c 128,-1,44
 224 176 224 176 264 191 c 2,45,-1
 489 275 l 1,46,47
 491 308 491 308 491 340 c 0,48,49
 491 408 491 408 482.5 472.5 c 128,-1,50
 474 537 474 537 459 600 c 1,51,-1
 535 600 l 1,52,53
 553 536 553 536 563 454.5 c 128,-1,54
 573 373 573 373 573 293 c 0,55,56
 573 217 573 217 564.5 140 c 128,-1,57
 556 63 556 63 539 0 c 1,58,-1
 515 -9 l 1,59,60
 508 -2 508 -2 495 17.5 c 128,-1,61
 482 37 482 37 471.5 57 c 128,-1,62
 461 77 461 77 459 83 c 0,63,64
 472 132 472 132 480 185 c 1,65,-1
 329 129 l 1,66,-1
 328 129 l 1,67,68
 355 109 355 109 372 82.5 c 128,-1,69
 389 56 389 56 389 24 c 0,70,71
 389 -11 389 -11 371 -40 c 128,-1,72
 353 -69 353 -69 323 -86.5 c 128,-1,73
 293 -104 293 -104 255 -104 c 0,37,38
169 16 m 0,74,75
 169 -4 169 -4 184 -19 c 128,-1,76
 199 -34 199 -34 224 -34 c 0,77,78
 246 -34 246 -34 267 -22.5 c 128,-1,79
 288 -11 288 -11 301.5 8.5 c 128,-1,80
 315 28 315 28 315 51 c 0,81,82
 315 87 315 87 282 111 c 1,83,84
 237 93 237 93 203 70.5 c 128,-1,85
 169 48 169 48 169 16 c 0,74,75
EndSplineSet
Ligature2: "'cjct' Conjunct Forms in Khojki lookup 9 subtable" jakhoj halantkhoj nyakhoj
Ligature2: "'cjct' Conjunct Forms in Khojki lookup 9 subtable" gakhoj halantkhoj nakhoj
EndChar

StartChar: g_na_iMatrakhoj
Encoding: 1114141 -1 56
Width: 810
GlyphClass: 3
Flags: W
LayerCount: 2
Fore
SplineSet
255 -104 m 0,0,1
 214 -104 214 -104 177.5 -83 c 128,-1,2
 141 -62 141 -62 118.5 -28.5 c 128,-1,3
 96 5 96 5 96 44 c 0,4,5
 96 85 96 85 121 112 c 128,-1,6
 146 139 146 139 185 157.5 c 128,-1,7
 224 176 224 176 264 191 c 2,8,-1
 495 277 l 1,9,-1
 495 280 l 2,10,11
 495 363 495 363 487 442.5 c 128,-1,12
 479 522 479 522 459 600 c 1,13,-1
 534 600 l 1,14,15
 550 534 550 534 558.5 455 c 128,-1,16
 567 376 567 376 567 303 c 0,17,18
 567 291 567 291 567 280 c 1,19,20
 589 357 589 357 612.5 433.5 c 128,-1,21
 636 510 636 510 660.5 579 c 128,-1,22
 685 648 685 648 709.5 703 c 128,-1,23
 734 758 734 758 757 792 c 0,24,25
 791 842 791 842 837 868.5 c 128,-1,26
 883 895 883 895 941 895 c 0,27,28
 997 895 997 895 1044 871 c 128,-1,29
 1091 847 1091 847 1125 809 c 1,30,-1
 1130 738 l 1,31,-1
 1121 736 l 1,32,33
 1090 771 1090 771 1050.5 792.5 c 128,-1,34
 1011 814 1011 814 965 814 c 0,35,36
 876 814 876 814 815 717 c 0,37,38
 785 669 785 669 753.5 592.5 c 128,-1,39
 722 516 722 516 689.5 420.5 c 128,-1,40
 657 325 657 325 624.5 217.5 c 128,-1,41
 592 110 592 110 560 -1 c 1,42,-1
 547 -4 l 1,43,-1
 485 48 l 1,44,45
 488 85 488 85 490 120.5 c 128,-1,46
 492 156 492 156 493 190 c 1,47,-1
 329 129 l 1,48,-1
 328 129 l 1,49,50
 355 109 355 109 372 82.5 c 128,-1,51
 389 56 389 56 389 24 c 0,52,53
 389 -11 389 -11 371 -40 c 128,-1,54
 353 -69 353 -69 323 -86.5 c 128,-1,55
 293 -104 293 -104 255 -104 c 0,0,1
229 246 m 0,56,57
 177 246 177 246 133 283.5 c 128,-1,58
 89 321 89 321 60 391 c 1,59,-1
 84 416 l 1,60,61
 122 370 122 370 149 354 c 128,-1,62
 176 338 176 338 204 338 c 0,63,64
 248 338 248 338 278.5 366.5 c 128,-1,65
 309 395 309 395 309 435 c 0,66,67
 309 462 309 462 292 484.5 c 128,-1,68
 275 507 275 507 240 507 c 0,69,70
 223 507 223 507 196 502 c 128,-1,71
 169 497 169 497 145 492 c 128,-1,72
 121 487 121 487 110 487 c 0,73,74
 92 487 92 487 82 506 c 2,75,-1
 40 591 l 1,76,-1
 72 602 l 1,77,78
 80 588 80 588 85 582.5 c 128,-1,79
 90 577 90 577 98 577 c 0,80,81
 107 577 107 577 127.5 581 c 128,-1,82
 148 585 148 585 169.5 589 c 128,-1,83
 191 593 191 593 203 593 c 0,84,85
 224 593 224 593 253 579 c 128,-1,86
 282 565 282 565 309.5 539.5 c 128,-1,87
 337 514 337 514 355.5 479 c 128,-1,88
 374 444 374 444 374 401 c 0,89,90
 374 359 374 359 355 323.5 c 128,-1,91
 336 288 336 288 303 267 c 128,-1,92
 270 246 270 246 229 246 c 0,56,57
169 16 m 0,93,94
 169 -4 169 -4 184 -19 c 128,-1,95
 199 -34 199 -34 224 -34 c 0,96,97
 246 -34 246 -34 267 -22.5 c 128,-1,98
 288 -11 288 -11 301.5 8.5 c 128,-1,99
 315 28 315 28 315 51 c 0,100,101
 315 87 315 87 282 111 c 1,102,103
 237 93 237 93 203 70.5 c 128,-1,104
 169 48 169 48 169 16 c 0,93,94
EndSplineSet
Ligature2: "'cjct' Conjunct Forms in Khojki lookup 12 subtable" g_nakhoj iMatrakhoj
EndChar

StartChar: g_na_iiMatrakhoj
Encoding: 1114142 -1 57
Width: 1011
GlyphClass: 3
Flags: W
LayerCount: 2
Fore
SplineSet
255 -104 m 0,0,1
 214 -104 214 -104 177.5 -83 c 128,-1,2
 141 -62 141 -62 118.5 -28.5 c 128,-1,3
 96 5 96 5 96 44 c 0,4,5
 96 85 96 85 121 112 c 128,-1,6
 146 139 146 139 185 157.5 c 128,-1,7
 224 176 224 176 264 191 c 2,8,-1
 495 277 l 1,9,-1
 495 280 l 2,10,11
 495 363 495 363 487 442.5 c 128,-1,12
 479 522 479 522 459 600 c 1,13,-1
 534 600 l 1,14,15
 550 534 550 534 558.5 454.5 c 128,-1,16
 567 375 567 375 567 298 c 0,17,18
 567 282 567 282 566 264 c 1,19,20
 592 344 592 344 619 419.5 c 128,-1,21
 646 495 646 495 670 549 c 0,22,23
 697 608 697 608 724.5 634.5 c 128,-1,24
 752 661 752 661 780 661 c 0,25,26
 812 661 812 661 837.5 637.5 c 128,-1,27
 863 614 863 614 881.5 574.5 c 128,-1,28
 900 535 900 535 909.5 488.5 c 128,-1,29
 919 442 919 442 919 395 c 0,30,31
 919 316 919 316 908.5 242 c 128,-1,32
 898 168 898 168 887 95 c 128,-1,33
 876 22 876 22 876 -54 c 0,34,35
 876 -109 876 -109 891.5 -133.5 c 128,-1,36
 907 -158 907 -158 940 -158 c 0,37,38
 968 -158 968 -158 990 -145 c 128,-1,39
 1012 -132 1012 -132 1019 -114 c 1,40,41
 1043 -125 1043 -125 1063 -143.5 c 128,-1,42
 1083 -162 1083 -162 1081 -187 c 0,43,44
 1080 -212 1080 -212 1055 -226 c 128,-1,45
 1030 -240 1030 -240 1000 -240 c 0,46,47
 949 -240 949 -240 910 -217.5 c 128,-1,48
 871 -195 871 -195 845.5 -157 c 128,-1,49
 820 -119 820 -119 807 -71 c 128,-1,50
 794 -23 794 -23 794 27 c 0,51,52
 794 71 794 71 801 129 c 128,-1,53
 808 187 808 187 817.5 250 c 128,-1,54
 827 313 827 313 834 373 c 128,-1,55
 841 433 841 433 841 482 c 0,56,57
 841 504 841 504 838.5 526 c 128,-1,58
 836 548 836 548 829 563 c 128,-1,59
 822 578 822 578 809 578 c 0,60,61
 791 578 791 578 770.5 550 c 128,-1,62
 750 522 750 522 728 472 c 0,63,64
 710 432 710 432 687.5 371.5 c 128,-1,65
 665 311 665 311 641 243.5 c 128,-1,66
 617 176 617 176 595.5 111.5 c 128,-1,67
 574 47 574 47 560 -1 c 1,68,-1
 547 -4 l 1,69,-1
 485 48 l 1,70,71
 488 85 488 85 490 120.5 c 128,-1,72
 492 156 492 156 493 190 c 1,73,-1
 329 129 l 1,74,-1
 328 129 l 1,75,76
 355 109 355 109 372 82.5 c 128,-1,77
 389 56 389 56 389 24 c 0,78,79
 389 -11 389 -11 371 -40 c 128,-1,80
 353 -69 353 -69 323 -86.5 c 128,-1,81
 293 -104 293 -104 255 -104 c 0,0,1
229 246 m 0,82,83
 177 246 177 246 133 283.5 c 128,-1,84
 89 321 89 321 60 391 c 1,85,-1
 84 416 l 1,86,87
 122 370 122 370 149 354 c 128,-1,88
 176 338 176 338 204 338 c 0,89,90
 248 338 248 338 278.5 366.5 c 128,-1,91
 309 395 309 395 309 435 c 0,92,93
 309 462 309 462 292 484.5 c 128,-1,94
 275 507 275 507 240 507 c 0,95,96
 223 507 223 507 196 502 c 128,-1,97
 169 497 169 497 145 492 c 128,-1,98
 121 487 121 487 110 487 c 0,99,100
 92 487 92 487 82 506 c 2,101,-1
 40 591 l 1,102,-1
 72 602 l 1,103,104
 80 588 80 588 85 582.5 c 128,-1,105
 90 577 90 577 98 577 c 0,106,107
 107 577 107 577 127.5 581 c 128,-1,108
 148 585 148 585 169.5 589 c 128,-1,109
 191 593 191 593 203 593 c 0,110,111
 224 593 224 593 253 579 c 128,-1,112
 282 565 282 565 309.5 539.5 c 128,-1,113
 337 514 337 514 355.5 479 c 128,-1,114
 374 444 374 444 374 401 c 0,115,116
 374 359 374 359 355 323.5 c 128,-1,117
 336 288 336 288 303 267 c 128,-1,118
 270 246 270 246 229 246 c 0,82,83
169 16 m 0,119,120
 169 -4 169 -4 184 -19 c 128,-1,121
 199 -34 199 -34 224 -34 c 0,122,123
 246 -34 246 -34 267 -22.5 c 128,-1,124
 288 -11 288 -11 301.5 8.5 c 128,-1,125
 315 28 315 28 315 51 c 0,126,127
 315 87 315 87 282 111 c 1,128,129
 237 93 237 93 203 70.5 c 128,-1,130
 169 48 169 48 169 16 c 0,119,120
EndSplineSet
Ligature2: "'cjct' Conjunct Forms in Khojki lookup 13 subtable" g_nakhoj iiMatrakhoj
EndChar

StartChar: g_na_uMatrakhoj
Encoding: 1114143 -1 58
Width: 691
GlyphClass: 3
Flags: W
LayerCount: 2
Fore
SplineSet
254 246 m 0,0,1
 202 246 202 246 158 283.5 c 128,-1,2
 114 321 114 321 85 391 c 1,3,-1
 109 416 l 1,4,5
 147 370 147 370 174 354 c 128,-1,6
 201 338 201 338 229 338 c 0,7,8
 273 338 273 338 303.5 366.5 c 128,-1,9
 334 395 334 395 334 435 c 0,10,11
 334 462 334 462 317 484.5 c 128,-1,12
 300 507 300 507 265 507 c 0,13,14
 248 507 248 507 221 502 c 128,-1,15
 194 497 194 497 170 492 c 128,-1,16
 146 487 146 487 135 487 c 0,17,18
 117 487 117 487 107 506 c 2,19,-1
 65 591 l 1,20,-1
 97 602 l 1,21,22
 105 588 105 588 110 582.5 c 128,-1,23
 115 577 115 577 123 577 c 0,24,25
 132 577 132 577 152.5 581 c 128,-1,26
 173 585 173 585 194.5 589 c 128,-1,27
 216 593 216 593 228 593 c 0,28,29
 249 593 249 593 278 579 c 128,-1,30
 307 565 307 565 334.5 539.5 c 128,-1,31
 362 514 362 514 380.5 479 c 128,-1,32
 399 444 399 444 399 401 c 0,33,34
 399 359 399 359 380 323.5 c 128,-1,35
 361 288 361 288 328 267 c 128,-1,36
 295 246 295 246 254 246 c 0,0,1
280 -96 m 0,37,38
 239 -96 239 -96 202.5 -75 c 128,-1,39
 166 -54 166 -54 143.5 -20.5 c 128,-1,40
 121 13 121 13 121 52 c 0,41,42
 121 93 121 93 146 120 c 128,-1,43
 171 147 171 147 210 165.5 c 128,-1,44
 249 184 249 184 289 199 c 2,45,-1
 524 286 l 1,46,47
 521 373 521 373 509.5 457.5 c 128,-1,48
 498 542 498 542 484 600 c 1,49,-1
 560 600 l 1,50,51
 572 557 572 557 582.5 491 c 128,-1,52
 593 425 593 425 599.5 351 c 128,-1,53
 606 277 606 277 606 209 c 0,54,55
 606 69 606 69 574.5 -32.5 c 128,-1,56
 543 -134 543 -134 474 -189 c 128,-1,57
 405 -244 405 -244 292 -244 c 0,58,59
 223 -244 223 -244 163 -221 c 128,-1,60
 103 -198 103 -198 55.5 -159.5 c 128,-1,61
 8 -121 8 -121 -25 -77 c 1,62,-1
 -19 -22 l 1,63,-1
 -13 -20 l 1,64,65
 38 -84 38 -84 106 -122.5 c 128,-1,66
 174 -161 174 -161 256 -161 c 0,67,68
 393 -161 393 -161 454.5 -72 c 128,-1,69
 516 17 516 17 523 200 c 1,70,-1
 354 137 l 1,71,-1
 353 137 l 1,72,73
 380 117 380 117 397 90.5 c 128,-1,74
 414 64 414 64 414 32 c 0,75,76
 414 -3 414 -3 396 -32 c 128,-1,77
 378 -61 378 -61 348 -78.5 c 128,-1,78
 318 -96 318 -96 280 -96 c 0,37,38
194 24 m 0,79,80
 194 4 194 4 209 -11 c 128,-1,81
 224 -26 224 -26 249 -26 c 0,82,83
 271 -26 271 -26 292 -14.5 c 128,-1,84
 313 -3 313 -3 326.5 16.5 c 128,-1,85
 340 36 340 36 340 59 c 0,86,87
 340 95 340 95 307 119 c 1,88,89
 262 101 262 101 228 78.5 c 128,-1,90
 194 56 194 56 194 24 c 0,79,80
EndSplineSet
Ligature2: "'cjct' Conjunct Forms in Khojki lookup 14 subtable" g_nakhoj uMatrakhoj
EndChar

StartChar: g_na_rakhoj
Encoding: 1114144 -1 59
Width: 794
GlyphClass: 3
Flags: W
LayerCount: 2
Fore
SplineSet
229 246 m 0,0,1
 177 246 177 246 133 283.5 c 128,-1,2
 89 321 89 321 60 391 c 1,3,-1
 84 416 l 1,4,5
 122 370 122 370 149 354 c 128,-1,6
 176 338 176 338 204 338 c 0,7,8
 248 338 248 338 278.5 367 c 128,-1,9
 309 396 309 396 309 437 c 0,10,11
 309 462 309 462 292 484.5 c 128,-1,12
 275 507 275 507 240 507 c 0,13,14
 223 507 223 507 196 502 c 128,-1,15
 169 497 169 497 144 492 c 128,-1,16
 119 487 119 487 108 487 c 0,17,18
 95 487 95 487 89.5 494.5 c 128,-1,19
 84 502 84 502 82 506 c 2,20,-1
 40 591 l 1,21,-1
 72 602 l 1,22,23
 80 588 80 588 85 582.5 c 128,-1,24
 90 577 90 577 98 577 c 0,25,26
 107 577 107 577 127.5 581 c 128,-1,27
 148 585 148 585 169.5 589 c 128,-1,28
 191 593 191 593 203 593 c 0,29,30
 224 593 224 593 253 579 c 128,-1,31
 282 565 282 565 309.5 539.5 c 128,-1,32
 337 514 337 514 355.5 479 c 128,-1,33
 374 444 374 444 374 401 c 0,34,35
 374 359 374 359 355 323.5 c 128,-1,36
 336 288 336 288 303 267 c 128,-1,37
 270 246 270 246 229 246 c 0,0,1
256 -104 m 0,38,39
 215 -104 215 -104 178.5 -83 c 128,-1,40
 142 -62 142 -62 119 -28 c 128,-1,41
 96 6 96 6 96 45 c 0,42,43
 96 78 96 78 112 100.5 c 128,-1,44
 128 123 128 123 153.5 139.5 c 128,-1,45
 179 156 179 156 205 170 c 0,46,47
 249 193 249 193 304 223.5 c 128,-1,48
 359 254 359 254 403 280 c 0,49,50
 465 317 465 317 521.5 355 c 128,-1,51
 578 393 578 393 623 433 c 1,52,53
 619 476 619 476 612 517.5 c 128,-1,54
 605 559 605 559 595 600 c 1,55,-1
 671 600 l 1,56,57
 689 536 689 536 699 454.5 c 128,-1,58
 709 373 709 373 709 293 c 0,59,60
 709 217 709 217 700.5 140 c 128,-1,61
 692 63 692 63 675 0 c 1,62,-1
 651 -9 l 1,63,64
 644 -2 644 -2 631 17.5 c 128,-1,65
 618 37 618 37 607.5 57 c 128,-1,66
 597 77 597 77 595 83 c 0,67,68
 603 114 603 114 609 146 c 1,69,-1
 471 36 l 1,70,-1
 408 91 l 1,71,-1
 408 98 l 1,72,-1
 624 256 l 1,73,74
 627 295 627 295 627 334 c 1,75,76
 590 306 590 306 544.5 275.5 c 128,-1,77
 499 245 499 245 448 214 c 0,78,79
 414 193 414 193 380 173 c 128,-1,80
 346 153 346 153 316 137 c 1,81,82
 347 117 347 117 368 88 c 128,-1,83
 389 59 389 59 389 22 c 0,84,85
 389 -10 389 -10 372 -39 c 128,-1,86
 355 -68 355 -68 325 -86 c 128,-1,87
 295 -104 295 -104 256 -104 c 0,38,39
168 19 m 0,88,89
 168 -4 168 -4 183 -19 c 128,-1,90
 198 -34 198 -34 223 -34 c 0,91,92
 247 -34 247 -34 268 -22 c 128,-1,93
 289 -10 289 -10 302 9.5 c 128,-1,94
 315 29 315 29 315 51 c 0,95,96
 315 91 315 91 276 114 c 1,97,98
 260 106 260 106 247 99 c 128,-1,99
 234 92 234 92 226 87 c 0,100,101
 195 70 195 70 181.5 54.5 c 128,-1,102
 168 39 168 39 168 19 c 0,88,89
EndSplineSet
Ligature2: "'cjct' Conjunct Forms in Khojki lookup 11 subtable" g_nakhoj halantkhoj rakhoj
EndChar

StartChar: g_na_ra_iMatrakhoj
Encoding: 1114145 -1 60
Width: 946
GlyphClass: 3
Flags: W
LayerCount: 2
Fore
SplineSet
256 -104 m 0,0,1
 215 -104 215 -104 178.5 -83 c 128,-1,2
 142 -62 142 -62 119 -28 c 128,-1,3
 96 6 96 6 96 45 c 0,4,5
 96 78 96 78 112 100.5 c 128,-1,6
 128 123 128 123 153.5 139.5 c 128,-1,7
 179 156 179 156 205 170 c 0,8,9
 249 193 249 193 304 223.5 c 128,-1,10
 359 254 359 254 403 280 c 0,11,12
 466 317 466 317 522.5 355.5 c 128,-1,13
 579 394 579 394 624 434 c 1,14,15
 619 476 619 476 612 517.5 c 128,-1,16
 605 559 605 559 595 600 c 1,17,-1
 670 600 l 1,18,19
 686 534 686 534 694.5 454.5 c 128,-1,20
 703 375 703 375 703 298 c 0,21,22
 703 289 703 289 703 280 c 1,23,24
 725 357 725 357 748.5 433.5 c 128,-1,25
 772 510 772 510 796.5 579 c 128,-1,26
 821 648 821 648 845.5 703 c 128,-1,27
 870 758 870 758 893 792 c 0,28,29
 927 842 927 842 973 868.5 c 128,-1,30
 1019 895 1019 895 1077 895 c 0,31,32
 1133 895 1133 895 1180 871 c 128,-1,33
 1227 847 1227 847 1261 809 c 1,34,-1
 1266 738 l 1,35,-1
 1257 736 l 1,36,37
 1226 771 1226 771 1186.5 792.5 c 128,-1,38
 1147 814 1147 814 1101 814 c 0,39,40
 1011 814 1011 814 951 717 c 0,41,42
 921 669 921 669 889.5 592.5 c 128,-1,43
 858 516 858 516 825.5 420.5 c 128,-1,44
 793 325 793 325 760.5 217.5 c 128,-1,45
 728 110 728 110 696 -1 c 1,46,-1
 683 -4 l 1,47,-1
 621 48 l 1,48,49
 623 77 623 77 625 105.5 c 128,-1,50
 627 134 627 134 628 161 c 1,51,-1
 471 36 l 1,52,-1
 408 91 l 1,53,-1
 408 98 l 1,54,-1
 631 261 l 1,55,56
 631 270 631 270 631 280 c 0,57,58
 631 309 631 309 630 336 c 1,59,60
 593 308 593 308 547 277 c 128,-1,61
 501 246 501 246 448 214 c 0,62,63
 414 193 414 193 380 173 c 128,-1,64
 346 153 346 153 316 137 c 1,65,66
 347 117 347 117 368 88 c 128,-1,67
 389 59 389 59 389 22 c 0,68,69
 389 -10 389 -10 372 -39 c 128,-1,70
 355 -68 355 -68 325 -86 c 128,-1,71
 295 -104 295 -104 256 -104 c 0,0,1
229 246 m 0,72,73
 177 246 177 246 133 283.5 c 128,-1,74
 89 321 89 321 60 391 c 1,75,-1
 84 416 l 1,76,77
 122 370 122 370 149 354 c 128,-1,78
 176 338 176 338 204 338 c 0,79,80
 248 338 248 338 278.5 367 c 128,-1,81
 309 396 309 396 309 437 c 0,82,83
 309 462 309 462 292 484.5 c 128,-1,84
 275 507 275 507 240 507 c 0,85,86
 223 507 223 507 196 502 c 128,-1,87
 169 497 169 497 144 492 c 128,-1,88
 119 487 119 487 108 487 c 0,89,90
 95 487 95 487 89.5 494.5 c 128,-1,91
 84 502 84 502 82 506 c 2,92,-1
 40 591 l 1,93,-1
 72 602 l 1,94,95
 80 588 80 588 85 582.5 c 128,-1,96
 90 577 90 577 98 577 c 0,97,98
 107 577 107 577 127.5 581 c 128,-1,99
 148 585 148 585 169.5 589 c 128,-1,100
 191 593 191 593 203 593 c 0,101,102
 224 593 224 593 253 579 c 128,-1,103
 282 565 282 565 309.5 539.5 c 128,-1,104
 337 514 337 514 355.5 479 c 128,-1,105
 374 444 374 444 374 401 c 0,106,107
 374 359 374 359 355 323.5 c 128,-1,108
 336 288 336 288 303 267 c 128,-1,109
 270 246 270 246 229 246 c 0,72,73
168 19 m 0,110,111
 168 -4 168 -4 183 -19 c 128,-1,112
 198 -34 198 -34 223 -34 c 0,113,114
 247 -34 247 -34 268 -22 c 128,-1,115
 289 -10 289 -10 302 9.5 c 128,-1,116
 315 29 315 29 315 51 c 0,117,118
 315 91 315 91 276 114 c 1,119,120
 260 106 260 106 247 99 c 128,-1,121
 234 92 234 92 226 87 c 0,122,123
 195 70 195 70 181.5 54.5 c 128,-1,124
 168 39 168 39 168 19 c 0,110,111
EndSplineSet
Ligature2: "'cjct' Conjunct Forms in Khojki lookup 12 subtable" g_na_rakhoj iMatrakhoj
EndChar

StartChar: g_na_ra_iiMatrakhoj
Encoding: 1114146 -1 61
Width: 1147
GlyphClass: 3
Flags: W
LayerCount: 2
Fore
SplineSet
256 -104 m 0,0,1
 215 -104 215 -104 178.5 -83 c 128,-1,2
 142 -62 142 -62 119 -28 c 128,-1,3
 96 6 96 6 96 45 c 0,4,5
 96 78 96 78 112 100.5 c 128,-1,6
 128 123 128 123 153.5 139.5 c 128,-1,7
 179 156 179 156 205 170 c 0,8,9
 249 193 249 193 304 223.5 c 128,-1,10
 359 254 359 254 403 280 c 0,11,12
 466 317 466 317 522.5 355.5 c 128,-1,13
 579 394 579 394 624 434 c 1,14,15
 619 476 619 476 612 517.5 c 128,-1,16
 605 559 605 559 595 600 c 1,17,-1
 670 600 l 1,18,19
 686 534 686 534 694.5 454.5 c 128,-1,20
 703 375 703 375 703 298 c 0,21,22
 703 282 703 282 702 264 c 1,23,24
 728 344 728 344 755 419.5 c 128,-1,25
 782 495 782 495 806 549 c 0,26,27
 833 608 833 608 860.5 634.5 c 128,-1,28
 888 661 888 661 916 661 c 0,29,30
 948 661 948 661 973.5 637.5 c 128,-1,31
 999 614 999 614 1017.5 574.5 c 128,-1,32
 1036 535 1036 535 1045.5 488.5 c 128,-1,33
 1055 442 1055 442 1055 395 c 0,34,35
 1055 316 1055 316 1044.5 242 c 128,-1,36
 1034 168 1034 168 1023 95 c 128,-1,37
 1012 22 1012 22 1012 -54 c 0,38,39
 1012 -109 1012 -109 1027.5 -133.5 c 128,-1,40
 1043 -158 1043 -158 1076 -158 c 0,41,42
 1104 -158 1104 -158 1126 -145 c 128,-1,43
 1148 -132 1148 -132 1155 -114 c 1,44,45
 1179 -125 1179 -125 1199 -143.5 c 128,-1,46
 1219 -162 1219 -162 1217 -187 c 0,47,48
 1216 -212 1216 -212 1191 -226 c 128,-1,49
 1166 -240 1166 -240 1136 -240 c 0,50,51
 1085 -240 1085 -240 1046 -217.5 c 128,-1,52
 1007 -195 1007 -195 981.5 -157 c 128,-1,53
 956 -119 956 -119 943 -71 c 128,-1,54
 930 -23 930 -23 930 27 c 0,55,56
 930 71 930 71 937 129 c 128,-1,57
 944 187 944 187 953.5 250 c 128,-1,58
 963 313 963 313 970 373 c 128,-1,59
 977 433 977 433 977 482 c 0,60,61
 977 504 977 504 974.5 526 c 128,-1,62
 972 548 972 548 965 563 c 128,-1,63
 958 578 958 578 945 578 c 0,64,65
 927 578 927 578 906.5 550 c 128,-1,66
 886 522 886 522 864 472 c 0,67,68
 846 432 846 432 823.5 371.5 c 128,-1,69
 801 311 801 311 777 243.5 c 128,-1,70
 753 176 753 176 731.5 111.5 c 128,-1,71
 710 47 710 47 696 -1 c 1,72,-1
 683 -4 l 1,73,-1
 621 48 l 1,74,75
 623 77 623 77 625 105.5 c 128,-1,76
 627 134 627 134 628 161 c 1,77,-1
 471 36 l 1,78,-1
 408 91 l 1,79,-1
 408 98 l 1,80,-1
 631 261 l 1,81,82
 631 270 631 270 631 280 c 0,83,84
 631 309 631 309 630 336 c 1,85,86
 593 308 593 308 547 277 c 128,-1,87
 501 246 501 246 448 214 c 0,88,89
 414 193 414 193 380 173 c 128,-1,90
 346 153 346 153 316 137 c 1,91,92
 347 117 347 117 368 88 c 128,-1,93
 389 59 389 59 389 22 c 0,94,95
 389 -10 389 -10 372 -39 c 128,-1,96
 355 -68 355 -68 325 -86 c 128,-1,97
 295 -104 295 -104 256 -104 c 0,0,1
229 246 m 0,98,99
 177 246 177 246 133 283.5 c 128,-1,100
 89 321 89 321 60 391 c 1,101,-1
 84 416 l 1,102,103
 122 370 122 370 149 354 c 128,-1,104
 176 338 176 338 204 338 c 0,105,106
 248 338 248 338 278.5 367 c 128,-1,107
 309 396 309 396 309 437 c 0,108,109
 309 462 309 462 292 484.5 c 128,-1,110
 275 507 275 507 240 507 c 0,111,112
 223 507 223 507 196 502 c 128,-1,113
 169 497 169 497 144 492 c 128,-1,114
 119 487 119 487 108 487 c 0,115,116
 95 487 95 487 89.5 494.5 c 128,-1,117
 84 502 84 502 82 506 c 2,118,-1
 40 591 l 1,119,-1
 72 602 l 1,120,121
 80 588 80 588 85 582.5 c 128,-1,122
 90 577 90 577 98 577 c 0,123,124
 107 577 107 577 127.5 581 c 128,-1,125
 148 585 148 585 169.5 589 c 128,-1,126
 191 593 191 593 203 593 c 0,127,128
 224 593 224 593 253 579 c 128,-1,129
 282 565 282 565 309.5 539.5 c 128,-1,130
 337 514 337 514 355.5 479 c 128,-1,131
 374 444 374 444 374 401 c 0,132,133
 374 359 374 359 355 323.5 c 128,-1,134
 336 288 336 288 303 267 c 128,-1,135
 270 246 270 246 229 246 c 0,98,99
168 19 m 0,136,137
 168 -4 168 -4 183 -19 c 128,-1,138
 198 -34 198 -34 223 -34 c 0,139,140
 247 -34 247 -34 268 -22 c 128,-1,141
 289 -10 289 -10 302 9.5 c 128,-1,142
 315 29 315 29 315 51 c 0,143,144
 315 91 315 91 276 114 c 1,145,146
 260 106 260 106 247 99 c 128,-1,147
 234 92 234 92 226 87 c 0,148,149
 195 70 195 70 181.5 54.5 c 128,-1,150
 168 39 168 39 168 19 c 0,136,137
EndSplineSet
Ligature2: "'cjct' Conjunct Forms in Khojki lookup 13 subtable" g_na_rakhoj iiMatrakhoj
EndChar

StartChar: g_na_ra_uMatrakhoj
Encoding: 1114147 -1 62
Width: 819
GlyphClass: 3
Flags: W
LayerCount: 2
Fore
SplineSet
246 246 m 0,0,1
 194 246 194 246 150 283.5 c 128,-1,2
 106 321 106 321 77 391 c 1,3,-1
 101 416 l 1,4,5
 139 370 139 370 166 354 c 128,-1,6
 193 338 193 338 221 338 c 0,7,8
 265 338 265 338 295.5 367 c 128,-1,9
 326 396 326 396 326 437 c 0,10,11
 326 462 326 462 309 484.5 c 128,-1,12
 292 507 292 507 257 507 c 0,13,14
 240 507 240 507 213 502 c 128,-1,15
 186 497 186 497 161 492 c 128,-1,16
 136 487 136 487 125 487 c 0,17,18
 112 487 112 487 106.5 494.5 c 128,-1,19
 101 502 101 502 99 506 c 2,20,-1
 57 591 l 1,21,-1
 89 602 l 1,22,23
 97 588 97 588 102 582.5 c 128,-1,24
 107 577 107 577 115 577 c 0,25,26
 124 577 124 577 144.5 581 c 128,-1,27
 165 585 165 585 186.5 589 c 128,-1,28
 208 593 208 593 220 593 c 0,29,30
 241 593 241 593 270 579 c 128,-1,31
 299 565 299 565 326.5 539.5 c 128,-1,32
 354 514 354 514 372.5 479 c 128,-1,33
 391 444 391 444 391 401 c 0,34,35
 391 359 391 359 372 323.5 c 128,-1,36
 353 288 353 288 320 267 c 128,-1,37
 287 246 287 246 246 246 c 0,0,1
273 -104 m 0,38,39
 232 -104 232 -104 195.5 -83 c 128,-1,40
 159 -62 159 -62 136 -28 c 128,-1,41
 113 6 113 6 113 45 c 0,42,43
 113 78 113 78 129 100.5 c 128,-1,44
 145 123 145 123 170.5 139.5 c 128,-1,45
 196 156 196 156 222 170 c 0,46,47
 266 193 266 193 321 223.5 c 128,-1,48
 376 254 376 254 420 280 c 0,49,50
 483 317 483 317 540 356 c 128,-1,51
 597 395 597 395 641 435 c 1,52,53
 636 481 636 481 628 523.5 c 128,-1,54
 620 566 620 566 612 600 c 1,55,-1
 688 600 l 1,56,57
 699 562 699 562 709.5 501.5 c 128,-1,58
 720 441 720 441 727 370 c 128,-1,59
 734 299 734 299 734 231 c 0,60,61
 734 86 734 86 696 -20.5 c 128,-1,62
 658 -127 658 -127 577 -185 c 128,-1,63
 496 -243 496 -243 366 -243 c 0,64,65
 295 -243 295 -243 226.5 -220 c 128,-1,66
 158 -197 158 -197 103 -159 c 128,-1,67
 48 -121 48 -121 15 -77 c 1,68,-1
 21 -22 l 1,69,-1
 27 -20 l 1,70,71
 61 -62 61 -62 110.5 -94 c 128,-1,72
 160 -126 160 -126 216 -143.5 c 128,-1,73
 272 -161 272 -161 327 -161 c 0,74,75
 427 -161 427 -161 493.5 -121.5 c 128,-1,76
 560 -82 560 -82 597 -9.5 c 128,-1,77
 634 63 634 63 646 162 c 1,78,-1
 488 36 l 1,79,-1
 425 91 l 1,80,-1
 425 98 l 1,81,-1
 652 264 l 2,82,83
 652 268 652 268 652 274 c 0,84,85
 652 305 652 305 650 339 c 1,86,87
 613 310 613 310 566 278.5 c 128,-1,88
 519 247 519 247 465 214 c 0,89,90
 431 193 431 193 397 173 c 128,-1,91
 363 153 363 153 333 137 c 1,92,93
 364 117 364 117 385 88 c 128,-1,94
 406 59 406 59 406 22 c 0,95,96
 406 -10 406 -10 389 -39 c 128,-1,97
 372 -68 372 -68 342 -86 c 128,-1,98
 312 -104 312 -104 273 -104 c 0,38,39
185 19 m 0,99,100
 185 -4 185 -4 200 -19 c 128,-1,101
 215 -34 215 -34 240 -34 c 0,102,103
 264 -34 264 -34 285 -22 c 128,-1,104
 306 -10 306 -10 319 9.5 c 128,-1,105
 332 29 332 29 332 51 c 0,106,107
 332 91 332 91 293 114 c 1,108,109
 277 106 277 106 264 99 c 128,-1,110
 251 92 251 92 243 87 c 0,111,112
 212 70 212 70 198.5 54.5 c 128,-1,113
 185 39 185 39 185 19 c 0,99,100
EndSplineSet
Ligature2: "'cjct' Conjunct Forms in Khojki lookup 14 subtable" g_na_rakhoj uMatrakhoj
EndChar

StartChar: ggakhoj
Encoding: 70155 70155 63
Width: 658
GlyphClass: 2
Flags: W
AnchorPoint: "+BBEENQQ3BEsEPARPBD0EPQQ+BDUA--3" 303 600 basechar 0
AnchorPoint: "+BBEENQQ3BEsEPARPBD0EPQQ+BDUA--2" 529 21 basechar 0
AnchorPoint: "+BBEENQQ3BEsEPARPBD0EPQQ+BDUA--0" 545 600 basechar 0
LayerCount: 2
Fore
SplineSet
229 246 m 0,0,1
 177 246 177 246 133 283.5 c 128,-1,2
 89 321 89 321 60 391 c 1,3,-1
 84 416 l 1,4,5
 122 370 122 370 149 354 c 128,-1,6
 176 338 176 338 204 338 c 0,7,8
 248 338 248 338 278.5 367 c 128,-1,9
 309 396 309 396 309 437 c 0,10,11
 309 462 309 462 292 484.5 c 128,-1,12
 275 507 275 507 240 507 c 0,13,14
 223 507 223 507 196 502 c 128,-1,15
 169 497 169 497 145 492 c 128,-1,16
 121 487 121 487 111 487 c 0,17,18
 92 487 92 487 82 506 c 2,19,-1
 40 591 l 1,20,-1
 72 602 l 1,21,22
 80 588 80 588 85 582.5 c 128,-1,23
 90 577 90 577 98 577 c 0,24,25
 107 577 107 577 127.5 581 c 128,-1,26
 148 585 148 585 169.5 589 c 128,-1,27
 191 593 191 593 203 593 c 0,28,29
 224 593 224 593 253 579 c 128,-1,30
 282 565 282 565 309.5 539.5 c 128,-1,31
 337 514 337 514 355.5 479 c 128,-1,32
 374 444 374 444 374 401 c 0,33,34
 374 359 374 359 355 323.5 c 128,-1,35
 336 288 336 288 303 267 c 128,-1,36
 270 246 270 246 229 246 c 0,0,1
184 22 m 1,37,-1
 101 80 l 1,38,-1
 101 89 l 1,39,-1
 489 272 l 1,40,41
 491 306 491 306 491 340 c 0,42,43
 491 408 491 408 482.5 472.5 c 128,-1,44
 474 537 474 537 459 600 c 1,45,-1
 535 600 l 1,46,47
 553 536 553 536 563 454.5 c 128,-1,48
 573 373 573 373 573 293 c 0,49,50
 573 217 573 217 564.5 140 c 128,-1,51
 556 63 556 63 539 0 c 1,52,-1
 515 -9 l 1,53,54
 508 -2 508 -2 495 17.5 c 128,-1,55
 482 37 482 37 471.5 57 c 128,-1,56
 461 77 461 77 459 83 c 0,57,58
 470 125 470 125 477 169 c 1,59,-1
 184 22 l 1,37,-1
EndSplineSet
EndChar

StartChar: gga_iMatrakhoj
Encoding: 1114148 -1 64
Width: 810
GlyphClass: 2
Flags: W
AnchorPoint: "+BBEENQQ3BEsEPARPBD0EPQQ+BDUA--3" 303 600 basechar 0
AnchorPoint: "+BBEENQQ3BEsEPARPBD0EPQQ+BDUA--2" 619 11 basechar 0
AnchorPoint: "+BBEENQQ3BEsEPARPBD0EPQQ+BDUA--0" 1022 892 basechar 0
LayerCount: 2
Fore
SplineSet
184 22 m 1,0,-1
 101 80 l 1,1,-1
 101 89 l 1,2,-1
 495 275 l 2,3,4
 495 277 495 277 495 280 c 0,5,6
 495 363 495 363 487 442.5 c 128,-1,7
 479 522 479 522 459 600 c 1,8,-1
 534 600 l 1,9,10
 550 534 550 534 558.5 455 c 128,-1,11
 567 376 567 376 567 303 c 0,12,13
 567 291 567 291 567 280 c 1,14,15
 589 357 589 357 612.5 433.5 c 128,-1,16
 636 510 636 510 660.5 579 c 128,-1,17
 685 648 685 648 709.5 703 c 128,-1,18
 734 758 734 758 757 792 c 0,19,20
 791 842 791 842 837 868.5 c 128,-1,21
 883 895 883 895 941 895 c 0,22,23
 997 895 997 895 1044 871 c 128,-1,24
 1091 847 1091 847 1125 809 c 1,25,-1
 1130 738 l 1,26,-1
 1121 736 l 1,27,28
 1090 771 1090 771 1050.5 792.5 c 128,-1,29
 1011 814 1011 814 965 814 c 0,30,31
 876 814 876 814 815 717 c 0,32,33
 785 669 785 669 753.5 592.5 c 128,-1,34
 722 516 722 516 689.5 420.5 c 128,-1,35
 657 325 657 325 624.5 217.5 c 128,-1,36
 592 110 592 110 560 -1 c 1,37,-1
 547 -4 l 1,38,-1
 485 48 l 1,39,40
 487 81 487 81 489 113.5 c 128,-1,41
 491 146 491 146 493 177 c 1,42,-1
 184 22 l 1,0,-1
229 246 m 0,43,44
 177 246 177 246 133 283.5 c 128,-1,45
 89 321 89 321 60 391 c 1,46,-1
 84 416 l 1,47,48
 122 370 122 370 149 354 c 128,-1,49
 176 338 176 338 204 338 c 0,50,51
 248 338 248 338 278.5 367 c 128,-1,52
 309 396 309 396 309 437 c 0,53,54
 309 462 309 462 292 484.5 c 128,-1,55
 275 507 275 507 240 507 c 0,56,57
 223 507 223 507 196 502 c 128,-1,58
 169 497 169 497 145 492 c 128,-1,59
 121 487 121 487 111 487 c 0,60,61
 92 487 92 487 82 506 c 2,62,-1
 40 591 l 1,63,-1
 72 602 l 1,64,65
 80 588 80 588 85 582.5 c 128,-1,66
 90 577 90 577 98 577 c 0,67,68
 107 577 107 577 127.5 581 c 128,-1,69
 148 585 148 585 169.5 589 c 128,-1,70
 191 593 191 593 203 593 c 0,71,72
 224 593 224 593 253 579 c 128,-1,73
 282 565 282 565 309.5 539.5 c 128,-1,74
 337 514 337 514 355.5 479 c 128,-1,75
 374 444 374 444 374 401 c 0,76,77
 374 359 374 359 355 323.5 c 128,-1,78
 336 288 336 288 303 267 c 128,-1,79
 270 246 270 246 229 246 c 0,43,44
EndSplineSet
Ligature2: "'cjct' Conjunct Forms in Khojki lookup 12 subtable" ggakhoj iMatrakhoj
EndChar

StartChar: gga_iiMatrakhoj
Encoding: 1114149 -1 65
Width: 1011
GlyphClass: 2
Flags: W
AnchorPoint: "+BBEENQQ3BEsEPARPBD0EPQQ+BDUA--3" 303 600 basechar 0
AnchorPoint: "+BBEENQQ3BEsEPARPBD0EPQQ+BDUA--2" 675 -92 basechar 0
AnchorPoint: "+BBEENQQ3BEsEPARPBD0EPQQ+BDUA--0" 896 656 basechar 0
LayerCount: 2
Fore
SplineSet
184 22 m 1,0,-1
 101 80 l 1,1,-1
 101 89 l 1,2,-1
 495 275 l 2,3,4
 495 277 495 277 495 280 c 0,5,6
 495 363 495 363 487 442.5 c 128,-1,7
 479 522 479 522 459 600 c 1,8,-1
 534 600 l 1,9,10
 550 534 550 534 558.5 455 c 128,-1,11
 567 376 567 376 567 303 c 0,12,13
 567 283 567 283 566 264 c 1,14,15
 593 348 593 348 620 423.5 c 128,-1,16
 647 499 647 499 670 549 c 0,17,18
 697 608 697 608 724.5 634.5 c 128,-1,19
 752 661 752 661 780 661 c 0,20,21
 817 661 817 661 848.5 626 c 128,-1,22
 880 591 880 591 899.5 529 c 128,-1,23
 919 467 919 467 919 385 c 0,24,25
 919 319 919 319 908.5 243.5 c 128,-1,26
 898 168 898 168 887 93.5 c 128,-1,27
 876 19 876 19 876 -45 c 0,28,29
 876 -106 876 -106 891 -132 c 128,-1,30
 906 -158 906 -158 940 -158 c 0,31,32
 968 -158 968 -158 990 -145 c 128,-1,33
 1012 -132 1012 -132 1019 -114 c 1,34,35
 1043 -125 1043 -125 1063 -143.5 c 128,-1,36
 1083 -162 1083 -162 1081 -187 c 0,37,38
 1080 -212 1080 -212 1055 -226 c 128,-1,39
 1030 -240 1030 -240 995 -240 c 0,40,41
 939 -240 939 -240 893 -206 c 128,-1,42
 847 -172 847 -172 820.5 -111.5 c 128,-1,43
 794 -51 794 -51 794 28 c 0,44,45
 794 72 794 72 801 129.5 c 128,-1,46
 808 187 808 187 817.5 250 c 128,-1,47
 827 313 827 313 834 373.5 c 128,-1,48
 841 434 841 434 841 482 c 0,49,50
 841 505 841 505 838.5 527 c 128,-1,51
 836 549 836 549 829 563.5 c 128,-1,52
 822 578 822 578 808 578 c 0,53,54
 791 578 791 578 770.5 550 c 128,-1,55
 750 522 750 522 728 472 c 0,56,57
 712 436 712 436 690 377.5 c 128,-1,58
 668 319 668 319 643.5 250.5 c 128,-1,59
 619 182 619 182 597 116 c 128,-1,60
 575 50 575 50 560 -1 c 1,61,-1
 547 -4 l 1,62,-1
 485 48 l 1,63,64
 487 81 487 81 489 113.5 c 128,-1,65
 491 146 491 146 493 177 c 1,66,-1
 184 22 l 1,0,-1
229 246 m 0,67,68
 177 246 177 246 133 283.5 c 128,-1,69
 89 321 89 321 60 391 c 1,70,-1
 84 416 l 1,71,72
 122 370 122 370 149 354 c 128,-1,73
 176 338 176 338 204 338 c 0,74,75
 248 338 248 338 278.5 367 c 128,-1,76
 309 396 309 396 309 437 c 0,77,78
 309 462 309 462 292 484.5 c 128,-1,79
 275 507 275 507 240 507 c 0,80,81
 223 507 223 507 196 502 c 128,-1,82
 169 497 169 497 145 492 c 128,-1,83
 121 487 121 487 111 487 c 0,84,85
 92 487 92 487 82 506 c 2,86,-1
 40 591 l 1,87,-1
 72 602 l 1,88,89
 80 588 80 588 85 582.5 c 128,-1,90
 90 577 90 577 98 577 c 0,91,92
 107 577 107 577 127.5 581 c 128,-1,93
 148 585 148 585 169.5 589 c 128,-1,94
 191 593 191 593 203 593 c 0,95,96
 224 593 224 593 253 579 c 128,-1,97
 282 565 282 565 309.5 539.5 c 128,-1,98
 337 514 337 514 355.5 479 c 128,-1,99
 374 444 374 444 374 401 c 0,100,101
 374 359 374 359 355 323.5 c 128,-1,102
 336 288 336 288 303 267 c 128,-1,103
 270 246 270 246 229 246 c 0,67,68
EndSplineSet
Ligature2: "'cjct' Conjunct Forms in Khojki lookup 13 subtable" ggakhoj iiMatrakhoj
EndChar

StartChar: gga_uMatrakhoj
Encoding: 1114150 -1 66
Width: 685
GlyphClass: 2
Flags: W
AnchorPoint: "+BBEENQQ3BEsEPARPBD0EPQQ+BDUA--3" 332 600 basechar 0
AnchorPoint: "+BBEENQQ3BEsEPARPBD0EPQQ+BDUA--2" 313 -179 basechar 0
AnchorPoint: "+BBEENQQ3BEsEPARPBD0EPQQ+BDUA--0" 570 600 basechar 0
LayerCount: 2
Fore
SplineSet
256 246 m 0,0,1
 204 246 204 246 160 283.5 c 128,-1,2
 116 321 116 321 87 391 c 1,3,-1
 111 416 l 1,4,5
 149 370 149 370 176 354 c 128,-1,6
 203 338 203 338 231 338 c 0,7,8
 275 338 275 338 305.5 367 c 128,-1,9
 336 396 336 396 336 437 c 0,10,11
 336 462 336 462 319 484.5 c 128,-1,12
 302 507 302 507 267 507 c 0,13,14
 250 507 250 507 223 502 c 128,-1,15
 196 497 196 497 172 492 c 128,-1,16
 148 487 148 487 138 487 c 0,17,18
 119 487 119 487 109 506 c 2,19,-1
 67 591 l 1,20,-1
 99 602 l 1,21,22
 107 588 107 588 112 582.5 c 128,-1,23
 117 577 117 577 125 577 c 0,24,25
 134 577 134 577 154.5 581 c 128,-1,26
 175 585 175 585 196.5 589 c 128,-1,27
 218 593 218 593 230 593 c 0,28,29
 251 593 251 593 280 579 c 128,-1,30
 309 565 309 565 336.5 539.5 c 128,-1,31
 364 514 364 514 382.5 479 c 128,-1,32
 401 444 401 444 401 401 c 0,33,34
 401 359 401 359 382 323.5 c 128,-1,35
 363 288 363 288 330 267 c 128,-1,36
 297 246 297 246 256 246 c 0,0,1
211 22 m 1,37,-1
 128 80 l 1,38,-1
 128 89 l 1,39,-1
 516 272 l 1,40,41
 518 302 518 302 518 335 c 0,42,43
 518 409 518 409 509.5 473 c 128,-1,44
 501 537 501 537 486 600 c 1,45,-1
 562 600 l 1,46,47
 572 565 572 565 580.5 514 c 128,-1,48
 589 463 589 463 594.5 405 c 128,-1,49
 600 347 600 347 600 288 c 0,50,51
 600 189 600 189 582 104 c 128,-1,52
 564 19 564 19 526 -44.5 c 128,-1,53
 488 -108 488 -108 428.5 -143.5 c 128,-1,54
 369 -179 369 -179 286 -179 c 0,55,56
 218 -179 218 -179 160.5 -156 c 128,-1,57
 103 -133 103 -133 56.5 -95.5 c 128,-1,58
 10 -58 10 -58 -25 -13 c 1,59,-1
 -19 42 l 1,60,-1
 -13 44 l 1,61,62
 40 -20 40 -20 105 -58.5 c 128,-1,63
 170 -97 170 -97 250 -97 c 0,64,65
 324 -97 324 -97 375.5 -63.5 c 128,-1,66
 427 -30 427 -30 458.5 30 c 128,-1,67
 490 90 490 90 505 170 c 1,68,-1
 211 22 l 1,37,-1
EndSplineSet
Ligature2: "'cjct' Conjunct Forms in Khojki lookup 14 subtable" ggakhoj uMatrakhoj
EndChar

StartChar: gg_rakhoj
Encoding: 1114151 -1 67
Width: 658
GlyphClass: 2
Flags: W
AnchorPoint: "+BBEENQQ3BEsEPARPBD0EPQQ+BDUA--3" 303 600 basechar 0
AnchorPoint: "+BBEENQQ3BEsEPARPBD0EPQQ+BDUA--2" 599 -9 basechar 0
AnchorPoint: "+BBEENQQ3BEsEPARPBD0EPQQ+BDUA--0" 527 600 basechar 0
LayerCount: 2
Fore
SplineSet
228 256 m 0,0,1
 176 256 176 256 132.5 293.5 c 128,-1,2
 89 331 89 331 60 401 c 1,3,-1
 84 426 l 1,4,5
 122 380 122 380 149 364 c 128,-1,6
 176 348 176 348 204 348 c 0,7,8
 248 348 248 348 278.5 377 c 128,-1,9
 309 406 309 406 309 447 c 0,10,11
 309 472 309 472 292 494.5 c 128,-1,12
 275 517 275 517 240 517 c 0,13,14
 223 517 223 517 195.5 512 c 128,-1,15
 168 507 168 507 143.5 502 c 128,-1,16
 119 497 119 497 110 497 c 0,17,18
 92 497 92 497 82 516 c 2,19,-1
 40 601 l 1,20,-1
 72 612 l 1,21,22
 80 598 80 598 85 592.5 c 128,-1,23
 90 587 90 587 98 587 c 0,24,25
 107 587 107 587 127.5 591 c 128,-1,26
 148 595 148 595 169.5 599 c 128,-1,27
 191 603 191 603 203 603 c 0,28,29
 224 603 224 603 253 589 c 128,-1,30
 282 575 282 575 309.5 550 c 128,-1,31
 337 525 337 525 355.5 490 c 128,-1,32
 374 455 374 455 374 413 c 0,33,34
 374 369 374 369 354.5 333.5 c 128,-1,35
 335 298 335 298 302 277 c 128,-1,36
 269 256 269 256 228 256 c 0,0,1
182 23 m 1,37,-1
 101 80 l 1,38,-1
 101 89 l 1,39,-1
 489 348 l 1,40,41
 489 411 489 411 480.5 474.5 c 128,-1,42
 472 538 472 538 457 600 c 1,43,-1
 535 600 l 1,44,45
 553 536 553 536 563 454.5 c 128,-1,46
 573 373 573 373 573 301 c 0,47,48
 573 129 573 129 553 0 c 1,49,-1
 528 -8 l 1,50,-1
 492 50 l 1,51,-1
 349 -64 l 1,52,-1
 286 -9 l 1,53,-1
 286 -2 l 1,54,-1
 480 140 l 1,55,56
 485 185 485 185 487 241 c 1,57,-1
 182 23 l 1,37,-1
EndSplineSet
Ligature2: "'cjct' Conjunct Forms in Khojki lookup 11 subtable" ggakhoj halantkhoj rakhoj
EndChar

StartChar: gg_ra_iMatrakhoj
Encoding: 1114152 -1 68
Width: 808
GlyphClass: 2
Flags: W
AnchorPoint: "+BBEENQQ3BEsEPARPBD0EPQQ+BDUA--3" 303 600 basechar 0
AnchorPoint: "+BBEENQQ3BEsEPARPBD0EPQQ+BDUA--2" 579 -9 basechar 0
AnchorPoint: "+BBEENQQ3BEsEPARPBD0EPQQ+BDUA--0" 1022 892 basechar 0
LayerCount: 2
Fore
SplineSet
182 23 m 1,0,-1
 101 80 l 1,1,-1
 101 89 l 1,2,-1
 492 350 l 1,3,4
 489 414 489 414 480.5 476.5 c 128,-1,5
 472 539 472 539 457 600 c 1,6,-1
 532 600 l 1,7,8
 548 534 548 534 556.5 454.5 c 128,-1,9
 565 375 565 375 565 298 c 0,10,11
 565 289 565 289 565 280 c 1,12,13
 587 357 587 357 610.5 433.5 c 128,-1,14
 634 510 634 510 658.5 579 c 128,-1,15
 683 648 683 648 707.5 703 c 128,-1,16
 732 758 732 758 755 792 c 0,17,18
 789 842 789 842 835 868.5 c 128,-1,19
 881 895 881 895 939 895 c 0,20,21
 995 895 995 895 1042 871 c 128,-1,22
 1089 847 1089 847 1123 809 c 1,23,-1
 1128 738 l 1,24,-1
 1119 736 l 1,25,26
 1088 771 1088 771 1048.5 792.5 c 128,-1,27
 1009 814 1009 814 963 814 c 0,28,29
 873 814 873 814 813 717 c 0,30,31
 783 669 783 669 751.5 592.5 c 128,-1,32
 720 516 720 516 687.5 420.5 c 128,-1,33
 655 325 655 325 622.5 217.5 c 128,-1,34
 590 110 590 110 558 -1 c 1,35,-1
 545 -4 l 1,36,-1
 486 45 l 1,37,-1
 349 -64 l 1,38,-1
 286 -9 l 1,39,-1
 286 -2 l 1,40,-1
 489 147 l 1,41,42
 491 172 491 172 491.5 196.5 c 128,-1,43
 492 221 492 221 493 245 c 1,44,-1
 182 23 l 1,0,-1
228 256 m 0,45,46
 176 256 176 256 132.5 293.5 c 128,-1,47
 89 331 89 331 60 401 c 1,48,-1
 84 426 l 1,49,50
 122 380 122 380 149 364 c 128,-1,51
 176 348 176 348 204 348 c 0,52,53
 248 348 248 348 278.5 377 c 128,-1,54
 309 406 309 406 309 447 c 0,55,56
 309 472 309 472 292 494.5 c 128,-1,57
 275 517 275 517 240 517 c 0,58,59
 223 517 223 517 195.5 512 c 128,-1,60
 168 507 168 507 143.5 502 c 128,-1,61
 119 497 119 497 110 497 c 0,62,63
 92 497 92 497 82 516 c 2,64,-1
 40 601 l 1,65,-1
 72 612 l 1,66,67
 80 598 80 598 85 592.5 c 128,-1,68
 90 587 90 587 98 587 c 0,69,70
 107 587 107 587 127.5 591 c 128,-1,71
 148 595 148 595 169.5 599 c 128,-1,72
 191 603 191 603 203 603 c 0,73,74
 224 603 224 603 253 589 c 128,-1,75
 282 575 282 575 309.5 550 c 128,-1,76
 337 525 337 525 355.5 490 c 128,-1,77
 374 455 374 455 374 413 c 0,78,79
 374 369 374 369 354.5 333.5 c 128,-1,80
 335 298 335 298 302 277 c 128,-1,81
 269 256 269 256 228 256 c 0,45,46
EndSplineSet
Ligature2: "'cjct' Conjunct Forms in Khojki lookup 12 subtable" gg_rakhoj iMatrakhoj
EndChar

StartChar: gg_ra_iiMatrakhoj
Encoding: 1114153 -1 69
Width: 1009
GlyphClass: 2
Flags: W
AnchorPoint: "+BBEENQQ3BEsEPARPBD0EPQQ+BDUA--3" 303 600 basechar 0
AnchorPoint: "+BBEENQQ3BEsEPARPBD0EPQQ+BDUA--2" 673 -92 basechar 0
AnchorPoint: "+BBEENQQ3BEsEPARPBD0EPQQ+BDUA--0" 892 656 basechar 0
LayerCount: 2
Fore
SplineSet
182 23 m 1,0,-1
 101 80 l 1,1,-1
 101 89 l 1,2,-1
 492 350 l 1,3,4
 489 414 489 414 480.5 476.5 c 128,-1,5
 472 539 472 539 457 600 c 1,6,-1
 532 600 l 1,7,8
 548 534 548 534 556.5 454.5 c 128,-1,9
 565 375 565 375 565 298 c 0,10,11
 565 282 565 282 564 264 c 1,12,13
 590 344 590 344 617 419.5 c 128,-1,14
 644 495 644 495 668 549 c 0,15,16
 695 608 695 608 722.5 634.5 c 128,-1,17
 750 661 750 661 778 661 c 0,18,19
 810 661 810 661 835.5 637.5 c 128,-1,20
 861 614 861 614 879.5 574.5 c 128,-1,21
 898 535 898 535 907.5 488.5 c 128,-1,22
 917 442 917 442 917 395 c 0,23,24
 917 316 917 316 906.5 242 c 128,-1,25
 896 168 896 168 885 95 c 128,-1,26
 874 22 874 22 874 -54 c 0,27,28
 874 -109 874 -109 889.5 -133.5 c 128,-1,29
 905 -158 905 -158 938 -158 c 0,30,31
 966 -158 966 -158 988 -145 c 128,-1,32
 1010 -132 1010 -132 1017 -114 c 1,33,34
 1041 -125 1041 -125 1061 -143.5 c 128,-1,35
 1081 -162 1081 -162 1079 -187 c 0,36,37
 1078 -212 1078 -212 1053 -226 c 128,-1,38
 1028 -240 1028 -240 998 -240 c 0,39,40
 947 -240 947 -240 908 -217.5 c 128,-1,41
 869 -195 869 -195 843.5 -157 c 128,-1,42
 818 -119 818 -119 805 -71 c 128,-1,43
 792 -23 792 -23 792 27 c 0,44,45
 792 71 792 71 799 129 c 128,-1,46
 806 187 806 187 815.5 250 c 128,-1,47
 825 313 825 313 832 373 c 128,-1,48
 839 433 839 433 839 482 c 0,49,50
 839 504 839 504 836.5 526 c 128,-1,51
 834 548 834 548 827 563 c 128,-1,52
 820 578 820 578 807 578 c 0,53,54
 789 578 789 578 768.5 550 c 128,-1,55
 748 522 748 522 726 472 c 0,56,57
 708 432 708 432 685.5 371.5 c 128,-1,58
 663 311 663 311 639 243.5 c 128,-1,59
 615 176 615 176 593.5 111.5 c 128,-1,60
 572 47 572 47 558 -1 c 1,61,-1
 545 -4 l 1,62,-1
 486 45 l 1,63,-1
 349 -64 l 1,64,-1
 286 -9 l 1,65,-1
 286 -2 l 1,66,-1
 489 147 l 1,67,68
 491 172 491 172 491.5 196.5 c 128,-1,69
 492 221 492 221 493 245 c 1,70,-1
 182 23 l 1,0,-1
228 256 m 0,71,72
 176 256 176 256 132.5 293.5 c 128,-1,73
 89 331 89 331 60 401 c 1,74,-1
 84 426 l 1,75,76
 122 380 122 380 149 364 c 128,-1,77
 176 348 176 348 204 348 c 0,78,79
 248 348 248 348 278.5 377 c 128,-1,80
 309 406 309 406 309 447 c 0,81,82
 309 472 309 472 292 494.5 c 128,-1,83
 275 517 275 517 240 517 c 0,84,85
 223 517 223 517 195.5 512 c 128,-1,86
 168 507 168 507 143.5 502 c 128,-1,87
 119 497 119 497 110 497 c 0,88,89
 92 497 92 497 82 516 c 2,90,-1
 40 601 l 1,91,-1
 72 612 l 1,92,93
 80 598 80 598 85 592.5 c 128,-1,94
 90 587 90 587 98 587 c 0,95,96
 107 587 107 587 127.5 591 c 128,-1,97
 148 595 148 595 169.5 599 c 128,-1,98
 191 603 191 603 203 603 c 0,99,100
 224 603 224 603 253 589 c 128,-1,101
 282 575 282 575 309.5 550 c 128,-1,102
 337 525 337 525 355.5 490 c 128,-1,103
 374 455 374 455 374 413 c 0,104,105
 374 369 374 369 354.5 333.5 c 128,-1,106
 335 298 335 298 302 277 c 128,-1,107
 269 256 269 256 228 256 c 0,71,72
EndSplineSet
Ligature2: "'cjct' Conjunct Forms in Khojki lookup 13 subtable" gg_rakhoj iiMatrakhoj
EndChar

StartChar: gg_ra_uMatrakhoj
Encoding: 1114154 -1 70
Width: 685
GlyphClass: 2
Flags: W
AnchorPoint: "+BBEENQQ3BEsEPARPBD0EPQQ+BDUA--3" 283 600 basechar 0
AnchorPoint: "+BBEENQQ3BEsEPARPBD0EPQQ+BDUA--2" 315 -243 basechar 0
AnchorPoint: "+BBEENQQ3BEsEPARPBD0EPQQ+BDUA--0" 551 600 basechar 0
LayerCount: 2
Fore
SplineSet
257 256 m 0,0,1
 205 256 205 256 161.5 293.5 c 128,-1,2
 118 331 118 331 89 401 c 1,3,-1
 113 426 l 1,4,5
 151 380 151 380 178 364 c 128,-1,6
 205 348 205 348 233 348 c 0,7,8
 277 348 277 348 307.5 377 c 128,-1,9
 338 406 338 406 338 447 c 0,10,11
 338 472 338 472 321 494.5 c 128,-1,12
 304 517 304 517 269 517 c 0,13,14
 252 517 252 517 224.5 512 c 128,-1,15
 197 507 197 507 172.5 502 c 128,-1,16
 148 497 148 497 139 497 c 0,17,18
 121 497 121 497 111 516 c 2,19,-1
 69 601 l 1,20,-1
 101 612 l 1,21,22
 109 598 109 598 114 592.5 c 128,-1,23
 119 587 119 587 127 587 c 0,24,25
 136 587 136 587 156.5 591 c 128,-1,26
 177 595 177 595 198.5 599 c 128,-1,27
 220 603 220 603 232 603 c 0,28,29
 253 603 253 603 282 589 c 128,-1,30
 311 575 311 575 338.5 550 c 128,-1,31
 366 525 366 525 384.5 490 c 128,-1,32
 403 455 403 455 403 413 c 0,33,34
 403 369 403 369 383.5 333.5 c 128,-1,35
 364 298 364 298 331 277 c 128,-1,36
 298 256 298 256 257 256 c 0,0,1
182 42 m 1,37,-1
 99 100 l 1,38,-1
 99 109 l 1,39,-1
 518 307 l 1,40,41
 518 392 518 392 508.5 465 c 128,-1,42
 499 538 499 538 484 600 c 1,43,-1
 560 600 l 1,44,45
 572 557 572 557 581 499.5 c 128,-1,46
 590 442 590 442 595 378 c 128,-1,47
 600 314 600 314 600 251 c 0,48,49
 600 142 600 142 583 51.5 c 128,-1,50
 566 -39 566 -39 527.5 -105 c 128,-1,51
 489 -171 489 -171 427 -207 c 128,-1,52
 365 -243 365 -243 275 -243 c 0,53,54
 217 -243 217 -243 160.5 -220 c 128,-1,55
 104 -197 104 -197 56 -159 c 128,-1,56
 8 -121 8 -121 -25 -77 c 1,57,-1
 -19 -22 l 1,58,-1
 -13 -20 l 1,59,60
 38 -84 38 -84 104.5 -122.5 c 128,-1,61
 171 -161 171 -161 243 -161 c 0,62,63
 340 -161 340 -161 398 -110 c 128,-1,64
 456 -59 456 -59 485 31 c 1,65,-1
 314 -67 l 1,66,-1
 260 -3 l 1,67,-1
 261 4 l 1,68,-1
 507 131 l 1,69,70
 512 168 512 168 515 209 c 1,71,-1
 182 42 l 1,37,-1
EndSplineSet
Ligature2: "'cjct' Conjunct Forms in Khojki lookup 14 subtable" gg_rakhoj uMatrakhoj
EndChar

StartChar: ghakhoj
Encoding: 70156 70156 71
Width: 835
GlyphClass: 2
Flags: W
AnchorPoint: "+BBEENQQ3BEsEPARPBD0EPQQ+BDUA--3" 452 600 basechar 0
AnchorPoint: "+BBEENQQ3BEsEPARPBD0EPQQ+BDUA--2" 750 0 basechar 0
AnchorPoint: "+BBEENQQ3BEsEPARPBD0EPQQ+BDUA--1" 370 0 basechar 0
AnchorPoint: "+BBEENQQ3BEsEPARPBD0EPQQ+BDUA--0" 750 600 basechar 0
LayerCount: 2
Fore
SplineSet
694 -9 m 1,0,1
 689 -4 689 -4 678.5 9.5 c 128,-1,2
 668 23 668 23 657 38.5 c 128,-1,3
 646 54 646 54 638 67.5 c 128,-1,4
 630 81 630 81 629 86 c 0,5,6
 651 143 651 143 667 200 c 128,-1,7
 683 257 683 257 692 308.5 c 128,-1,8
 701 360 701 360 701 397 c 0,9,10
 701 456 701 456 680.5 490 c 128,-1,11
 660 524 660 524 634 524 c 0,12,13
 621 524 621 524 610 511 c 128,-1,14
 599 498 599 498 589 464 c 128,-1,15
 579 430 579 430 567 366 c 0,16,17
 552 283 552 283 536 215.5 c 128,-1,18
 520 148 520 148 495.5 100 c 128,-1,19
 471 52 471 52 431.5 26 c 128,-1,20
 392 0 392 0 329 0 c 0,21,22
 275 0 275 0 228 25 c 128,-1,23
 181 50 181 50 152 90.5 c 128,-1,24
 123 131 123 131 123 179 c 0,25,26
 123 239 123 239 166 275 c 1,27,28
 130 300 130 300 101.5 334.5 c 128,-1,29
 73 369 73 369 73 414 c 0,30,31
 73 450 73 450 93 478 c 128,-1,32
 113 506 113 506 147 526 c 1,33,-1
 33 526 l 1,34,-1
 -10 600 l 1,35,-1
 335 600 l 1,36,-1
 381 543 l 1,37,-1
 375 532 l 1,38,39
 261 510 261 510 199.5 473 c 128,-1,40
 138 436 138 436 138 386 c 0,41,42
 138 361 138 361 154 345 c 128,-1,43
 170 329 170 329 200 329 c 0,44,45
 228 329 228 329 260.5 339 c 128,-1,46
 293 349 293 349 322 352 c 1,47,48
 336 336 336 336 348 317 c 128,-1,49
 360 298 360 298 366 284 c 1,50,-1
 363 277 l 1,51,52
 323 270 323 270 284.5 255.5 c 128,-1,53
 246 241 246 241 221 217 c 128,-1,54
 196 193 196 193 196 155 c 0,55,56
 196 115 196 115 223.5 92 c 128,-1,57
 251 69 251 69 296 69 c 0,58,59
 348 69 348 69 380 94 c 128,-1,60
 412 119 412 119 431 165.5 c 128,-1,61
 450 212 450 212 463.5 276 c 128,-1,62
 477 340 477 340 491 418 c 0,63,64
 510 519 510 519 533.5 561 c 128,-1,65
 557 603 557 603 600 603 c 0,66,67
 638 603 638 603 677.5 570 c 128,-1,68
 717 537 717 537 743.5 477.5 c 128,-1,69
 770 418 770 418 770 338 c 0,70,71
 770 305 770 305 766 260.5 c 128,-1,72
 762 216 762 216 754.5 168 c 128,-1,73
 747 120 747 120 738.5 76 c 128,-1,74
 730 32 730 32 721 0 c 1,75,-1
 694 -9 l 1,0,1
EndSplineSet
EndChar

StartChar: gha_iMatrakhoj
Encoding: 1114155 -1 72
Width: 917
GlyphClass: 2
Flags: W
AnchorPoint: "+BBEENQQ3BEsEPARPBD0EPQQ+BDUA--3" 459 600 basechar 0
AnchorPoint: "+BBEENQQ3BEsEPARPBD0EPQQ+BDUA--2" 757 0 basechar 0
AnchorPoint: "+BBEENQQ3BEsEPARPBD0EPQQ+BDUA--1" 377 0 basechar 0
AnchorPoint: "+BBEENQQ3BEsEPARPBD0EPQQ+BDUA--0" 1101 892 basechar 0
LayerCount: 2
Fore
SplineSet
706 -3 m 1,0,-1
 641 43 l 1,1,2
 652 90 652 90 662.5 141.5 c 128,-1,3
 673 193 673 193 681.5 242 c 128,-1,4
 690 291 690 291 695.5 331.5 c 128,-1,5
 701 372 701 372 701 397 c 0,6,7
 701 456 701 456 680.5 490 c 128,-1,8
 660 524 660 524 634 524 c 0,9,10
 621 524 621 524 610 511 c 128,-1,11
 599 498 599 498 589 464 c 128,-1,12
 579 430 579 430 567 366 c 0,13,14
 551 283 551 283 535 215.5 c 128,-1,15
 519 148 519 148 495 100 c 128,-1,16
 471 52 471 52 431.5 26 c 128,-1,17
 392 0 392 0 329 0 c 0,18,19
 275 0 275 0 228 25 c 128,-1,20
 181 50 181 50 152 90.5 c 128,-1,21
 123 131 123 131 123 179 c 0,22,23
 123 239 123 239 166 275 c 1,24,25
 130 300 130 300 101.5 334.5 c 128,-1,26
 73 369 73 369 73 414 c 0,27,28
 73 450 73 450 93 478 c 128,-1,29
 113 506 113 506 147 526 c 1,30,-1
 33 526 l 1,31,-1
 -10 600 l 1,32,-1
 337 600 l 1,33,-1
 380 543 l 1,34,-1
 374 532 l 1,35,36
 261 510 261 510 199.5 473 c 128,-1,37
 138 436 138 436 138 386 c 0,38,39
 138 361 138 361 154 345 c 128,-1,40
 170 329 170 329 200 329 c 0,41,42
 228 329 228 329 260.5 339 c 128,-1,43
 293 349 293 349 322 352 c 1,44,45
 336 336 336 336 348 317 c 128,-1,46
 360 298 360 298 366 284 c 1,47,-1
 363 277 l 1,48,49
 323 270 323 270 284.5 255.5 c 128,-1,50
 246 241 246 241 221 217 c 128,-1,51
 196 193 196 193 196 155 c 0,52,53
 196 115 196 115 223.5 92 c 128,-1,54
 251 69 251 69 296 69 c 0,55,56
 348 69 348 69 379.5 94 c 128,-1,57
 411 119 411 119 430.5 165.5 c 128,-1,58
 450 212 450 212 463 276 c 128,-1,59
 476 340 476 340 491 418 c 0,60,61
 510 519 510 519 533.5 561 c 128,-1,62
 557 603 557 603 600 603 c 0,63,64
 637 603 637 603 676 571 c 128,-1,65
 715 539 715 539 741 483 c 1,66,67
 758 562 758 562 772 623 c 128,-1,68
 786 684 786 684 804 730.5 c 128,-1,69
 822 777 822 777 850 814 c 0,70,71
 879 852 879 852 917.5 873.5 c 128,-1,72
 956 895 956 895 1009 895 c 0,73,74
 1067 895 1067 895 1117.5 871 c 128,-1,75
 1168 847 1168 847 1202 809 c 1,76,-1
 1207 738 l 1,77,-1
 1198 736 l 1,78,79
 1167 771 1167 771 1124 792.5 c 128,-1,80
 1081 814 1081 814 1035 814 c 0,81,82
 962 814 962 814 916 749 c 0,83,84
 895 720 895 720 878.5 678.5 c 128,-1,85
 862 637 862 637 849 592 c 128,-1,86
 836 547 836 547 826.5 505.5 c 128,-1,87
 817 464 817 464 811 435 c 2,88,-1
 720 -1 l 1,89,-1
 706 -3 l 1,0,-1
EndSplineSet
Ligature2: "'cjct' Conjunct Forms in Khojki lookup 12 subtable" ghakhoj iMatrakhoj
EndChar

StartChar: gha_iiMatrakhoj
Encoding: 1114156 -1 73
Width: 1139
GlyphClass: 2
Flags: W
AnchorPoint: "+BBEENQQ3BEsEPARPBD0EPQQ+BDUA--3" 459 600 basechar 0
AnchorPoint: "+BBEENQQ3BEsEPARPBD0EPQQ+BDUA--2" 757 0 basechar 0
AnchorPoint: "+BBEENQQ3BEsEPARPBD0EPQQ+BDUA--1" 377 0 basechar 0
AnchorPoint: "+BBEENQQ3BEsEPARPBD0EPQQ+BDUA--0" 1027 656 basechar 0
LayerCount: 2
Fore
SplineSet
1123 -240 m 0,0,1
 1065 -240 1065 -240 1019.5 -204.5 c 128,-1,2
 974 -169 974 -169 948 -109 c 128,-1,3
 922 -49 922 -49 922 26 c 0,4,5
 922 71 922 71 930 129.5 c 128,-1,6
 938 188 938 188 948.5 251 c 128,-1,7
 959 314 959 314 967 373.5 c 128,-1,8
 975 433 975 433 975 479 c 0,9,10
 975 503 975 503 972 526 c 128,-1,11
 969 549 969 549 961 563.5 c 128,-1,12
 953 578 953 578 939 578 c 0,13,14
 914 578 914 578 884.5 525 c 128,-1,15
 855 472 855 472 823 380 c 0,16,17
 792 293 792 293 767 198.5 c 128,-1,18
 742 104 742 104 715 0 c 1,19,-1
 701 -2 l 1,20,-1
 642 46 l 1,21,22
 652 92 652 92 662.5 143 c 128,-1,23
 673 194 673 194 681.5 242.5 c 128,-1,24
 690 291 690 291 695.5 331.5 c 128,-1,25
 701 372 701 372 701 397 c 0,26,27
 701 456 701 456 680.5 490 c 128,-1,28
 660 524 660 524 634 524 c 0,29,30
 621 524 621 524 610 511 c 128,-1,31
 599 498 599 498 589 464 c 128,-1,32
 579 430 579 430 567 366 c 0,33,34
 551 283 551 283 535 215.5 c 128,-1,35
 519 148 519 148 495 100 c 128,-1,36
 471 52 471 52 431.5 26 c 128,-1,37
 392 0 392 0 329 0 c 0,38,39
 275 0 275 0 228 25 c 128,-1,40
 181 50 181 50 152 90.5 c 128,-1,41
 123 131 123 131 123 179 c 0,42,43
 123 239 123 239 166 275 c 1,44,45
 130 300 130 300 101.5 334.5 c 128,-1,46
 73 369 73 369 73 414 c 0,47,48
 73 450 73 450 93 478 c 128,-1,49
 113 506 113 506 147 526 c 1,50,-1
 33 526 l 1,51,-1
 -10 600 l 1,52,-1
 337 600 l 1,53,-1
 380 543 l 1,54,-1
 374 532 l 1,55,56
 261 510 261 510 199.5 473 c 128,-1,57
 138 436 138 436 138 386 c 0,58,59
 138 361 138 361 154 345 c 128,-1,60
 170 329 170 329 200 329 c 0,61,62
 228 329 228 329 260.5 339 c 128,-1,63
 293 349 293 349 322 352 c 1,64,65
 336 336 336 336 348 317 c 128,-1,66
 360 298 360 298 366 284 c 1,67,-1
 363 277 l 1,68,69
 323 270 323 270 284.5 255.5 c 128,-1,70
 246 241 246 241 221 217 c 128,-1,71
 196 193 196 193 196 155 c 0,72,73
 196 115 196 115 223.5 92 c 128,-1,74
 251 69 251 69 296 69 c 0,75,76
 348 69 348 69 379.5 94 c 128,-1,77
 411 119 411 119 430.5 165.5 c 128,-1,78
 450 212 450 212 463 276 c 128,-1,79
 476 340 476 340 491 418 c 0,80,81
 510 519 510 519 533.5 561 c 128,-1,82
 557 603 557 603 600 603 c 0,83,84
 641 603 641 603 684.5 562.5 c 128,-1,85
 728 522 728 522 756 444 c 1,86,87
 764 468 764 468 774.5 495 c 128,-1,88
 785 522 785 522 798 549 c 0,89,90
 827 609 827 609 853.5 635 c 128,-1,91
 880 661 880 661 910 661 c 0,92,93
 942 661 942 661 968 638 c 128,-1,94
 994 615 994 615 1012.5 575 c 128,-1,95
 1031 535 1031 535 1041.5 486 c 128,-1,96
 1052 437 1052 437 1052 384 c 0,97,98
 1052 318 1052 318 1040 243.5 c 128,-1,99
 1028 169 1028 169 1016 94.5 c 128,-1,100
 1004 20 1004 20 1004 -46 c 0,101,102
 1004 -107 1004 -107 1019 -132.5 c 128,-1,103
 1034 -158 1034 -158 1068 -158 c 0,104,105
 1096 -158 1096 -158 1118 -145 c 128,-1,106
 1140 -132 1140 -132 1147 -114 c 1,107,108
 1171 -125 1171 -125 1191 -143.5 c 128,-1,109
 1211 -162 1211 -162 1209 -187 c 0,110,111
 1208 -212 1208 -212 1183 -226 c 128,-1,112
 1158 -240 1158 -240 1123 -240 c 0,0,1
EndSplineSet
Ligature2: "'cjct' Conjunct Forms in Khojki lookup 13 subtable" ghakhoj iiMatrakhoj
EndChar

StartChar: gha_uMatrakhoj
Encoding: 1114157 -1 74
Width: 831
GlyphClass: 2
Flags: W
AnchorPoint: "+BBEENQQ3BEsEPARPBD0EPQQ+BDUA--3" 452 600 basechar 0
AnchorPoint: "+BBEENQQ3BEsEPARPBD0EPQQ+BDUA--2" 493 -210 basechar 0
AnchorPoint: "+BBEENQQ3BEsEPARPBD0EPQQ+BDUA--0" 750 600 basechar 0
LayerCount: 2
Fore
SplineSet
414 -239 m 0,0,1
 348 -239 348 -239 282 -216 c 128,-1,2
 216 -193 216 -193 158.5 -151 c 128,-1,3
 101 -109 101 -109 58 -51 c 1,4,-1
 64 4 l 1,5,-1
 70 6 l 1,6,7
 108 -45 108 -45 158 -81.5 c 128,-1,8
 208 -118 208 -118 264.5 -137.5 c 128,-1,9
 321 -157 321 -157 376 -157 c 0,10,11
 460 -157 460 -157 520.5 -116.5 c 128,-1,12
 581 -76 581 -76 619.5 -8 c 128,-1,13
 658 60 658 60 676.5 144 c 128,-1,14
 695 228 695 228 695 316 c 0,15,16
 695 346 695 346 691.5 381.5 c 128,-1,17
 688 417 688 417 680.5 448.5 c 128,-1,18
 673 480 673 480 661.5 500.5 c 128,-1,19
 650 521 650 521 633 521 c 0,20,21
 619 521 619 521 608.5 509 c 128,-1,22
 598 497 598 497 588.5 463.5 c 128,-1,23
 579 430 579 430 567 366 c 0,24,25
 551 283 551 283 535 215.5 c 128,-1,26
 519 148 519 148 495 100 c 128,-1,27
 471 52 471 52 431.5 26 c 128,-1,28
 392 0 392 0 329 0 c 0,29,30
 275 0 275 0 228 25 c 128,-1,31
 181 50 181 50 152 90.5 c 128,-1,32
 123 131 123 131 123 179 c 0,33,34
 123 239 123 239 166 275 c 1,35,36
 130 300 130 300 101.5 334.5 c 128,-1,37
 73 369 73 369 73 414 c 0,38,39
 73 450 73 450 93 478 c 128,-1,40
 113 506 113 506 147 526 c 1,41,-1
 33 526 l 1,42,-1
 -10 600 l 1,43,-1
 337 600 l 1,44,-1
 380 543 l 1,45,-1
 374 532 l 1,46,47
 261 510 261 510 199.5 473 c 128,-1,48
 138 436 138 436 138 386 c 0,49,50
 138 361 138 361 154 345 c 128,-1,51
 170 329 170 329 200 329 c 0,52,53
 228 329 228 329 260.5 339 c 128,-1,54
 293 349 293 349 322 352 c 1,55,56
 336 336 336 336 348 317 c 128,-1,57
 360 298 360 298 366 284 c 1,58,-1
 363 277 l 1,59,60
 323 270 323 270 284.5 255.5 c 128,-1,61
 246 241 246 241 221 217 c 128,-1,62
 196 193 196 193 196 155 c 0,63,64
 196 115 196 115 223.5 92 c 128,-1,65
 251 69 251 69 296 69 c 0,66,67
 348 69 348 69 379.5 94 c 128,-1,68
 411 119 411 119 430.5 165.5 c 128,-1,69
 450 212 450 212 463 276 c 128,-1,70
 476 340 476 340 491 418 c 0,71,72
 510 519 510 519 533.5 561 c 128,-1,73
 557 603 557 603 602 603 c 0,74,75
 641 603 641 603 671.5 573.5 c 128,-1,76
 702 544 702 544 723 494.5 c 128,-1,77
 744 445 744 445 755 384 c 128,-1,78
 766 323 766 323 766 260 c 0,79,80
 766 163 766 163 745 73 c 128,-1,81
 724 -17 724 -17 681.5 -87 c 128,-1,82
 639 -157 639 -157 572.5 -198 c 128,-1,83
 506 -239 506 -239 414 -239 c 0,0,1
EndSplineSet
Ligature2: "'cjct' Conjunct Forms in Khojki lookup 14 subtable" ghakhoj uMatrakhoj
EndChar

StartChar: nga_iMatrakhoj
Encoding: 1114158 -1 76
Width: 799
GlyphClass: 2
Flags: W
AnchorPoint: "+BBEENQQ3BEsEPARPBD0EPQQ+BDUA--3" 631 859 basechar 0
AnchorPoint: "+BBEENQQ3BEsEPARPBD0EPQQ+BDUA--2" 649 63 basechar 0
AnchorPoint: "+BBEENQQ3BEsEPARPBD0EPQQ+BDUA--1" 300 0 basechar 0
AnchorPoint: "+BBEENQQ3BEsEPARPBD0EPQQ+BDUA--0" 783 889 basechar 0
LayerCount: 2
Fore
SplineSet
624 455 m 0,0,1
 590 455 590 455 556 474 c 128,-1,2
 522 493 522 493 493.5 526 c 128,-1,3
 465 559 465 559 448 602.5 c 128,-1,4
 431 646 431 646 431 694 c 0,5,6
 431 750 431 750 457 795.5 c 128,-1,7
 483 841 483 841 530 868 c 128,-1,8
 577 895 577 895 639 895 c 0,9,10
 726 895 726 895 804 850 c 128,-1,11
 882 805 882 805 939 736 c 1,12,-1
 937 669 l 1,13,-1
 928 668 l 1,14,15
 882 730 882 730 816.5 770 c 128,-1,16
 751 810 751 810 678 810 c 0,17,18
 629 810 629 810 588.5 791 c 128,-1,19
 548 772 548 772 524 737 c 128,-1,20
 500 702 500 702 500 654 c 0,21,22
 500 615 500 615 517.5 581.5 c 128,-1,23
 535 548 535 548 567 531 c 1,24,-1
 601 615 l 1,25,26
 710 606 710 606 710 538 c 0,27,28
 710 510 710 510 690.5 482.5 c 128,-1,29
 671 455 671 455 624 455 c 0,0,1
294 -2 m 0,30,31
 232 -2 232 -2 182 28 c 128,-1,32
 132 58 132 58 97 108 c 128,-1,33
 62 158 62 158 45 216 c 1,34,-1
 69 265 l 1,35,-1
 77 264 l 1,36,37
 100 187 100 187 145 135 c 128,-1,38
 190 83 190 83 257 83 c 0,39,40
 313 83 313 83 350.5 113.5 c 128,-1,41
 388 144 388 144 388 196 c 0,42,43
 388 255 388 255 332 291 c 1,44,45
 281 267 281 267 215 261 c 1,46,47
 202 276 202 276 188.5 296.5 c 128,-1,48
 175 317 175 317 167 334 c 1,49,-1
 171 341 l 1,50,51
 219 346 219 346 262.5 359.5 c 128,-1,52
 306 373 306 373 333 396.5 c 128,-1,53
 360 420 360 420 360 455 c 0,54,55
 360 485 360 485 339 508.5 c 128,-1,56
 318 532 318 532 269 532 c 0,57,58
 230 532 230 532 183 512.5 c 128,-1,59
 136 493 136 493 99 457 c 1,60,61
 85 471 85 471 72.5 486.5 c 128,-1,62
 60 502 60 502 60 518 c 0,63,64
 60 541 60 541 81.5 560 c 128,-1,65
 103 579 103 579 138.5 590.5 c 128,-1,66
 174 602 174 602 216 602 c 0,67,68
 282 602 282 602 330 574 c 128,-1,69
 378 546 378 546 404 505 c 128,-1,70
 430 464 430 464 430 423 c 0,71,72
 430 389 430 389 414 361 c 128,-1,73
 398 333 398 333 369 313 c 1,74,75
 411 284 411 284 439.5 243.5 c 128,-1,76
 468 203 468 203 468 159 c 0,77,78
 468 113 468 113 445 76.5 c 128,-1,79
 422 40 422 40 382.5 19 c 128,-1,80
 343 -2 343 -2 294 -2 c 0,30,31
638 114 m 256,81,82
 607 114 607 114 586 134.5 c 128,-1,83
 565 155 565 155 565 183 c 0,84,85
 565 212 565 212 586 232.5 c 128,-1,86
 607 253 607 253 638 253 c 256,87,88
 669 253 669 253 690.5 232.5 c 128,-1,89
 712 212 712 212 712 183 c 0,90,91
 712 155 712 155 690.5 134.5 c 128,-1,92
 669 114 669 114 638 114 c 256,81,82
EndSplineSet
Ligature2: "'cjct' Conjunct Forms in Khojki lookup 12 subtable" ngakhoj iMatrakhoj
EndChar

StartChar: nga_iiMatrakhoj
Encoding: 1114159 -1 77
Width: 988
GlyphClass: 2
Flags: W
AnchorPoint: "+BBEENQQ3BEsEPARPBD0EPQQ+BDUA--3" 202 600 basechar 0
AnchorPoint: "+BBEENQQ3BEsEPARPBD0EPQQ+BDUA--2" 639 63 basechar 0
AnchorPoint: "+BBEENQQ3BEsEPARPBD0EPQQ+BDUA--1" 300 0 basechar 0
AnchorPoint: "+BBEENQQ3BEsEPARPBD0EPQQ+BDUA--0" 784 889 basechar 0
LayerCount: 2
Fore
SplineSet
971 -240 m 0,0,1
 920 -240 920 -240 877.5 -208.5 c 128,-1,2
 835 -177 835 -177 810 -121.5 c 128,-1,3
 785 -66 785 -66 785 5 c 0,4,5
 785 41 785 41 791 96 c 128,-1,6
 797 151 797 151 805.5 217 c 128,-1,7
 814 283 814 283 822 350.5 c 128,-1,8
 830 418 830 418 836 479 c 128,-1,9
 842 540 842 540 842 585 c 0,10,11
 842 689 842 689 801 749 c 128,-1,12
 760 809 760 809 677 809 c 0,13,14
 628 809 628 809 587.5 790 c 128,-1,15
 547 771 547 771 523.5 736 c 128,-1,16
 500 701 500 701 500 651 c 0,17,18
 500 614 500 614 517.5 581 c 128,-1,19
 535 548 535 548 567 531 c 1,20,-1
 601 615 l 1,21,22
 710 606 710 606 710 538 c 0,23,24
 710 510 710 510 690.5 482.5 c 128,-1,25
 671 455 671 455 624 455 c 0,26,27
 590 455 590 455 556 474 c 128,-1,28
 522 493 522 493 493.5 526 c 128,-1,29
 465 559 465 559 448 602.5 c 128,-1,30
 431 646 431 646 431 694 c 0,31,32
 431 751 431 751 457.5 796.5 c 128,-1,33
 484 842 484 842 530.5 868.5 c 128,-1,34
 577 895 577 895 637 895 c 256,35,36
 697 895 697 895 749.5 868.5 c 128,-1,37
 802 842 802 842 842 794.5 c 128,-1,38
 882 747 882 747 904.5 684.5 c 128,-1,39
 927 622 927 622 927 550 c 0,40,41
 927 510 927 510 921 449.5 c 128,-1,42
 915 389 915 389 906.5 319.5 c 128,-1,43
 898 250 898 250 889.5 179.5 c 128,-1,44
 881 109 881 109 875 47.5 c 128,-1,45
 869 -14 869 -14 869 -56 c 0,46,47
 869 -120 869 -120 883.5 -139 c 128,-1,48
 898 -158 898 -158 923 -158 c 0,49,50
 949 -158 949 -158 969.5 -145.5 c 128,-1,51
 990 -133 990 -133 999 -114 c 1,52,53
 1022 -128 1022 -128 1038 -146 c 128,-1,54
 1054 -164 1054 -164 1053 -186 c 0,55,56
 1052 -213 1052 -213 1027.5 -226.5 c 128,-1,57
 1003 -240 1003 -240 971 -240 c 0,0,1
294 -2 m 0,58,59
 232 -2 232 -2 182 28 c 128,-1,60
 132 58 132 58 97 108 c 128,-1,61
 62 158 62 158 45 216 c 1,62,-1
 69 265 l 1,63,-1
 77 264 l 1,64,65
 100 187 100 187 145 135 c 128,-1,66
 190 83 190 83 257 83 c 0,67,68
 313 83 313 83 350.5 113.5 c 128,-1,69
 388 144 388 144 388 196 c 0,70,71
 388 255 388 255 332 291 c 1,72,73
 281 267 281 267 215 261 c 1,74,75
 202 276 202 276 188.5 296.5 c 128,-1,76
 175 317 175 317 167 334 c 1,77,-1
 171 341 l 1,78,79
 219 346 219 346 262.5 359.5 c 128,-1,80
 306 373 306 373 333 396.5 c 128,-1,81
 360 420 360 420 360 455 c 0,82,83
 360 485 360 485 339 508.5 c 128,-1,84
 318 532 318 532 269 532 c 0,85,86
 230 532 230 532 183 512.5 c 128,-1,87
 136 493 136 493 99 457 c 1,88,89
 85 471 85 471 72.5 486.5 c 128,-1,90
 60 502 60 502 60 518 c 0,91,92
 60 541 60 541 81.5 560 c 128,-1,93
 103 579 103 579 138.5 590.5 c 128,-1,94
 174 602 174 602 216 602 c 0,95,96
 282 602 282 602 330 574 c 128,-1,97
 378 546 378 546 404 505 c 128,-1,98
 430 464 430 464 430 423 c 0,99,100
 430 389 430 389 414 361 c 128,-1,101
 398 333 398 333 369 313 c 1,102,103
 411 284 411 284 439.5 243.5 c 128,-1,104
 468 203 468 203 468 159 c 0,105,106
 468 113 468 113 445 76.5 c 128,-1,107
 422 40 422 40 382.5 19 c 128,-1,108
 343 -2 343 -2 294 -2 c 0,58,59
638 114 m 256,109,110
 607 114 607 114 586 134.5 c 128,-1,111
 565 155 565 155 565 183 c 0,112,113
 565 212 565 212 586 232.5 c 128,-1,114
 607 253 607 253 638 253 c 256,115,116
 669 253 669 253 690.5 232.5 c 128,-1,117
 712 212 712 212 712 183 c 0,118,119
 712 155 712 155 690.5 134.5 c 128,-1,120
 669 114 669 114 638 114 c 256,109,110
EndSplineSet
Ligature2: "'cjct' Conjunct Forms in Khojki lookup 13 subtable" ngakhoj iiMatrakhoj
EndChar

StartChar: nga_uMatrakhoj
Encoding: 1114160 -1 78
Width: 856
GlyphClass: 2
Flags: W
AnchorPoint: "+BBEENQQ3BEsEPARPBD0EPQQ+BDUA--3" 473 585 basechar 0
AnchorPoint: "+BBEENQQ3BEsEPARPBD0EPQQ+BDUA--2" 563 -210 basechar 0
AnchorPoint: "+BBEENQQ3BEsEPARPBD0EPQQ+BDUA--0" 744 573 basechar 0
LayerCount: 2
Fore
SplineSet
338 -2 m 0,0,1
 277 -2 277 -2 227.5 28 c 128,-1,2
 178 58 178 58 143.5 108 c 128,-1,3
 109 158 109 158 92 216 c 1,4,-1
 116 265 l 1,5,-1
 124 264 l 1,6,7
 148 186 148 186 192.5 134.5 c 128,-1,8
 237 83 237 83 307 83 c 0,9,10
 360 83 360 83 397.5 113.5 c 128,-1,11
 435 144 435 144 435 196 c 0,12,13
 435 255 435 255 379 291 c 1,14,15
 328 267 328 267 262 261 c 1,16,17
 249 276 249 276 235.5 296.5 c 128,-1,18
 222 317 222 317 214 334 c 1,19,-1
 218 341 l 1,20,21
 266 346 266 346 309.5 359.5 c 128,-1,22
 353 373 353 373 380 396.5 c 128,-1,23
 407 420 407 420 407 455 c 0,24,25
 407 485 407 485 386 508.5 c 128,-1,26
 365 532 365 532 316 532 c 0,27,28
 277 532 277 532 230 512.5 c 128,-1,29
 183 493 183 493 146 457 c 1,30,31
 132 471 132 471 119.5 487 c 128,-1,32
 107 503 107 503 107 519 c 0,33,34
 107 540 107 540 128 559 c 128,-1,35
 149 578 149 578 184 590 c 128,-1,36
 219 602 219 602 262 602 c 0,37,38
 328 602 328 602 376.5 574 c 128,-1,39
 425 546 425 546 451 505 c 128,-1,40
 477 464 477 464 477 423 c 0,41,42
 477 389 477 389 461 361 c 128,-1,43
 445 333 445 333 416 313 c 1,44,45
 459 282 459 282 487 242.5 c 128,-1,46
 515 203 515 203 515 155 c 0,47,48
 515 111 515 111 492 75.5 c 128,-1,49
 469 40 469 40 429 19 c 128,-1,50
 389 -2 389 -2 338 -2 c 0,0,1
685 396 m 256,51,52
 654 396 654 396 633 416.5 c 128,-1,53
 612 437 612 437 612 465 c 0,54,55
 612 494 612 494 633 514.5 c 128,-1,56
 654 535 654 535 685 535 c 256,57,58
 716 535 716 535 737.5 514.5 c 128,-1,59
 759 494 759 494 759 465 c 0,60,61
 759 437 759 437 737.5 416.5 c 128,-1,62
 716 396 716 396 685 396 c 256,51,52
488 -240 m 0,63,64
 398 -240 398 -240 311.5 -211 c 128,-1,65
 225 -182 225 -182 150 -130.5 c 128,-1,66
 75 -79 75 -79 18 -14 c 1,67,-1
 27 41 l 1,68,-1
 36 43 l 1,69,70
 86 -16 86 -16 152.5 -60.5 c 128,-1,71
 219 -105 219 -105 295 -129.5 c 128,-1,72
 371 -154 371 -154 450 -154 c 0,73,74
 507 -154 507 -154 559 -141 c 128,-1,75
 611 -128 611 -128 654 -99 c 0,76,77
 708 -62 708 -62 737 -16 c 128,-1,78
 766 30 766 30 766 79 c 0,79,80
 766 106 766 106 756 127 c 128,-1,81
 746 148 746 148 725 158 c 1,82,-1
 673 87 l 1,83,84
 639 97 639 97 615.5 121.5 c 128,-1,85
 592 146 592 146 592 181 c 0,86,87
 592 213 592 213 613 233 c 128,-1,88
 634 253 634 253 670 253 c 0,89,90
 711 253 711 253 746.5 224 c 128,-1,91
 782 195 782 195 804 148 c 128,-1,92
 826 101 826 101 826 46 c 0,93,94
 826 -15 826 -15 799.5 -67 c 128,-1,95
 773 -119 773 -119 726.5 -158 c 128,-1,96
 680 -197 680 -197 619 -218.5 c 128,-1,97
 558 -240 558 -240 488 -240 c 0,63,64
EndSplineSet
Ligature2: "'cjct' Conjunct Forms in Khojki lookup 14 subtable" ngakhoj uMatrakhoj
EndChar

StartChar: cakhoj
Encoding: 70158 70158 79
Width: 690
GlyphClass: 2
Flags: W
AnchorPoint: "+BBEENQQ3BEsEPARPBD0EPQQ+BDUA--3" 338 590 basechar 0
AnchorPoint: "+BBEENQQ3BEsEPARPBD0EPQQ+BDUA--2" 552 11 basechar 0
AnchorPoint: "+BBEENQQ3BEsEPARPBD0EPQQ+BDUA--0" 600 600 basechar 0
LayerCount: 2
Fore
SplineSet
220 41 m 0,0,1
 157 40 157 40 102 84 c 128,-1,2
 47 128 47 128 10 216 c 1,3,-1
 33 241 l 1,4,5
 77 179 77 179 111.5 155.5 c 128,-1,6
 146 132 146 132 185 132 c 0,7,8
 229 132 229 132 259.5 158 c 128,-1,9
 290 184 290 184 290 225 c 0,10,11
 290 262 290 262 265.5 290 c 128,-1,12
 241 318 241 318 202.5 340.5 c 128,-1,13
 164 363 164 363 121 382 c 1,14,-1
 128 404 l 1,15,-1
 557 404 l 1,16,17
 557 458 557 458 539.5 483.5 c 128,-1,18
 522 509 522 509 482 509 c 0,19,20
 454 509 454 509 418 498 c 1,21,22
 403 511 403 511 384 532 c 128,-1,23
 365 553 365 553 353 569 c 1,24,-1
 354 575 l 1,25,26
 371 585 371 585 396 592.5 c 128,-1,27
 421 600 421 600 443 600 c 0,28,29
 489 600 489 600 530.5 567.5 c 128,-1,30
 572 535 572 535 598.5 476.5 c 128,-1,31
 625 418 625 418 625 339 c 0,32,33
 625 305 625 305 620.5 260.5 c 128,-1,34
 616 216 616 216 608 168 c 128,-1,35
 600 120 600 120 590.5 76 c 128,-1,36
 581 32 581 32 571 0 c 1,37,-1
 546 -9 l 1,38,39
 541 -4 541 -4 531 9.5 c 128,-1,40
 521 23 521 23 510.5 38.5 c 128,-1,41
 500 54 500 54 492.5 67.5 c 128,-1,42
 485 81 485 81 484 86 c 0,43,44
 504 138 504 138 523 202.5 c 128,-1,45
 542 267 542 267 551 329 c 1,46,-1
 294 329 l 1,47,48
 325 303 325 303 345 265 c 128,-1,49
 365 227 365 227 365 183 c 0,50,51
 365 138 365 138 344.5 106.5 c 128,-1,52
 324 75 324 75 291 58.5 c 128,-1,53
 258 42 258 42 220 41 c 0,0,1
EndSplineSet
EndChar

StartChar: ca_iMatrakhoj
Encoding: 1114161 -1 80
Width: 864
GlyphClass: 2
Flags: W
AnchorPoint: "+BBEENQQ3BEsEPARPBD0EPQQ+BDUA--3" 338 590 basechar 0
AnchorPoint: "+BBEENQQ3BEsEPARPBD0EPQQ+BDUA--2" 552 11 basechar 0
AnchorPoint: "+BBEENQQ3BEsEPARPBD0EPQQ+BDUA--0" 1078 892 basechar 0
LayerCount: 2
Fore
SplineSet
220 41 m 0,0,1
 157 40 157 40 102 84 c 128,-1,2
 47 128 47 128 10 216 c 1,3,-1
 33 241 l 1,4,5
 77 179 77 179 111.5 155.5 c 128,-1,6
 146 132 146 132 185 132 c 0,7,8
 229 132 229 132 259.5 158 c 128,-1,9
 290 184 290 184 290 225 c 0,10,11
 290 262 290 262 265.5 290 c 128,-1,12
 241 318 241 318 202.5 340.5 c 128,-1,13
 164 363 164 363 121 382 c 1,14,-1
 128 404 l 1,15,-1
 560 404 l 1,16,17
 557 452 557 452 540.5 480.5 c 128,-1,18
 524 509 524 509 480 509 c 0,19,20
 454 509 454 509 418 498 c 1,21,22
 403 511 403 511 384 532 c 128,-1,23
 365 553 365 553 353 569 c 1,24,-1
 354 575 l 1,25,26
 371 585 371 585 396.5 592.5 c 128,-1,27
 422 600 422 600 444 600 c 0,28,29
 479 600 479 600 512 581 c 128,-1,30
 545 562 545 562 570.5 528 c 128,-1,31
 596 494 596 494 607 449 c 0,32,33
 615 419 615 419 618.5 372.5 c 128,-1,34
 622 326 622 326 620 278 c 1,35,36
 642 356 642 356 666 432.5 c 128,-1,37
 690 509 690 509 714.5 578.5 c 128,-1,38
 739 648 739 648 763.5 703 c 128,-1,39
 788 758 788 758 811 792 c 0,40,41
 845 842 845 842 891 868.5 c 128,-1,42
 937 895 937 895 995 895 c 0,43,44
 1051 895 1051 895 1098 871 c 128,-1,45
 1145 847 1145 847 1179 809 c 1,46,-1
 1184 738 l 1,47,-1
 1175 736 l 1,48,49
 1144 771 1144 771 1104.5 792.5 c 128,-1,50
 1065 814 1065 814 1019 814 c 0,51,52
 930 814 930 814 869 717 c 0,53,54
 839 669 839 669 807.5 592.5 c 128,-1,55
 776 516 776 516 743.5 420.5 c 128,-1,56
 711 325 711 325 678.5 217.5 c 128,-1,57
 646 110 646 110 614 -1 c 1,58,-1
 601 -4 l 1,59,-1
 537 49 l 1,60,61
 544 106 544 106 551.5 181 c 128,-1,62
 559 256 559 256 561 329 c 1,63,-1
 294 329 l 1,64,65
 325 303 325 303 345 265 c 128,-1,66
 365 227 365 227 365 183 c 0,67,68
 365 138 365 138 344.5 106.5 c 128,-1,69
 324 75 324 75 291 58.5 c 128,-1,70
 258 42 258 42 220 41 c 0,0,1
EndSplineSet
Ligature2: "'cjct' Conjunct Forms in Khojki lookup 12 subtable" cakhoj iMatrakhoj
EndChar

StartChar: ca_iiMatrakhoj
Encoding: 1114162 -1 81
Width: 1065
GlyphClass: 2
Flags: W
AnchorPoint: "+BBEENQQ3BEsEPARPBD0EPQQ+BDUA--3" 338 590 basechar 0
AnchorPoint: "+BBEENQQ3BEsEPARPBD0EPQQ+BDUA--2" 552 11 basechar 0
AnchorPoint: "+BBEENQQ3BEsEPARPBD0EPQQ+BDUA--0" 948 656 basechar 0
LayerCount: 2
Fore
SplineSet
220 41 m 0,0,1
 157 40 157 40 102 84 c 128,-1,2
 47 128 47 128 10 216 c 1,3,-1
 33 241 l 1,4,5
 77 179 77 179 111.5 155.5 c 128,-1,6
 146 132 146 132 185 132 c 0,7,8
 229 132 229 132 259.5 158 c 128,-1,9
 290 184 290 184 290 225 c 0,10,11
 290 262 290 262 265.5 290 c 128,-1,12
 241 318 241 318 202.5 340.5 c 128,-1,13
 164 363 164 363 121 382 c 1,14,-1
 128 404 l 1,15,-1
 560 404 l 1,16,17
 557 452 557 452 540.5 480.5 c 128,-1,18
 524 509 524 509 480 509 c 0,19,20
 454 509 454 509 418 498 c 1,21,22
 403 511 403 511 384 532 c 128,-1,23
 365 553 365 553 353 569 c 1,24,-1
 354 575 l 1,25,26
 371 585 371 585 396.5 592.5 c 128,-1,27
 422 600 422 600 444 600 c 0,28,29
 479 600 479 600 512 581 c 128,-1,30
 545 562 545 562 570.5 528 c 128,-1,31
 596 494 596 494 607 449 c 0,32,33
 616 417 616 417 619 365.5 c 128,-1,34
 622 314 622 314 620 262 c 1,35,36
 647 347 647 347 674 423 c 128,-1,37
 701 499 701 499 724 549 c 0,38,39
 751 608 751 608 778.5 634.5 c 128,-1,40
 806 661 806 661 834 661 c 0,41,42
 871 661 871 661 902.5 626 c 128,-1,43
 934 591 934 591 953.5 529 c 128,-1,44
 973 467 973 467 973 385 c 0,45,46
 973 319 973 319 962.5 243.5 c 128,-1,47
 952 168 952 168 941 93.5 c 128,-1,48
 930 19 930 19 930 -45 c 0,49,50
 930 -106 930 -106 945 -132 c 128,-1,51
 960 -158 960 -158 994 -158 c 0,52,53
 1022 -158 1022 -158 1044 -145 c 128,-1,54
 1066 -132 1066 -132 1073 -114 c 1,55,56
 1097 -125 1097 -125 1117 -143.5 c 128,-1,57
 1137 -162 1137 -162 1135 -187 c 0,58,59
 1134 -212 1134 -212 1109 -226 c 128,-1,60
 1084 -240 1084 -240 1049 -240 c 0,61,62
 993 -240 993 -240 947 -206 c 128,-1,63
 901 -172 901 -172 874.5 -111.5 c 128,-1,64
 848 -51 848 -51 848 28 c 0,65,66
 848 72 848 72 855 129.5 c 128,-1,67
 862 187 862 187 871.5 250 c 128,-1,68
 881 313 881 313 888 373.5 c 128,-1,69
 895 434 895 434 895 482 c 0,70,71
 895 505 895 505 892.5 527 c 128,-1,72
 890 549 890 549 883 563.5 c 128,-1,73
 876 578 876 578 862 578 c 0,74,75
 845 578 845 578 824.5 550 c 128,-1,76
 804 522 804 522 782 472 c 0,77,78
 766 436 766 436 744 377.5 c 128,-1,79
 722 319 722 319 697.5 250.5 c 128,-1,80
 673 182 673 182 651 116 c 128,-1,81
 629 50 629 50 614 -1 c 1,82,-1
 601 -4 l 1,83,-1
 537 49 l 1,84,85
 544 106 544 106 551.5 181 c 128,-1,86
 559 256 559 256 561 329 c 1,87,-1
 294 329 l 1,88,89
 325 303 325 303 345 265 c 128,-1,90
 365 227 365 227 365 183 c 0,91,92
 365 138 365 138 344.5 106.5 c 128,-1,93
 324 75 324 75 291 58.5 c 128,-1,94
 258 42 258 42 220 41 c 0,0,1
EndSplineSet
Ligature2: "'cjct' Conjunct Forms in Khojki lookup 13 subtable" cakhoj iiMatrakhoj
EndChar

StartChar: ca_uMatrakhoj
Encoding: 1114163 -1 82
Width: 735
GlyphClass: 2
Flags: W
AnchorPoint: "+BBEENQQ3BEsEPARPBD0EPQQ+BDUA--3" 339 590 basechar 0
AnchorPoint: "+BBEENQQ3BEsEPARPBD0EPQQ+BDUA--2" 404 -211 basechar 0
AnchorPoint: "+BBEENQQ3BEsEPARPBD0EPQQ+BDUA--0" 620 600 basechar 0
LayerCount: 2
Fore
SplineSet
261 41 m 0,0,1
 198 40 198 40 143 84 c 128,-1,2
 88 128 88 128 51 216 c 1,3,-1
 74 241 l 1,4,5
 118 179 118 179 152.5 155.5 c 128,-1,6
 187 132 187 132 226 132 c 0,7,8
 270 132 270 132 300.5 158 c 128,-1,9
 331 184 331 184 331 225 c 0,10,11
 331 262 331 262 306.5 290 c 128,-1,12
 282 318 282 318 243.5 340.5 c 128,-1,13
 205 363 205 363 162 382 c 1,14,-1
 169 404 l 1,15,-1
 604 404 l 1,16,17
 600 452 600 452 582.5 480.5 c 128,-1,18
 565 509 565 509 521 509 c 0,19,20
 495 509 495 509 459 498 c 1,21,22
 444 511 444 511 425 532 c 128,-1,23
 406 553 406 553 394 569 c 1,24,-1
 395 575 l 1,25,26
 412 585 412 585 437 592.5 c 128,-1,27
 462 600 462 600 484 600 c 0,28,29
 524 600 524 600 560.5 575.5 c 128,-1,30
 597 551 597 551 624 507 c 0,31,32
 670 432 670 432 670 299 c 0,33,34
 670 228 670 228 656.5 155 c 128,-1,35
 643 82 643 82 616 16 c 128,-1,36
 589 -50 589 -50 548 -101.5 c 128,-1,37
 507 -153 507 -153 450.5 -183 c 128,-1,38
 394 -213 394 -213 323 -213 c 0,39,40
 258 -213 258 -213 201.5 -188 c 128,-1,41
 145 -163 145 -163 99 -121 c 128,-1,42
 53 -79 53 -79 20 -29 c 1,43,-1
 27 28 l 1,44,-1
 33 30 l 1,45,46
 84 -41 84 -41 151.5 -84.5 c 128,-1,47
 219 -128 219 -128 296 -128 c 0,48,49
 366 -128 366 -128 422 -91.5 c 128,-1,50
 478 -55 478 -55 517.5 8.5 c 128,-1,51
 557 72 557 72 579 154.5 c 128,-1,52
 601 237 601 237 604 329 c 1,53,-1
 335 329 l 1,54,55
 366 303 366 303 386 265 c 128,-1,56
 406 227 406 227 406 183 c 0,57,58
 406 138 406 138 385.5 106.5 c 128,-1,59
 365 75 365 75 332 58.5 c 128,-1,60
 299 42 299 42 261 41 c 0,0,1
EndSplineSet
Ligature2: "'cjct' Conjunct Forms in Khojki lookup 14 subtable" cakhoj uMatrakhoj
EndChar

StartChar: c_rakhoj
Encoding: 1114164 -1 83
Width: 810
GlyphClass: 3
Flags: W
LayerCount: 2
Fore
SplineSet
220 41 m 0,0,1
 157 40 157 40 102 84 c 128,-1,2
 47 128 47 128 10 216 c 1,3,-1
 33 241 l 1,4,5
 77 179 77 179 111.5 155.5 c 128,-1,6
 146 132 146 132 185 132 c 0,7,8
 229 132 229 132 259.5 158 c 128,-1,9
 290 184 290 184 290 225 c 0,10,11
 290 262 290 262 265.5 290 c 128,-1,12
 241 318 241 318 202.5 340.5 c 128,-1,13
 164 363 164 363 121 382 c 1,14,-1
 128 404 l 1,15,-1
 677 404 l 1,16,17
 677 458 677 458 659.5 483.5 c 128,-1,18
 642 509 642 509 602 509 c 0,19,20
 574 509 574 509 538 498 c 1,21,22
 523 511 523 511 504 532 c 128,-1,23
 485 553 485 553 473 569 c 1,24,-1
 474 575 l 1,25,26
 491 585 491 585 516 592.5 c 128,-1,27
 541 600 541 600 563 600 c 0,28,29
 609 600 609 600 650.5 567.5 c 128,-1,30
 692 535 692 535 718.5 476.5 c 128,-1,31
 745 418 745 418 745 339 c 0,32,33
 745 305 745 305 740.5 260.5 c 128,-1,34
 736 216 736 216 728 168 c 128,-1,35
 720 120 720 120 710.5 76 c 128,-1,36
 701 32 701 32 691 0 c 1,37,-1
 666 -9 l 1,38,39
 661 -4 661 -4 651 9.5 c 128,-1,40
 641 23 641 23 630.5 38.5 c 128,-1,41
 620 54 620 54 612.5 67.5 c 128,-1,42
 605 81 605 81 604 86 c 0,43,44
 620 129 620 129 636.5 181 c 128,-1,45
 653 233 653 233 663 285 c 1,46,-1
 458 58 l 1,47,-1
 388 107 l 1,48,-1
 388 114 l 1,49,-1
 598 329 l 1,50,-1
 294 329 l 1,51,52
 325 303 325 303 345 265 c 128,-1,53
 365 227 365 227 365 183 c 0,54,55
 365 138 365 138 344.5 106.5 c 128,-1,56
 324 75 324 75 291 58.5 c 128,-1,57
 258 42 258 42 220 41 c 0,0,1
EndSplineSet
Ligature2: "'cjct' Conjunct Forms in Khojki lookup 11 subtable" cakhoj halantkhoj rakhoj
EndChar

StartChar: c_ra_iMatrakhoj
Encoding: 1114165 -1 84
Width: 974
GlyphClass: 3
Flags: W
LayerCount: 2
Fore
SplineSet
220 41 m 0,0,1
 157 40 157 40 102 84 c 128,-1,2
 47 128 47 128 10 216 c 1,3,-1
 33 241 l 1,4,5
 77 179 77 179 111.5 155.5 c 128,-1,6
 146 132 146 132 185 132 c 0,7,8
 229 132 229 132 259.5 158 c 128,-1,9
 290 184 290 184 290 225 c 0,10,11
 290 262 290 262 265.5 290 c 128,-1,12
 241 318 241 318 202.5 340.5 c 128,-1,13
 164 363 164 363 121 382 c 1,14,-1
 128 404 l 1,15,-1
 670 404 l 1,16,17
 667 452 667 452 650.5 480.5 c 128,-1,18
 634 509 634 509 590 509 c 0,19,20
 564 509 564 509 528 498 c 1,21,22
 513 511 513 511 494 532 c 128,-1,23
 475 553 475 553 463 569 c 1,24,-1
 464 575 l 1,25,26
 481 585 481 585 506.5 592.5 c 128,-1,27
 532 600 532 600 554 600 c 0,28,29
 589 600 589 600 622 581 c 128,-1,30
 655 562 655 562 680.5 528 c 128,-1,31
 706 494 706 494 717 449 c 0,32,33
 725 419 725 419 728.5 372.5 c 128,-1,34
 732 326 732 326 730 278 c 1,35,36
 752 356 752 356 776 432.5 c 128,-1,37
 800 509 800 509 824.5 578.5 c 128,-1,38
 849 648 849 648 873.5 703 c 128,-1,39
 898 758 898 758 921 792 c 0,40,41
 955 842 955 842 1001 868.5 c 128,-1,42
 1047 895 1047 895 1105 895 c 0,43,44
 1161 895 1161 895 1208 871 c 128,-1,45
 1255 847 1255 847 1289 809 c 1,46,-1
 1294 738 l 1,47,-1
 1285 736 l 1,48,49
 1254 771 1254 771 1214.5 792.5 c 128,-1,50
 1175 814 1175 814 1129 814 c 0,51,52
 1040 814 1040 814 979 717 c 0,53,54
 949 669 949 669 917.5 592.5 c 128,-1,55
 886 516 886 516 853.5 420.5 c 128,-1,56
 821 325 821 325 788.5 217.5 c 128,-1,57
 756 110 756 110 724 -1 c 1,58,-1
 711 -4 l 1,59,-1
 647 49 l 1,60,61
 653 99 653 99 659.5 163 c 128,-1,62
 666 227 666 227 669 292 c 1,63,-1
 458 58 l 1,64,-1
 388 107 l 1,65,-1
 388 114 l 1,66,-1
 598 329 l 1,67,-1
 294 329 l 1,68,69
 325 303 325 303 345 265 c 128,-1,70
 365 227 365 227 365 183 c 0,71,72
 365 138 365 138 344.5 106.5 c 128,-1,73
 324 75 324 75 291 58.5 c 128,-1,74
 258 42 258 42 220 41 c 0,0,1
EndSplineSet
Ligature2: "'cjct' Conjunct Forms in Khojki lookup 12 subtable" c_rakhoj iMatrakhoj
EndChar

StartChar: c_ra_iiMatrakhoj
Encoding: 1114166 -1 85
Width: 1175
GlyphClass: 3
Flags: W
LayerCount: 2
Fore
SplineSet
220 41 m 0,0,1
 157 40 157 40 102 84 c 128,-1,2
 47 128 47 128 10 216 c 1,3,-1
 33 241 l 1,4,5
 77 179 77 179 111.5 155.5 c 128,-1,6
 146 132 146 132 185 132 c 0,7,8
 229 132 229 132 259.5 158 c 128,-1,9
 290 184 290 184 290 225 c 0,10,11
 290 262 290 262 265.5 290 c 128,-1,12
 241 318 241 318 202.5 340.5 c 128,-1,13
 164 363 164 363 121 382 c 1,14,-1
 128 404 l 1,15,-1
 670 404 l 1,16,17
 667 452 667 452 650.5 480.5 c 128,-1,18
 634 509 634 509 590 509 c 0,19,20
 564 509 564 509 528 498 c 1,21,22
 513 511 513 511 494 532 c 128,-1,23
 475 553 475 553 463 569 c 1,24,-1
 464 575 l 1,25,26
 481 585 481 585 506.5 592.5 c 128,-1,27
 532 600 532 600 554 600 c 0,28,29
 589 600 589 600 622 581 c 128,-1,30
 655 562 655 562 680.5 528 c 128,-1,31
 706 494 706 494 717 449 c 0,32,33
 726 417 726 417 729 365.5 c 128,-1,34
 732 314 732 314 730 262 c 1,35,36
 757 347 757 347 784 423 c 128,-1,37
 811 499 811 499 834 549 c 0,38,39
 861 608 861 608 888.5 634.5 c 128,-1,40
 916 661 916 661 944 661 c 0,41,42
 981 661 981 661 1012.5 626 c 128,-1,43
 1044 591 1044 591 1063.5 529 c 128,-1,44
 1083 467 1083 467 1083 385 c 0,45,46
 1083 319 1083 319 1072.5 243.5 c 128,-1,47
 1062 168 1062 168 1051 93.5 c 128,-1,48
 1040 19 1040 19 1040 -45 c 0,49,50
 1040 -106 1040 -106 1055 -132 c 128,-1,51
 1070 -158 1070 -158 1104 -158 c 0,52,53
 1132 -158 1132 -158 1154 -145 c 128,-1,54
 1176 -132 1176 -132 1183 -114 c 1,55,56
 1207 -125 1207 -125 1227 -143.5 c 128,-1,57
 1247 -162 1247 -162 1245 -187 c 0,58,59
 1244 -212 1244 -212 1219 -226 c 128,-1,60
 1194 -240 1194 -240 1159 -240 c 0,61,62
 1103 -240 1103 -240 1057 -206 c 128,-1,63
 1011 -172 1011 -172 984.5 -111.5 c 128,-1,64
 958 -51 958 -51 958 28 c 0,65,66
 958 72 958 72 965 129.5 c 128,-1,67
 972 187 972 187 981.5 250 c 128,-1,68
 991 313 991 313 998 373.5 c 128,-1,69
 1005 434 1005 434 1005 482 c 0,70,71
 1005 505 1005 505 1002.5 527 c 128,-1,72
 1000 549 1000 549 993 563.5 c 128,-1,73
 986 578 986 578 972 578 c 0,74,75
 955 578 955 578 934.5 550 c 128,-1,76
 914 522 914 522 892 472 c 0,77,78
 876 436 876 436 854 377.5 c 128,-1,79
 832 319 832 319 807.5 250.5 c 128,-1,80
 783 182 783 182 761 116 c 128,-1,81
 739 50 739 50 724 -1 c 1,82,-1
 711 -4 l 1,83,-1
 647 49 l 1,84,85
 653 99 653 99 659.5 163 c 128,-1,86
 666 227 666 227 669 292 c 1,87,-1
 458 58 l 1,88,-1
 388 107 l 1,89,-1
 388 114 l 1,90,-1
 598 329 l 1,91,-1
 294 329 l 1,92,93
 325 303 325 303 345 265 c 128,-1,94
 365 227 365 227 365 183 c 0,95,96
 365 138 365 138 344.5 106.5 c 128,-1,97
 324 75 324 75 291 58.5 c 128,-1,98
 258 42 258 42 220 41 c 0,0,1
EndSplineSet
Ligature2: "'cjct' Conjunct Forms in Khojki lookup 13 subtable" c_rakhoj iiMatrakhoj
EndChar

StartChar: c_ra_uMatrakhoj
Encoding: 1114167 -1 86
Width: 853
GlyphClass: 3
Flags: W
LayerCount: 2
Fore
SplineSet
259 41 m 0,0,1
 196 40 196 40 141 84 c 128,-1,2
 86 128 86 128 49 216 c 1,3,-1
 72 241 l 1,4,5
 116 179 116 179 150.5 155.5 c 128,-1,6
 185 132 185 132 224 132 c 0,7,8
 268 132 268 132 298.5 158 c 128,-1,9
 329 184 329 184 329 225 c 0,10,11
 329 262 329 262 304.5 290 c 128,-1,12
 280 318 280 318 241.5 340.5 c 128,-1,13
 203 363 203 363 160 382 c 1,14,-1
 167 404 l 1,15,-1
 721 404 l 1,16,17
 716 449 716 449 698 479 c 128,-1,18
 680 509 680 509 639 509 c 0,19,20
 613 509 613 509 577 498 c 1,21,22
 562 511 562 511 543 532 c 128,-1,23
 524 553 524 553 512 569 c 1,24,-1
 513 575 l 1,25,26
 530 585 530 585 555 592.5 c 128,-1,27
 580 600 580 600 602 600 c 0,28,29
 643 600 643 600 681 574 c 128,-1,30
 719 548 719 548 742 507 c 0,31,32
 764 470 764 470 776 412.5 c 128,-1,33
 788 355 788 355 788 286 c 0,34,35
 788 177 788 177 758 85.5 c 128,-1,36
 728 -6 728 -6 673 -73 c 128,-1,37
 618 -140 618 -140 543 -176.5 c 128,-1,38
 468 -213 468 -213 378 -213 c 0,39,40
 309 -213 309 -213 242.5 -191 c 128,-1,41
 176 -169 176 -169 118.5 -127.5 c 128,-1,42
 61 -86 61 -86 20 -29 c 1,43,-1
 26 26 l 1,44,-1
 32 28 l 1,45,46
 86 -43 86 -43 168.5 -86 c 128,-1,47
 251 -129 251 -129 346 -129 c 0,48,49
 447 -129 447 -129 527.5 -78.5 c 128,-1,50
 608 -28 608 -28 658.5 64.5 c 128,-1,51
 709 157 709 157 720 285 c 1,52,-1
 507 58 l 1,53,-1
 437 107 l 1,54,-1
 437 114 l 1,55,-1
 655 329 l 1,56,-1
 333 329 l 1,57,58
 364 303 364 303 384 265 c 128,-1,59
 404 227 404 227 404 183 c 0,60,61
 404 138 404 138 383.5 106.5 c 128,-1,62
 363 75 363 75 330 58.5 c 128,-1,63
 297 42 297 42 259 41 c 0,0,1
EndSplineSet
Ligature2: "'cjct' Conjunct Forms in Khojki lookup 14 subtable" c_rakhoj uMatrakhoj
EndChar

StartChar: chakhoj
Encoding: 70159 70159 87
Width: 791
GlyphClass: 2
Flags: W
AnchorPoint: "+BBEENQQ3BEsEPARPBD0EPQQ+BDUA--3" 413 565 basechar 0
AnchorPoint: "+BBEENQQ3BEsEPARPBD0EPQQ+BDUA--2" 556 30 basechar 0
AnchorPoint: "+BBEENQQ3BEsEPARPBD0EPQQ+BDUA--1" 472 251 basechar 0
AnchorPoint: "+BBEENQQ3BEsEPARPBD0EPQQ+BDUA--0" 678 536 basechar 0
LayerCount: 2
Fore
SplineSet
644 0 m 0,0,1
 584 0 584 0 541 30.5 c 128,-1,2
 498 61 498 61 472 111 c 128,-1,3
 446 161 446 161 436 219 c 1,4,-1
 214 219 l 1,5,-1
 88 274 l 1,6,-1
 88 288 l 1,7,8
 158 320 158 320 201.5 364 c 128,-1,9
 245 408 245 408 245 450 c 0,10,11
 245 481 245 481 227.5 496 c 128,-1,12
 210 511 210 511 181 511 c 256,13,14
 152 511 152 511 114.5 496.5 c 128,-1,15
 77 482 77 482 40 448 c 1,16,17
 23 464 23 464 11.5 480.5 c 128,-1,18
 0 497 0 497 0 514 c 0,19,20
 0 537 0 537 19 552 c 128,-1,21
 38 567 38 567 66.5 574 c 128,-1,22
 95 581 95 581 123 581 c 0,23,24
 173 581 173 581 217 560.5 c 128,-1,25
 261 540 261 540 288.5 503 c 128,-1,26
 316 466 316 466 316 416 c 0,27,28
 316 385 316 385 301.5 352 c 128,-1,29
 287 319 287 319 255 289 c 1,30,-1
 428 289 l 1,31,32
 428 297 428 297 428 305 c 0,33,34
 428 375 428 375 446.5 428 c 128,-1,35
 465 481 465 481 498 510.5 c 128,-1,36
 531 540 531 540 575 540 c 0,37,38
 614 540 614 540 648 517 c 128,-1,39
 682 494 682 494 702.5 456 c 128,-1,40
 723 418 723 418 723 373 c 0,41,42
 723 318 723 318 694 284 c 128,-1,43
 665 250 665 250 615.5 234.5 c 128,-1,44
 566 219 566 219 503 219 c 2,45,-1
 494 219 l 1,46,47
 501 161 501 161 531.5 128.5 c 128,-1,48
 562 96 562 96 621 96 c 0,49,50
 684 96 684 96 726 128 c 1,51,52
 739 116 739 116 747.5 94.5 c 128,-1,53
 756 73 756 73 756 59 c 0,54,55
 756 39 756 39 739 26 c 128,-1,56
 722 13 722 13 696 6.5 c 128,-1,57
 670 0 670 0 644 0 c 0,0,1
610 457 m 0,58,59
 568 457 568 457 534 413 c 128,-1,60
 500 369 500 369 493 290 c 1,61,62
 564 294 564 294 609 325 c 128,-1,63
 654 356 654 356 654 406 c 0,64,65
 654 428 654 428 642.5 442.5 c 128,-1,66
 631 457 631 457 610 457 c 0,58,59
EndSplineSet
EndChar

StartChar: cha_iMatrakhoj
Encoding: 1114168 -1 88
Width: 823
GlyphClass: 2
Flags: W
AnchorPoint: "+BBEENQQ3BEsEPARPBD0EPQQ+BDUA--3" 273 575 basechar 0
AnchorPoint: "+BBEENQQ3BEsEPARPBD0EPQQ+BDUA--2" 556 30 basechar 0
AnchorPoint: "+BBEENQQ3BEsEPARPBD0EPQQ+BDUA--1" 472 251 basechar 0
AnchorPoint: "+BBEENQQ3BEsEPARPBD0EPQQ+BDUA--0" 881 889 basechar 0
LayerCount: 2
Fore
SplineSet
644 0 m 0,0,1
 584 0 584 0 541 30.5 c 128,-1,2
 498 61 498 61 472 111 c 128,-1,3
 446 161 446 161 436 219 c 1,4,-1
 214 219 l 1,5,-1
 88 274 l 1,6,-1
 88 288 l 1,7,8
 158 320 158 320 201.5 364 c 128,-1,9
 245 408 245 408 245 450 c 0,10,11
 245 481 245 481 227.5 496 c 128,-1,12
 210 511 210 511 181 511 c 256,13,14
 152 511 152 511 114.5 496.5 c 128,-1,15
 77 482 77 482 40 448 c 1,16,17
 23 464 23 464 11.5 480.5 c 128,-1,18
 0 497 0 497 0 514 c 0,19,20
 0 537 0 537 19 552 c 128,-1,21
 38 567 38 567 66.5 574 c 128,-1,22
 95 581 95 581 123 581 c 0,23,24
 173 581 173 581 217 560.5 c 128,-1,25
 261 540 261 540 288.5 503 c 128,-1,26
 316 466 316 466 316 416 c 0,27,28
 316 385 316 385 301.5 352 c 128,-1,29
 287 319 287 319 255 289 c 1,30,-1
 428 289 l 1,31,32
 428 297 428 297 428 305 c 0,33,34
 428 374 428 374 446 427 c 128,-1,35
 464 480 464 480 497 510 c 128,-1,36
 530 540 530 540 575 540 c 0,37,38
 596 540 596 540 615 533 c 1,39,40
 579 587 579 587 559.5 629 c 128,-1,41
 540 671 540 671 540 716 c 0,42,43
 540 769 540 769 566 809 c 128,-1,44
 592 849 592 849 637 872 c 128,-1,45
 682 895 682 895 738 895 c 0,46,47
 790 895 790 895 843.5 875 c 128,-1,48
 897 855 897 855 946 819 c 128,-1,49
 995 783 995 783 1033 736 c 1,50,-1
 1029 667 l 1,51,-1
 1020 666 l 1,52,53
 974 729 974 729 907.5 769 c 128,-1,54
 841 809 841 809 770 809 c 0,55,56
 698 809 698 809 658.5 770 c 128,-1,57
 619 731 619 731 619 671 c 0,58,59
 619 628 619 628 635.5 594.5 c 128,-1,60
 652 561 652 561 671 530 c 0,61,62
 691 498 691 498 707 459.5 c 128,-1,63
 723 421 723 421 723 373 c 0,64,65
 723 318 723 318 694 284 c 128,-1,66
 665 250 665 250 615.5 234.5 c 128,-1,67
 566 219 566 219 503 219 c 2,68,-1
 494 219 l 1,69,70
 501 161 501 161 531.5 128.5 c 128,-1,71
 562 96 562 96 621 96 c 0,72,73
 684 96 684 96 726 128 c 1,74,75
 739 116 739 116 747.5 94.5 c 128,-1,76
 756 73 756 73 756 59 c 0,77,78
 756 39 756 39 739 26 c 128,-1,79
 722 13 722 13 696 6.5 c 128,-1,80
 670 0 670 0 644 0 c 0,0,1
610 457 m 0,81,82
 568 457 568 457 534 413 c 128,-1,83
 500 369 500 369 493 290 c 1,84,85
 564 294 564 294 609 325 c 128,-1,86
 654 356 654 356 654 406 c 0,87,88
 654 428 654 428 642.5 442.5 c 128,-1,89
 631 457 631 457 610 457 c 0,81,82
EndSplineSet
Ligature2: "'cjct' Conjunct Forms in Khojki lookup 12 subtable" chakhoj iMatrakhoj
EndChar

